<svg width="33" height="33" viewBox="0 0 33 33" fill="none" xmlns="http://www.w3.org/2000/svg">
<path d="M23.8534 18.7223L25.6753 16.8362C25.858 16.647 25.8629 16.3485 25.6864 16.1534L16.6483 6.16392C16.5689 6.07616 16.4311 6.07616 16.3517 6.16392L7.31361 16.1534C7.1371 16.3485 7.14197 16.647 7.32475 16.8362L9.14655 18.7223C9.34076 18.9234 9.66208 18.9262 9.85974 18.7285L14.3293 14.2589C14.3923 14.1959 14.5 14.2406 14.5 14.3297L14.5 26.0882C14.5 26.3644 14.7239 26.5882 15 26.5882L18 26.5882C18.2761 26.5882 18.5 26.3644 18.5 26.0882L18.5 14.3297C18.5 14.2406 18.6077 14.1959 18.6707 14.2589L23.1403 18.7285C23.3379 18.9262 23.6592 18.9234 23.8534 18.7223Z" fill="black"/>
</svg>
