<svg width="384" height="104" viewBox="0 0 384 104" fill="none" xmlns="http://www.w3.org/2000/svg">
<path d="M169.918 51.0439V75.2734C168.966 76.4212 167.496 77.667 165.509 79.0107C163.521 80.3265 160.96 81.4603 157.824 82.4121C154.689 83.3639 150.896 83.8398 146.444 83.8398C142.497 83.8398 138.9 83.196 135.652 81.9082C132.405 80.5924 129.605 78.6748 127.254 76.1553C124.93 73.6357 123.139 70.5563 121.879 66.917C120.619 63.2497 119.989 59.0645 119.989 54.3613V50.54C119.989 45.8369 120.591 41.6517 121.795 37.9844C123.027 34.3171 124.776 31.2236 127.044 28.7041C129.312 26.1846 132.013 24.2669 135.148 22.9512C138.284 21.6354 141.769 20.9775 145.604 20.9775C150.924 20.9775 155.291 21.8454 158.706 23.5811C162.121 25.2887 164.725 27.6683 166.517 30.7197C168.336 33.7432 169.456 37.2145 169.876 41.1338H157.656C157.348 39.0622 156.76 37.2565 155.893 35.7168C155.025 34.1771 153.779 32.9733 152.155 32.1055C150.56 31.2376 148.488 30.8037 145.94 30.8037C143.841 30.8037 141.965 31.2376 140.313 32.1055C138.69 32.9453 137.318 34.1911 136.198 35.8428C135.078 37.4945 134.225 39.5381 133.637 41.9736C133.049 44.4092 132.755 47.2367 132.755 50.4561V54.3613C132.755 57.5527 133.063 60.3802 133.679 62.8438C134.295 65.2793 135.204 67.3369 136.408 69.0166C137.64 70.6683 139.152 71.9141 140.943 72.7539C142.735 73.5938 144.821 74.0137 147.2 74.0137C149.188 74.0137 150.84 73.8457 152.155 73.5098C153.499 73.1738 154.577 72.7679 155.389 72.292C156.229 71.7881 156.872 71.3122 157.32 70.8643V60.0303H145.814V51.0439H169.918ZM192.09 37.5645V83H179.954V37.5645H192.09ZM179.198 25.7227C179.198 23.959 179.814 22.5033 181.046 21.3555C182.278 20.2077 183.929 19.6338 186.001 19.6338C188.045 19.6338 189.682 20.2077 190.914 21.3555C192.174 22.5033 192.804 23.959 192.804 25.7227C192.804 27.4863 192.174 28.9421 190.914 30.0898C189.682 31.2376 188.045 31.8115 186.001 31.8115C183.929 31.8115 182.278 31.2376 181.046 30.0898C179.814 28.9421 179.198 27.4863 179.198 25.7227ZM224.34 37.5645V46.1309H197.885V37.5645H224.34ZM204.436 26.3525H216.529V69.3105C216.529 70.6263 216.697 71.6341 217.033 72.334C217.397 73.0339 217.929 73.5238 218.629 73.8037C219.329 74.0557 220.211 74.1816 221.274 74.1816C222.03 74.1816 222.702 74.1536 223.29 74.0977C223.906 74.0137 224.424 73.9297 224.844 73.8457L224.886 82.748C223.85 83.084 222.73 83.3499 221.526 83.5459C220.323 83.7419 218.993 83.8398 217.537 83.8398C214.878 83.8398 212.554 83.4059 210.566 82.5381C208.607 81.6423 207.095 80.2145 206.031 78.2549C204.967 76.2952 204.436 73.7197 204.436 70.5283V26.3525ZM272.757 46.7607V56.5869H240.843V46.7607H272.757ZM244.58 21.8594V83H231.982V21.8594H244.58ZM281.743 21.8594V83H269.188V21.8594H281.743ZM318.822 72.124V37.5645H330.916V83H319.536L318.822 72.124ZM320.166 62.8018L323.735 62.7178C323.735 65.7412 323.385 68.5547 322.686 71.1582C321.986 73.7337 320.936 75.9733 319.536 77.877C318.136 79.7526 316.373 81.2223 314.245 82.2861C312.118 83.3219 309.612 83.8398 306.729 83.8398C304.517 83.8398 302.473 83.5319 300.598 82.916C298.75 82.2721 297.154 81.2783 295.811 79.9346C294.495 78.5628 293.459 76.8132 292.703 74.6855C291.975 72.5299 291.611 69.9404 291.611 66.917V37.5645H303.705V67.001C303.705 68.3447 303.859 69.4785 304.167 70.4023C304.503 71.3262 304.965 72.082 305.553 72.6699C306.141 73.2578 306.826 73.6777 307.61 73.9297C308.422 74.1816 309.318 74.3076 310.298 74.3076C312.789 74.3076 314.749 73.8037 316.177 72.7959C317.632 71.7881 318.654 70.4163 319.242 68.6807C319.858 66.917 320.166 64.9574 320.166 62.8018ZM340.154 18.5H352.248V72.5859L351.03 83H340.154V18.5ZM381.013 59.8203V60.7021C381.013 64.0895 380.649 67.1969 379.921 70.0244C379.221 72.8519 378.129 75.3014 376.646 77.373C375.162 79.4167 373.314 81.0124 371.103 82.1602C368.919 83.2799 366.343 83.8398 363.376 83.8398C360.604 83.8398 358.197 83.2799 356.153 82.1602C354.138 81.0404 352.444 79.4587 351.072 77.415C349.701 75.3714 348.595 72.9779 347.755 70.2344C346.915 67.4909 346.285 64.4954 345.865 61.248V59.3164C346.285 56.069 346.915 53.0736 347.755 50.3301C348.595 47.5866 349.701 45.193 351.072 43.1494C352.444 41.1058 354.138 39.5241 356.153 38.4043C358.169 37.2845 360.549 36.7246 363.292 36.7246C366.287 36.7246 368.891 37.2985 371.103 38.4463C373.342 39.5661 375.19 41.1618 376.646 43.2334C378.129 45.277 379.221 47.7126 379.921 50.54C380.649 53.3395 381.013 56.4329 381.013 59.8203ZM368.919 60.7021V59.8203C368.919 57.9727 368.779 56.237 368.499 54.6133C368.247 52.9616 367.799 51.5199 367.155 50.2881C366.511 49.0283 365.63 48.0345 364.51 47.3066C363.418 46.5788 362.004 46.2148 360.269 46.2148C358.617 46.2148 357.217 46.4948 356.069 47.0547C354.922 47.6146 353.97 48.3984 353.214 49.4062C352.486 50.4141 351.94 51.6178 351.576 53.0176C351.212 54.3893 350.988 55.901 350.904 57.5527V63.0537C350.988 65.2653 351.352 67.2249 351.996 68.9326C352.668 70.6123 353.676 71.9421 355.02 72.9219C356.391 73.8737 358.169 74.3496 360.353 74.3496C362.06 74.3496 363.474 74.0137 364.594 73.3418C365.714 72.6699 366.581 71.7181 367.197 70.4863C367.841 69.2546 368.289 67.8128 368.541 66.1611C368.793 64.4814 368.919 62.6618 368.919 60.7021Z" fill="black"/>
<circle cx="51" cy="51" r="51" fill="black"/>
<path d="M63.916 80.374L60.3711 75.0566C60.1858 74.7787 60.3199 74.4007 60.6389 74.3017L74.3638 70.0423C74.4528 70.0146 74.5324 69.9627 74.5934 69.8922L80.9326 62.5778C80.9771 62.5265 81.0106 62.4666 81.0312 62.4019L84.4641 51.6127C84.4877 51.5386 84.4937 51.46 84.4816 51.3831L83.0156 42.0988C83.0053 42.0336 82.9822 41.971 82.9476 41.9148L79.0551 35.5896C79.0188 35.5305 78.9951 35.4645 78.9856 35.3958L77.0862 21.6247C77.0421 21.3055 76.7121 21.1107 76.4114 21.2264L64.1171 25.955C64.0402 25.9845 63.9573 25.9947 63.8756 25.9844L52.0576 24.5072C52.0193 24.5024 51.9806 24.5021 51.9423 24.5062L38.1137 25.9878C38.0389 25.9958 37.9632 25.9869 37.8923 25.9615L24.5794 21.2069C24.2806 21.1002 23.9593 21.2952 23.9159 21.6095L22.0123 35.4107C22.0042 35.4697 21.9855 35.5269 21.9572 35.5794L18.5598 41.889C18.5205 41.9619 18.5 42.0433 18.5 42.1261V50.4586C18.5 50.4862 18.5023 50.5137 18.5068 50.5408L20.4737 62.3419C20.4908 62.4447 20.5396 62.5396 20.6133 62.6133L27.9145 69.9145C27.9707 69.9707 28.0394 70.0127 28.1151 70.037L41.3698 74.2974C41.6858 74.399 41.8169 74.7746 41.6328 75.0508L38.1484 80.2773C38.0557 80.4164 37.8996 80.5 37.7324 80.5H29.118C29.0404 80.5 28.9639 80.4819 28.8944 80.4472L25.0847 78.5423C25.0287 78.5144 24.9785 78.4761 24.9367 78.4296L20.5698 73.5775C20.5238 73.5264 20.4677 73.4853 20.405 73.4568L15.3658 71.1663C15.1522 71.0692 14.8997 71.1337 14.7589 71.3215L13.7299 72.6935C13.5942 72.8744 13.5968 73.1237 13.7361 73.3017L22.4447 84.4293C22.4813 84.4761 22.5259 84.5159 22.5764 84.547L28.8795 88.4258C28.9583 88.4743 29.049 88.5 29.1415 88.5H37.5C37.7761 88.5 38 88.7239 38 89V99.1114C38 99.3401 38.1527 99.5388 38.375 99.5927C39.9972 99.986 46.5308 101.5 51 101.5C55.4692 101.5 62.0028 99.986 63.625 99.5927C63.8473 99.5388 64 99.3401 64 99.1114V80.6514C64 80.5527 63.9708 80.4562 63.916 80.374Z" fill="white"/>
</svg>
