<svg width="388" height="126" viewBox="0 0 388 126" fill="none" xmlns="http://www.w3.org/2000/svg">
<rect x="294" y="11" width="94" height="93" rx="8" fill="#0057A3"/>
<path d="M19.572 80.912H38.388V92H5.208V33.032H19.572V80.912ZM52.4633 40.256C49.9433 40.256 47.8713 39.528 46.2473 38.072C44.6793 36.56 43.8953 34.712 43.8953 32.528C43.8953 30.288 44.6793 28.44 46.2473 26.984C47.8713 25.472 49.9433 24.716 52.4633 24.716C54.9273 24.716 56.9433 25.472 58.5113 26.984C60.1353 28.44 60.9473 30.288 60.9473 32.528C60.9473 34.712 60.1353 36.56 58.5113 38.072C56.9433 39.528 54.9273 40.256 52.4633 40.256ZM59.6033 45.128V92H45.2393V45.128H59.6033ZM98.5727 44.624C104.061 44.624 108.429 46.416 111.677 50C114.981 53.528 116.633 58.4 116.633 64.616V92H102.353V66.548C102.353 63.412 101.541 60.976 99.9167 59.24C98.2927 57.504 96.1087 56.636 93.3647 56.636C90.6207 56.636 88.4367 57.504 86.8127 59.24C85.1887 60.976 84.3767 63.412 84.3767 66.548V92H70.0127V45.128H84.3767V51.344C85.8327 49.272 87.7927 47.648 90.2567 46.472C92.7207 45.24 95.4927 44.624 98.5727 44.624ZM155.258 92L140.978 72.344V92H126.614V29.84H140.978V64.196L155.174 45.128H172.898L153.41 68.648L173.066 92H155.258ZM222.724 67.808C222.724 69.152 222.64 70.552 222.472 72.008H189.964C190.188 74.92 191.112 77.16 192.736 78.728C194.416 80.24 196.46 80.996 198.868 80.996C202.452 80.996 204.944 79.484 206.344 76.46H221.632C220.848 79.54 219.42 82.312 217.348 84.776C215.332 87.24 212.784 89.172 209.704 90.572C206.624 91.972 203.18 92.672 199.372 92.672C194.78 92.672 190.692 91.692 187.108 89.732C183.524 87.772 180.724 84.972 178.708 81.332C176.692 77.692 175.684 73.436 175.684 68.564C175.684 63.692 176.664 59.436 178.624 55.796C180.64 52.156 183.44 49.356 187.024 47.396C190.608 45.436 194.724 44.456 199.372 44.456C203.908 44.456 207.94 45.408 211.468 47.312C214.996 49.216 217.74 51.932 219.7 55.46C221.716 58.988 222.724 63.104 222.724 67.808ZM208.024 64.028C208.024 61.564 207.184 59.604 205.504 58.148C203.824 56.692 201.724 55.964 199.204 55.964C196.796 55.964 194.752 56.664 193.072 58.064C191.448 59.464 190.44 61.452 190.048 64.028H208.024ZM227.446 68.48C227.446 63.664 228.342 59.436 230.134 55.796C231.982 52.156 234.474 49.356 237.61 47.396C240.746 45.436 244.246 44.456 248.11 44.456C251.19 44.456 253.99 45.1 256.51 46.388C259.086 47.676 261.102 49.412 262.558 51.596V29.84H276.922V92H262.558V85.28C261.214 87.52 259.282 89.312 256.762 90.656C254.298 92 251.414 92.672 248.11 92.672C244.246 92.672 240.746 91.692 237.61 89.732C234.474 87.716 231.982 84.888 230.134 81.248C228.342 77.552 227.446 73.296 227.446 68.48ZM262.558 68.564C262.558 64.98 261.55 62.152 259.534 60.08C257.574 58.008 255.166 56.972 252.31 56.972C249.454 56.972 247.018 58.008 245.002 60.08C243.042 62.096 242.062 64.896 242.062 68.48C242.062 72.064 243.042 74.92 245.002 77.048C247.018 79.12 249.454 80.156 252.31 80.156C255.166 80.156 257.574 79.12 259.534 77.048C261.55 74.976 262.558 72.148 262.558 68.564Z" fill="#0057A3"/>
<path d="M313.432 40.256C310.912 40.256 308.84 39.528 307.216 38.072C305.648 36.56 304.864 34.712 304.864 32.528C304.864 30.288 305.648 28.44 307.216 26.984C308.84 25.472 310.912 24.716 313.432 24.716C315.896 24.716 317.912 25.472 319.48 26.984C321.104 28.44 321.916 30.288 321.916 32.528C321.916 34.712 321.104 36.56 319.48 38.072C317.912 39.528 315.896 40.256 313.432 40.256ZM320.572 45.128V92H306.208V45.128H320.572ZM359.541 44.624C365.029 44.624 369.397 46.416 372.645 50C375.949 53.528 377.601 58.4 377.601 64.616V92H363.321V66.548C363.321 63.412 362.509 60.976 360.885 59.24C359.261 57.504 357.077 56.636 354.333 56.636C351.589 56.636 349.405 57.504 347.781 59.24C346.157 60.976 345.345 63.412 345.345 66.548V92H330.981V45.128H345.345V51.344C346.801 49.272 348.761 47.648 351.225 46.472C353.689 45.24 356.461 44.624 359.541 44.624Z" fill="white"/>
</svg>
