<svg width="33" height="33" viewBox="0 0 33 33" fill="none" xmlns="http://www.w3.org/2000/svg">
<path d="M26.5902 9.42335L24.2472 7.30351C24.0568 7.1312 23.7668 7.1312 23.5763 7.30351L16.5671 13.6452C16.529 13.6796 16.471 13.6796 16.4329 13.6452L9.42369 7.30351C9.23324 7.1312 8.94322 7.1312 8.75278 7.30351L6.4098 9.42335C6.1904 9.62185 6.1904 9.96639 6.4098 10.1649L13.3298 16.4259C13.3737 16.4656 13.3737 16.5345 13.3298 16.5742L6.40981 22.8351C6.19041 23.0336 6.19041 23.3782 6.40981 23.5767L8.75279 25.6965C8.94323 25.8688 9.23325 25.8688 9.4237 25.6965L16.4329 19.3548C16.471 19.3204 16.529 19.3204 16.5671 19.3548L23.5763 25.6965C23.7667 25.8688 24.0568 25.8688 24.2472 25.6965L26.5902 23.5766C26.8096 23.3781 26.8096 23.0336 26.5902 22.8351L19.6702 16.5742C19.6263 16.5345 19.6263 16.4656 19.6702 16.4259L26.5902 10.1649C26.8096 9.96639 26.8096 9.62185 26.5902 9.42335Z" fill="white"/>
</svg>
