<?xml version="1.0" standalone="no"?>
<!DOCTYPE svg PUBLIC "-//W3C//DTD SVG 20010904//EN"
 "http://www.w3.org/TR/2001/REC-SVG-20010904/DTD/svg10.dtd">
<svg version="1.0" xmlns="http://www.w3.org/2000/svg"
 width="260.000000pt" height="260.000000pt" viewBox="0 0 260.000000 260.000000"
 preserveAspectRatio="xMidYMid meet">
<metadata>
Created by potrace 1.14, written by Peter Selinger 2001-2017
</metadata>
<g transform="translate(0.000000,260.000000) scale(0.100000,-0.100000)"
fill="#000000" stroke="none">
<path d="M0 2473 c0 -130 2 -141 94 -570 52 -241 96 -447 99 -458 3 -16 7 -13
21 18 64 146 296 601 350 690 36 60 66 111 66 113 0 2 -6 1 -14 -2 -20 -8 -26
19 -17 77 9 58 4 92 -13 82 -6 -3 -6 0 2 8 7 7 12 42 13 84 1 67 1 69 14 40
l14 -30 2 30 1 30 8 -30 c11 -42 11 -149 0 -115 -7 20 -8 16 -9 -22 -1 -26 3
-49 9 -53 6 -4 6 -15 0 -31 -13 -32 -13 -57 -1 -52 5 2 29 30 54 63 42 58 44
64 49 148 5 67 3 89 -8 98 -11 9 -18 8 -31 -2 -11 -10 -14 -10 -9 -1 4 6 3 12
-3 12 -5 0 -12 -8 -14 -17 -4 -17 -5 -17 -6 -1 -1 14 -10 18 -43 17 -62 -1
-78 -8 -78 -30 0 -32 -17 -55 -57 -80 -21 -13 -44 -29 -51 -36 -8 -7 -22 -18
-33 -24 -11 -5 -18 -13 -15 -17 7 -13 -116 -14 -168 -1 -59 14 -117 41 -135
63 -8 9 -18 16 -24 16 -6 0 5 -17 24 -37 l34 -38 -36 33 c-20 18 -36 38 -37
45 0 7 -12 35 -26 62 l-25 50 -1 -132z m691 -80 c13 -16 12 -17 -3 -4 -10 7
-18 15 -18 17 0 8 8 3 21 -13z"/>
<path d="M786 2578 c-3 -13 -7 -45 -8 -71 l-3 -48 37 41 c83 89 156 97 441 50
595 -100 1101 -225 1220 -300 93 -59 108 -125 83 -362 -53 -499 -112 -829
-212 -1168 -129 -443 -138 -461 -261 -557 -15 -12 -40 -25 -55 -29 -16 -3 -28
-10 -28 -16 0 -6 -7 -7 -16 -4 -8 3 -13 2 -10 -2 10 -17 -107 -55 -193 -63
-104 -10 -165 1 -401 73 -218 65 -608 188 -634 199 -12 5 -109 40 -216 78
-235 83 -262 95 -317 132 -40 28 -113 119 -96 119 4 0 3 4 -3 8 -5 4 -28 36
-50 72 -38 63 -39 68 -39 155 0 50 5 98 11 109 9 14 11 -3 10 -77 -1 -91 0
-97 29 -139 17 -23 54 -57 82 -74 58 -35 260 -119 478 -199 385 -142 1158
-355 1260 -347 62 4 121 18 138 33 18 14 22 27 22 81 0 34 -4 80 -8 101 -7 31
-12 37 -32 37 -25 0 -29 8 -26 43 1 9 -3 17 -8 17 -6 0 -11 4 -11 9 0 5 9 7
20 4 15 -4 20 0 20 15 0 12 -4 24 -10 27 -6 3 -7 -1 -4 -9 3 -9 2 -16 -4 -16
-14 0 -22 38 -9 43 9 3 9 11 0 30 -8 16 -9 27 -3 27 6 0 10 8 10 18 0 32 29
80 53 86 31 8 87 94 87 134 0 18 6 47 13 65 8 18 17 49 21 70 4 21 22 63 40
95 42 70 101 244 92 267 -5 13 -12 15 -34 10 -15 -4 -36 -8 -47 -9 -11 -1 -24
-5 -28 -11 -4 -5 -7 6 -5 25 2 19 12 44 23 56 11 12 26 30 34 39 17 21 41 100
41 135 0 24 -5 28 -35 32 -19 2 -41 0 -49 -4 -9 -5 -15 -1 -19 14 -8 28 -1 38
27 38 32 0 123 60 150 100 12 19 25 47 28 62 4 23 2 27 -15 25 -11 -1 -22 4
-24 11 -3 7 5 12 21 12 24 0 26 4 26 39 0 42 -12 57 -52 65 -14 2 -40 12 -58
21 -17 9 -38 14 -46 11 -7 -3 -16 -1 -19 4 -3 5 -13 9 -23 8 -39 0 -188 39
-219 59 -13 7 -23 11 -23 8 0 -3 -16 1 -35 9 -19 8 -74 18 -122 21 -48 4 -90
10 -93 14 -5 7 -82 31 -107 33 -7 1 -13 5 -13 9 0 4 -8 6 -17 5 -9 -2 -29 4
-45 11 -15 8 -32 12 -38 8 -5 -3 -10 -2 -10 4 0 5 -10 13 -22 17 -27 8 -74 37
-276 172 -85 56 -159 103 -166 103 -6 1 -28 3 -49 4 -45 3 -56 11 -28 20 12 3
21 11 21 16 0 6 -7 6 -19 -1 -14 -7 -20 -7 -23 1 -5 16 -55 -12 -89 -48 -115
-125 -282 -397 -421 -688 -37 -77 -108 -225 -158 -330 -51 -104 -101 -209
-112 -233 -11 -23 -22 -41 -25 -39 -4 5 20 68 61 160 l26 57 -95 0 -95 0 0
-705 0 -705 1300 0 1300 0 0 28 c0 15 -5 33 -11 39 -8 8 -8 13 0 17 7 5 11 48
11 115 l0 108 -38 30 c-21 17 -58 55 -82 85 -24 29 -33 43 -19 30 14 -12 29
-19 34 -15 4 5 5 1 0 -7 -6 -12 -5 -12 5 -3 10 9 5 21 -24 61 -20 27 -36 57
-36 65 0 9 -10 23 -22 31 -30 21 -14 21 17 0 29 -19 31 -13 10 19 -8 13 -17
34 -19 47 -2 14 -5 25 -7 25 -1 0 -3 11 -4 25 -1 14 -5 37 -10 52 -5 18 -3 28
4 28 6 0 11 7 11 17 0 15 -1 15 -19 -1 -18 -16 -18 -16 -14 9 3 14 10 25 15
25 5 0 7 4 4 9 -3 5 7 65 23 133 16 67 37 166 47 218 10 52 22 98 27 101 5 4
6 13 2 20 -6 8 -4 11 7 7 12 -5 15 1 13 33 -2 29 1 39 11 35 7 -3 15 2 18 10
3 8 11 14 18 14 9 0 8 -3 -2 -10 -8 -5 -10 -10 -4 -10 18 0 24 12 14 25 -8 9
-6 14 5 19 13 5 15 75 15 588 -1 403 -4 578 -11 565 -5 -9 -7 -22 -3 -29 4 -7
3 -8 -4 -4 -10 6 -15 -11 -11 -40 0 -4 -3 -10 -8 -13 -5 -3 -22 -37 -38 -75
-44 -107 -41 -62 5 54 22 57 40 107 40 112 0 4 -400 8 -890 8 l-890 0 -4 -22z
m103 -89 c-15 -9 -32 -2 -24 11 3 5 13 6 21 3 12 -4 13 -8 3 -14z m87 -318
c-8 -13 -36 -15 -36 -3 0 4 5 13 12 20 14 14 34 0 24 -17z m501 -25 c79 -10
134 -81 128 -166 -3 -56 -10 -71 -29 -64 -8 3 -17 1 -20 -5 -4 -6 -13 -8 -20
-5 -8 3 -17 1 -21 -5 -4 -7 5 -11 22 -12 15 0 22 -3 15 -6 -6 -2 -10 -8 -7
-13 7 -11 -24 -35 -33 -25 -4 4 -1 10 6 12 6 3 12 9 12 15 0 6 -6 6 -15 -2 -8
-7 -15 -18 -15 -26 0 -19 -20 -28 -33 -14 -9 9 -7 16 11 30 12 10 22 20 22 23
0 2 -10 4 -22 3 -14 -1 -22 4 -20 12 1 6 -7 12 -18 12 -11 0 -19 -3 -18 -7 2
-10 -20 -63 -26 -63 -3 0 -3 6 0 14 7 17 -44 19 -65 2 -11 -8 -13 -8 -8 1 4 6
2 15 -4 19 -9 5 -7 11 6 21 22 15 16 17 -19 3 -18 -6 -26 -6 -26 1 0 6 -4 8
-8 5 -4 -2 -14 9 -21 25 -7 16 -17 29 -22 29 -6 0 -8 -4 -4 -9 3 -5 1 -12 -4
-15 -10 -7 -9 20 2 30 3 4 3 12 0 18 -14 21 -12 40 7 60 10 12 29 33 43 48 28
33 113 68 147 62 14 -2 39 -6 57 -8z m568 -111 c36 -4 56 -12 72 -30 12 -14
25 -20 28 -15 3 5 21 -4 40 -22 44 -39 43 -56 -12 -187 -9 -22 -10 -22 -17 -6
-4 11 -2 22 6 27 14 8 14 8 -18 12 -24 3 -26 -12 -4 -40 13 -17 12 -17 -8 0
-23 20 -56 31 -47 16 3 -4 -2 -10 -10 -14 -8 -3 -19 3 -24 12 -6 9 -11 12 -11
5 0 -7 -6 -10 -14 -7 -8 3 -12 12 -10 19 3 7 1 16 -5 19 -7 5 -9 -7 -5 -34 5
-34 3 -39 -10 -34 -9 4 -16 1 -16 -6 0 -10 -3 -10 -15 0 -8 7 -15 17 -15 22 0
15 -23 33 -47 35 -13 2 -23 -2 -23 -8 0 -5 5 -7 10 -4 14 9 12 -9 -2 -24 -11
-10 -10 -15 3 -24 15 -11 14 -14 -9 -25 -15 -7 -22 -8 -15 -1 7 7 4 17 -13 34
-21 21 -31 61 -25 98 0 4 -3 7 -8 7 -25 0 43 163 74 178 19 10 44 9 150 -3z
m260 -146 c5 -23 10 -28 16 -18 6 10 8 7 6 -9 -1 -23 -12 -29 -22 -12 -13 21
-23 70 -15 70 5 0 12 -14 15 -31z m-1410 -20 c-11 -4 -15 -8 -10 -9 6 0 24
-12 40 -26 17 -13 22 -22 13 -18 -10 3 -18 1 -18 -5 0 -6 7 -11 15 -11 8 0 15
-6 15 -13 0 -7 9 -13 20 -13 27 0 25 6 -15 43 -19 18 -35 42 -35 53 0 20 1 21
25 3 13 -10 25 -24 25 -31 0 -7 5 -10 12 -6 6 4 8 3 5 -3 -4 -6 1 -19 9 -29 9
-10 13 -14 10 -8 -9 17 22 26 46 13 52 -28 86 -97 56 -115 -7 -4 -8 -3 -4 4 4
7 1 12 -6 12 -9 0 -9 3 2 10 12 7 12 13 4 27 -6 10 -17 18 -23 18 -7 0 -21 11
-31 25 -10 14 -22 21 -26 17 -4 -4 -2 -7 4 -7 7 0 12 -5 12 -10 0 -5 -3 -9 -7
-9 -18 3 -33 -2 -33 -10 0 -5 10 -7 23 -4 13 3 17 1 11 -4 -6 -4 -11 -16 -11
-26 0 -12 4 -14 11 -7 15 15 30 12 17 -3 -6 -8 -8 -17 -4 -20 3 -4 1 -7 -6 -7
-8 0 -5 -10 8 -29 11 -15 18 -31 16 -35 -3 -3 -2 -4 2 -1 10 8 13 36 4 30 -5
-2 -8 9 -7 25 1 38 10 38 26 0 12 -29 38 -37 32 -11 -1 7 2 10 8 6 5 -3 10
-13 10 -21 0 -8 -4 -12 -10 -9 -9 6 -14 -8 -11 -28 1 -5 -3 -6 -8 -3 -5 4 -21
2 -35 -4 -19 -7 -25 -6 -23 3 1 7 -4 11 -12 9 -8 -2 -18 3 -23 10 -5 8 -6 2
-2 -14 4 -18 2 -28 -6 -28 -6 0 -9 -4 -6 -9 4 -5 0 -12 -6 -15 -10 -5 -10 -7
0 -12 6 -3 12 -9 12 -14 0 -13 -42 2 -62 22 -20 20 -20 20 -42 -1 -18 -17 -23
-18 -23 -6 0 8 4 15 9 15 5 0 6 5 3 11 -4 6 -13 8 -21 5 -8 -3 -14 -1 -14 5 0
5 -7 9 -16 7 -10 -2 -19 4 -21 12 -3 11 -2 11 4 3 5 -8 14 -9 23 -3 12 7 11
10 -4 16 -13 5 -23 1 -32 -11 -12 -16 -14 -17 -14 -2 0 9 -7 20 -16 25 -11 6
-13 11 -5 16 6 4 11 3 11 -2 0 -5 7 -9 15 -9 8 0 15 6 15 14 0 7 -9 13 -20 13
-11 0 -20 4 -20 9 0 13 25 8 44 -8 9 -7 16 -10 17 -5 0 5 2 17 4 28 3 14 1 16
-8 7 -16 -16 -30 -14 -24 4 4 8 2 17 -3 20 -6 4 -10 -3 -10 -15 0 -12 -5 -18
-10 -15 -6 3 -13 0 -16 -9 -3 -8 -14 -14 -24 -13 -10 1 -16 5 -14 9 3 5 9 6
14 3 10 -6 19 15 12 32 -2 7 -8 10 -13 7 -5 -3 -6 1 -3 9 3 8 1 18 -5 22 -6 3
-11 -1 -11 -10 0 -9 -5 -13 -11 -10 -7 5 -5 13 5 24 9 10 13 21 9 25 -5 4 -3
7 2 6 22 -5 35 1 35 16 0 8 5 12 10 9 6 -3 10 -2 10 4 0 6 6 8 14 5 8 -3 16 4
20 20 6 26 26 34 66 27 23 -4 23 -5 5 -12z m815 -79 c-8 -5 -19 -10 -25 -10
-5 0 -3 5 5 10 8 5 20 10 25 10 6 0 3 -5 -5 -10z m12 -92 c14 -15 22 -28 18
-28 -5 0 -12 5 -15 10 -3 6 -11 10 -16 10 -6 0 -8 -4 -5 -9 3 -5 -1 -11 -9
-15 -17 -6 -21 19 -5 29 13 8 13 25 -1 25 -5 0 -8 -4 -5 -8 3 -5 -8 -21 -25
-36 -16 -15 -27 -31 -24 -36 3 -4 -4 -6 -14 -3 -16 4 -18 10 -12 42 1 2 8 -2
16 -9 9 -8 15 -8 15 -2 0 16 -23 20 -42 8 -12 -7 -14 -14 -7 -28 6 -10 7 -24
3 -30 -5 -8 -10 -5 -15 8 -6 16 -8 15 -8 -8 -1 -23 12 -42 29 -43 3 0 14 -5
24 -12 19 -10 19 -11 -1 -21 -11 -6 -23 -8 -27 -5 -3 3 -9 -8 -12 -25 -7 -33
-19 -41 -27 -19 -4 8 -6 9 -6 0 -1 -6 6 -19 15 -27 14 -15 13 -16 -8 -13 -13
2 -23 10 -23 18 0 8 -6 18 -12 22 -21 13 -15 25 10 21 20 -4 20 -4 -3 6 -13 6
-28 16 -32 23 -5 7 -8 3 -8 -12 0 -14 6 -32 14 -40 13 -14 11 -16 -14 -15 -38
1 -56 22 -55 66 1 27 -2 34 -11 27 -6 -5 -10 -26 -8 -46 2 -25 0 -32 -7 -23
-5 8 -9 24 -10 35 0 11 -3 14 -6 8 -2 -7 -12 -13 -22 -13 -30 0 -36 137 -7
169 38 42 126 72 219 75 9 0 17 4 17 8 0 11 91 -52 122 -84z m82 77 c-4 -8
-10 -15 -15 -15 -5 0 -9 7 -9 15 0 8 7 15 15 15 9 0 12 -6 9 -15z m131 -13
c-8 -8 -25 10 -19 20 4 6 9 5 15 -3 4 -7 6 -15 4 -17z m-30 -2 c3 -5 1 -10 -4
-10 -6 0 -11 5 -11 10 0 6 2 10 4 10 3 0 8 -4 11 -10z m142 -3 c0 -8 -6 -14
-14 -14 -9 0 -10 4 -2 14 6 7 12 13 14 13 1 0 2 -6 2 -13z m70 -2 c0 -17 -13
-20 -21 -6 -4 5 0 12 6 14 7 3 13 6 14 6 0 1 1 -6 1 -14z m-342 -14 c-3 -5 0
-13 6 -17 8 -4 7 -9 -2 -15 -9 -6 -1 -8 23 -6 26 3 35 1 31 -9 -2 -7 -11 -10
-18 -8 -7 3 -23 1 -34 -6 -16 -8 -21 -8 -22 2 -3 30 6 68 16 68 4 0 4 -4 0 -9z
m-1025 -27 c0 -2 -7 -4 -15 -4 -8 0 -15 4 -15 10 0 5 7 7 15 4 8 -4 15 -8 15
-10z m936 -74 c8 0 14 -8 13 -17 0 -11 -3 -13 -6 -5 -2 6 -11 12 -19 12 -9 0
-12 -5 -8 -12 4 -6 3 -8 -4 -5 -5 4 -8 17 -4 29 3 12 7 17 10 10 2 -6 10 -12
18 -12z m66 -24 c2 -11 -3 -20 -13 -21 -11 -2 -15 4 -13 19 1 11 3 25 3 31 1
15 19 -7 23 -29z m-112 -11 c0 -6 15 -11 32 -10 24 0 33 -5 34 -18 2 -14 1
-14 -3 -1 -4 14 -7 14 -26 -3 -11 -10 -17 -12 -13 -5 6 10 1 11 -20 6 -23 -6
-26 -4 -21 10 4 10 1 16 -8 16 -8 0 -15 4 -15 9 0 6 9 9 20 8 11 -1 20 -6 20
-12z m-565 -27 c5 4 5 1 1 -6 -6 -10 -11 -10 -22 -1 -8 6 -14 14 -14 16 0 3 6
0 13 -6 8 -6 18 -7 22 -3z m675 -2 c0 -2 -7 -7 -16 -10 -8 -3 -12 -2 -9 4 6
10 25 14 25 6z m-67 -33 c-4 -10 -12 -27 -19 -38 -7 -11 -13 -24 -13 -28 1 -5
-2 -11 -5 -14 -7 -7 1 33 8 46 3 5 -1 11 -9 15 -10 3 -15 -1 -15 -13 0 -21
-27 -24 -34 -4 -4 8 -1 11 5 8 6 -4 16 1 24 11 7 11 17 16 20 12 4 -4 14 -1
22 7 19 20 24 19 16 -2z m57 -10 c0 -7 -6 -12 -12 -10 -7 1 -12 -4 -10 -10 1
-7 -2 -13 -8 -13 -5 0 -9 10 -8 23 2 24 38 34 38 10z m-615 -33 c18 0 28 -17
19 -32 -5 -8 -10 -6 -15 8 -7 17 -8 17 -8 1 -1 -11 -6 -15 -13 -11 -7 4 -8 3
-4 -4 4 -7 1 -12 -6 -12 -9 0 -9 -3 2 -10 8 -5 22 -9 30 -9 11 0 11 2 2 6 -10
4 -9 8 5 18 13 10 20 10 26 2 6 -7 6 -4 3 7 -7 19 -6 19 13 2 19 -17 20 -43 2
-32 -11 7 -36 -12 -28 -21 5 -4 12 -2 16 6 15 23 20 -11 7 -49 -9 -28 -16 -34
-34 -32 -21 3 -22 1 -13 -17 9 -16 8 -22 -6 -30 -15 -8 -16 -12 -5 -23 11 -11
15 -10 22 2 5 8 10 11 10 7 0 -5 5 -5 10 -2 6 4 4 12 -6 22 -12 13 -13 18 -3
24 8 4 16 4 20 -2 11 -18 35 1 36 29 0 15 -1 19 -4 10 -2 -10 -9 -18 -14 -18
-11 0 -11 3 2 37 6 18 13 23 18 15 4 -6 17 -13 29 -15 12 -2 25 -7 29 -12 5
-4 3 -5 -4 -1 -6 3 -15 1 -19 -5 -4 -8 -3 -9 4 -5 7 4 12 1 12 -6 0 -8 4 -7
11 4 12 22 -14 78 -37 78 -8 0 -13 -4 -10 -9 4 -5 -2 -8 -11 -6 -10 2 -20 4
-22 4 -3 1 0 6 6 12 6 6 9 19 6 28 -3 10 -2 12 4 5 4 -6 18 -16 30 -23 25 -13
57 -66 48 -80 -3 -5 1 -12 7 -15 10 -4 10 -8 2 -11 -7 -3 -10 -16 -8 -28 4
-19 3 -20 -4 -3 -9 21 -38 30 -48 15 -3 -5 5 -13 18 -18 18 -8 19 -10 5 -10
-10 -1 -27 4 -37 9 -15 8 -21 6 -31 -11 -6 -13 -7 -19 -1 -15 17 10 25 -14 10
-31 -7 -9 -11 -19 -10 -22 20 -34 20 -38 0 -36 -12 1 -24 8 -26 16 -3 11 -1
11 7 -1 6 -8 11 -13 11 -10 7 42 6 71 -1 59 -8 -12 -11 -12 -19 1 -7 11 -10
11 -10 2 0 -7 -8 -12 -17 -11 -40 4 -49 -1 -30 -15 15 -12 15 -15 2 -26 -13
-10 -15 -9 -15 9 0 13 -4 19 -10 16 -6 -4 -17 -2 -25 5 -9 7 -15 8 -20 0 -3
-5 0 -10 7 -10 7 0 4 -6 -7 -14 -11 -7 -27 -13 -37 -13 -13 0 -14 4 -6 23 6
13 15 21 21 17 6 -3 7 -1 3 5 -5 8 3 12 24 12 18 0 29 -4 25 -10 -9 -14 7 -12
28 4 25 19 21 23 -20 22 -30 -1 -38 3 -37 16 1 10 -3 15 -8 12 -5 -3 -7 -12
-4 -19 2 -7 -2 -16 -10 -19 -11 -4 -13 0 -8 19 6 26 -9 35 -22 13 -4 -7 -3 -8
4 -4 7 4 12 2 12 -3 0 -6 -4 -11 -9 -11 -6 0 -8 -9 -6 -21 4 -17 2 -19 -11 -8
-12 10 -13 9 -8 -5 8 -20 -25 -35 -36 -15 -5 7 -6 17 -4 21 3 4 0 8 -6 8 -6 0
-9 4 -5 9 3 5 1 12 -4 16 -6 3 -8 12 -4 20 3 10 1 13 -9 10 -8 -3 -21 2 -29
12 -13 16 -12 17 3 5 13 -11 21 -11 35 -2 17 11 17 11 -1 6 -13 -5 -17 -2 -12
9 3 8 1 15 -4 15 -14 0 -13 37 1 42 5 2 12 16 13 31 2 15 5 29 7 30 2 1 17 13
32 27 23 20 43 26 95 30 37 3 69 2 70 -2 2 -5 10 -8 17 -8z m258 14 c-7 -3 -9
-12 -6 -20 3 -7 10 -11 16 -7 6 4 7 1 2 -7 -6 -10 -11 -9 -22 5 -18 25 -16 35
5 34 9 0 12 -3 5 -5z m572 -14 c3 -5 1 -10 -4 -10 -6 0 -11 5 -11 10 0 6 2 10
4 10 3 0 8 -4 11 -10z m-68 -55 c7 -2 10 -11 7 -19 -3 -8 0 -17 7 -22 9 -5 10
-2 6 9 -5 14 0 17 22 17 23 0 34 -8 51 -35 13 -21 27 -32 33 -29 9 5 9 4 0 -6
-6 -7 -9 -20 -6 -29 5 -12 1 -11 -14 4 -11 11 -18 24 -15 29 3 5 -1 6 -8 1 -7
-4 -16 -2 -20 6 -10 15 -38 21 -46 8 -3 -5 2 -9 10 -9 9 0 15 -6 14 -12 -2 -7
7 -13 18 -13 12 0 31 -8 42 -18 12 -11 26 -16 33 -11 8 5 10 3 4 -5 -4 -7 1
-22 13 -34 23 -26 27 -84 6 -104 -8 -8 -14 -10 -14 -4 0 6 -7 8 -15 5 -11 -5
-13 -10 -5 -19 7 -8 5 -12 -5 -12 -8 0 -15 4 -15 9 0 5 -4 7 -8 4 -4 -2 -14 5
-21 16 -12 19 -11 20 12 14 14 -3 29 -1 32 4 5 8 11 8 20 0 9 -8 14 -6 19 5 3
9 2 13 -4 10 -6 -4 -7 1 -3 10 3 10 0 21 -8 26 -19 12 -32 11 -24 -1 3 -5 1
-10 -4 -10 -14 0 -14 17 -1 25 6 4 7 12 3 18 -4 7 -8 16 -8 21 0 15 -25 19
-26 4 0 -7 -4 -4 -9 7 -8 18 -9 17 -9 -8 -1 -16 3 -36 8 -45 6 -12 3 -23 -10
-35 -17 -18 -17 -18 -14 21 2 35 1 39 -16 35 -12 -4 -18 -13 -17 -29 1 -13 5
-24 9 -24 9 0 6 -27 -4 -36 -6 -7 -11 13 -10 43 0 7 -2 12 -6 11 -18 -2 -22 3
-12 16 6 8 13 27 15 42 3 16 8 38 12 49 7 17 6 18 -8 7 -8 -7 -18 -30 -22 -51
-4 -28 -12 -40 -27 -44 -12 -3 -22 0 -25 8 -3 8 -13 11 -21 8 -12 -5 -14 -3
-8 7 5 8 4 11 -3 6 -6 -4 -9 -13 -6 -21 4 -8 9 -13 13 -11 15 9 30 -9 20 -24
-6 -10 -11 -12 -16 -4 -10 13 -44 15 -60 2 -7 -5 -14 -5 -18 2 -3 5 -2 10 2
10 5 0 14 10 22 23 13 19 12 21 -1 10 -8 -7 -18 -9 -22 -5 -4 4 -7 3 -6 -3 1
-5 1 -12 0 -15 -8 -21 -6 -40 3 -40 7 0 5 -5 -3 -10 -17 -11 -10 -13 14 -4 9
3 16 12 16 20 0 8 4 14 10 14 5 0 7 -6 4 -13 -3 -8 3 -20 12 -28 12 -9 15 -10
10 -1 -5 8 2 15 18 22 14 5 26 14 26 20 0 10 35 9 46 -3 4 -4 -1 -9 -10 -13
-9 -3 -16 -11 -16 -16 0 -6 8 -4 17 3 15 12 16 12 9 -6 -4 -11 -9 -32 -10 -47
-2 -21 1 -25 11 -16 7 5 10 15 6 21 -3 6 -1 7 6 3 6 -4 9 -11 6 -16 -7 -11 34
-34 43 -25 4 4 -1 11 -11 16 -20 11 -22 30 -6 46 9 9 16 8 28 -4 12 -12 13
-17 3 -21 -20 -6 -14 -21 8 -17 12 2 18 0 15 -6 -4 -5 -11 -7 -16 -4 -5 4 -9
2 -9 -4 0 -16 -39 -33 -58 -26 -9 3 -18 6 -19 6 -2 -1 -12 8 -23 19 -24 24
-40 26 -40 4 0 -8 -4 -13 -9 -10 -11 7 -45 -30 -37 -42 3 -5 -4 -12 -15 -15
-14 -4 -20 -11 -16 -21 4 -10 1 -13 -9 -9 -9 3 -12 0 -9 -9 4 -9 -2 -14 -15
-15 -11 -1 -20 3 -20 9 0 6 3 9 6 5 9 -8 60 54 56 69 -1 7 7 15 18 19 11 4 18
10 15 15 -3 5 0 10 7 12 8 3 4 13 -11 29 -22 22 -23 22 -12 2 14 -27 14 -33 1
-33 -5 0 -10 6 -10 13 0 6 -12 18 -27 24 -26 12 -25 12 6 -19 27 -27 30 -33
17 -40 -9 -5 -16 -16 -16 -23 0 -21 -10 -19 -31 6 -10 11 -23 18 -28 14 -10
-6 -15 7 -12 27 0 5 -4 7 -10 5 -7 -1 -21 13 -32 32 -12 19 -17 32 -11 29 5
-4 10 2 10 12 0 14 -3 16 -13 8 -10 -8 -13 -2 -14 28 -2 47 -3 40 14 87 7 20
16 35 19 31 4 -3 9 4 13 15 3 11 14 23 24 26 9 3 27 14 38 25 38 34 121 41
190 15z m293 -33 c0 -15 -2 -15 -10 -2 -13 20 -13 33 0 25 6 -3 10 -14 10 -23z
m-163 -4 c-3 -8 -6 -5 -6 6 -1 11 2 17 5 13 3 -3 4 -12 1 -19z m48 -28 c3 -5
1 -10 -4 -10 -6 0 -11 5 -11 10 0 6 2 10 4 10 3 0 8 -4 11 -10z m-1426 -105
c2 -13 5 -15 11 -5 9 14 30 5 30 -13 0 -8 -3 -8 -9 2 -6 9 -11 10 -15 2 -4 -6
-12 -9 -17 -6 -5 4 -9 -3 -9 -14 0 -12 5 -21 11 -21 5 0 7 6 3 13 -5 8 -2 8 9
-2 18 -14 23 -33 8 -28 -5 1 -16 -7 -25 -18 l-15 -20 2 20 c1 12 -3 19 -12 17
-9 -2 -11 3 -6 15 4 10 7 26 7 36 0 9 3 15 9 12 5 -4 9 0 9 8 0 10 -7 13 -20
10 -23 -6 -25 -14 -8 -31 16 -16 -4 -16 -21 1 -12 10 -13 8 -6 -8 15 -41 17
-55 7 -55 -6 0 -14 5 -18 12 -5 7 -2 9 7 4 8 -4 6 -1 -5 8 -10 8 -15 19 -11
25 4 7 -1 8 -12 4 -16 -6 -16 -4 2 18 11 13 13 18 4 11 -9 -6 -19 -9 -22 -5
-13 13 28 30 67 28 30 -2 42 -7 45 -20z m624 -21 c-1 -5 -7 -10 -15 -13 -7 -2
-10 0 -5 4 4 5 -1 18 -10 29 -18 20 -18 20 7 4 14 -8 24 -19 23 -24z m731 18
c2 -4 -4 -9 -15 -9 -11 -1 -17 2 -14 8 7 11 22 12 29 1z m-1472 -34 c-3 -13
-1 -19 5 -15 6 4 14 -4 17 -18 4 -14 11 -23 16 -20 6 3 10 0 10 -7 0 -7 9 -24
20 -38 11 -14 19 -18 18 -10 -2 8 -9 20 -17 26 -13 10 -8 34 7 34 12 0 44 -59
37 -69 -3 -5 0 -13 6 -17 8 -5 9 -3 4 7 -7 12 -6 12 7 1 10 -8 14 -20 11 -29
-4 -9 -2 -14 3 -10 5 3 10 -3 10 -14 0 -14 -5 -19 -18 -16 -10 3 -21 1 -24 -4
-7 -12 -24 -11 -24 2 0 5 5 7 10 4 6 -3 10 -1 10 5 0 7 7 10 18 6 12 -4 11 -1
-5 13 -12 10 -21 20 -20 22 1 3 -3 -1 -9 -8 -6 -7 -14 -10 -17 -7 -3 3 -3 -3
-1 -14 4 -14 0 -21 -16 -25 -18 -4 -20 -2 -15 16 4 12 15 29 26 38 16 15 17
18 3 23 -9 3 -12 2 -9 -5 4 -6 -2 -13 -14 -16 -11 -3 -19 -9 -16 -13 9 -15
-10 -18 -23 -4 -8 9 -9 14 -2 14 6 0 -1 15 -15 34 -17 22 -23 39 -18 52 6 17
5 17 -10 5 -14 -11 -21 -11 -42 3 -32 21 -32 26 0 20 14 -2 25 0 25 6 0 5 -4
10 -10 10 -5 0 -2 9 8 20 9 11 18 16 20 10 2 -5 8 -10 14 -10 6 0 8 7 5 14 -4
10 -1 13 7 10 8 -3 12 -14 8 -26z m183 22 c3 -5 1 -10 -4 -10 -6 0 -11 5 -11
10 0 6 2 10 4 10 3 0 8 -4 11 -10z m529 -15 c-4 -8 -8 -15 -10 -15 -2 0 -4 7
-4 15 0 8 4 15 10 15 5 0 7 -7 4 -15z m-526 -19 c-7 -8 -15 -12 -17 -11 -5 6
10 25 20 25 5 0 4 -6 -3 -14z m1073 -19 c-10 -9 -11 -8 -5 6 3 10 9 15 12 12
3 -3 0 -11 -7 -18z m-1035 -16 c1 -12 -1 -19 -5 -15 -3 3 -6 9 -6 12 0 4 -4
13 -9 21 -6 9 -5 12 5 9 8 -3 15 -15 15 -27z m489 20 c3 -5 1 -12 -4 -15 -5
-3 -11 1 -15 9 -6 16 9 21 19 6z m751 -9 c1 -7 0 -8 -3 -2 -2 5 -9 8 -14 4 -5
-3 -9 0 -9 6 0 15 23 7 26 -8z m-911 -3 c-4 -6 1 -16 11 -23 14 -11 15 -14 3
-21 -8 -5 -11 -5 -7 0 4 4 0 13 -9 20 -14 10 -12 35 3 35 3 0 2 -5 -1 -11z
m-355 -3 c0 -3 -4 -8 -10 -11 -5 -3 -10 -1 -10 4 0 6 5 11 10 11 6 0 10 -2 10
-4z m330 -6 c0 -5 -2 -10 -4 -10 -3 0 -8 5 -11 10 -3 6 -1 10 4 10 6 0 11 -4
11 -10z m96 -7 c0 -10 -5 -21 -11 -25 -14 -10 -26 14 -13 29 15 18 26 16 24
-4z m-484 -29 c-8 -15 -9 -15 -15 0 -4 10 -3 15 3 11 6 -3 10 2 11 12 0 10 3
13 5 6 3 -7 1 -20 -4 -29z m83 -4 c10 -11 14 -20 10 -20 -5 0 -4 -5 3 -12 14
-14 16 -32 3 -24 -5 4 -11 0 -14 -6 -2 -7 -8 -9 -13 -5 -5 4 -4 11 2 15 16 10
13 41 -3 35 -7 -3 -11 -9 -8 -13 3 -5 1 -11 -4 -15 -11 -6 -7 28 5 47 5 8 2 9
-10 5 -10 -4 -15 -3 -11 3 9 15 20 12 40 -10z m-275 -5 c0 -1 -9 -5 -19 -8
-13 -3 -18 -1 -14 9 4 10 33 10 33 -1z m30 -50 c11 -13 10 -14 -4 -9 -9 3 -16
10 -16 15 0 13 6 11 20 -6z m993 -29 c-5 -8 -3 -8 8 0 8 6 25 8 39 3 14 -4 19
-7 13 -8 -7 -1 -13 -6 -13 -11 0 -7 6 -7 19 0 26 14 42 13 39 -2 -2 -7 4 -13
13 -13 16 0 79 -48 79 -61 0 -4 -8 0 -17 8 -27 22 -47 33 -39 20 3 -6 2 -13
-4 -17 -14 -8 -13 -35 1 -35 6 0 9 7 5 15 -4 12 -2 13 14 2 11 -6 20 -14 21
-17 5 -34 3 -51 -9 -66 -13 -17 -14 -17 -9 -1 4 9 2 17 -3 17 -6 0 -10 -14
-10 -30 0 -19 5 -30 13 -29 6 1 20 1 30 0 15 -1 16 -3 5 -15 -10 -11 -16 -11
-27 -2 -12 8 -13 8 -7 -1 4 -7 4 -13 -1 -14 -4 0 -15 -2 -23 -4 -34 -10 -45
-9 -45 0 0 6 4 9 9 7 16 -5 36 21 36 47 0 29 -16 51 -37 51 -20 0 -15 -17 6
-23 12 -3 19 -13 19 -31 0 -25 -2 -26 -18 -11 -19 17 -30 11 -30 -17 0 -10 -7
-21 -15 -24 -8 -4 -13 -10 -10 -14 3 -5 1 -11 -5 -15 -12 -8 -12 -16 -1 -34 7
-11 13 -9 29 7 16 16 18 22 6 26 -8 3 -14 11 -14 18 0 10 3 9 9 -1 5 -8 16
-11 26 -7 12 4 16 2 12 -8 -3 -7 -1 -18 5 -24 6 -6 6 -12 -3 -17 -7 -5 -10 -4
-5 3 9 15 -7 23 -24 11 -10 -6 -11 -9 -2 -9 6 0 12 -5 12 -12 0 -6 -3 -8 -7
-5 -3 4 -17 0 -29 -8 -21 -13 -23 -13 -18 0 8 20 -6 19 -23 -2 -8 -10 -12 -12
-8 -5 3 6 1 12 -4 12 -6 0 -11 5 -11 11 0 5 5 7 10 4 6 -3 10 -3 11 2 4 46 7
61 13 78 7 17 5 17 -13 -4 -13 -15 -19 -31 -16 -42 5 -15 1 -19 -19 -19 -16 0
-26 -6 -26 -15 0 -8 -4 -15 -8 -15 -12 0 -11 32 1 48 8 10 4 11 -18 2 -21 -8
-30 -8 -36 1 -4 6 -18 10 -32 7 -19 -4 -25 -1 -22 11 2 11 -6 17 -26 18 -17 1
-27 -2 -24 -8 4 -5 11 -7 16 -4 5 4 9 1 9 -4 0 -18 -15 -12 -40 14 -13 14 -20
25 -16 25 4 0 -1 13 -10 29 -12 20 -15 37 -9 57 5 16 8 32 7 36 -1 3 5 12 13
18 8 7 15 18 15 24 0 11 59 42 73 38 4 -1 6 4 5 10 -2 7 18 20 45 29 51 17
111 14 100 -5z m337 18 c0 -8 -19 -13 -24 -6 -3 5 1 9 9 9 8 0 15 -2 15 -3z
m-1303 -20 c-3 -3 -12 -4 -19 -1 -8 3 -5 6 6 6 11 1 17 -2 13 -5z m1278 -4 c3
-5 1 -10 -4 -10 -6 0 -11 5 -11 10 0 6 2 10 4 10 3 0 8 -4 11 -10z m-48 -103
c0 -7 4 -21 9 -32 8 -19 7 -19 -10 -2 -10 9 -23 14 -29 10 -7 -4 -21 -9 -32
-10 -15 -2 -16 -1 -6 6 11 7 11 9 0 14 -8 3 3 4 25 2 28 -2 35 0 27 8 -15 15
-14 27 2 21 8 -3 14 -10 14 -17z m157 2 c-3 -5 -10 -7 -15 -3 -5 3 -7 10 -3
15 3 5 10 7 15 3 5 -3 7 -10 3 -15z m-84 -23 c0 -3 -4 -8 -10 -11 -5 -3 -10
-1 -10 4 0 6 5 11 10 11 6 0 10 -2 10 -4z m-981 -72 c2 -2 -2 -11 -10 -20 -13
-16 -12 -16 8 -4 12 8 19 19 15 25 -3 5 1 4 10 -3 9 -7 20 -12 24 -11 25 4 45
-2 38 -13 -5 -7 -3 -8 7 -2 24 15 40 13 37 -4 -2 -9 -12 -17 -22 -17 -13 0
-23 -12 -32 -37 -11 -31 -10 -36 2 -31 8 3 14 0 14 -6 0 -6 -3 -10 -7 -10 -27
4 -33 -3 -27 -28 4 -16 10 -33 13 -38 3 -6 -2 -2 -11 8 -10 11 -15 23 -12 28
3 5 0 9 -6 9 -7 0 -8 6 -1 19 6 10 7 22 3 26 -4 3 0 12 8 18 18 15 25 53 11
62 -7 3 -8 0 -5 -9 6 -15 -6 -21 -29 -17 -5 1 -6 -8 -2 -19 7 -22 2 -24 -23
-11 -12 6 -22 4 -31 -7 -13 -14 -12 -15 7 -10 12 4 22 2 22 -4 0 -5 4 -7 8 -4
5 3 8 -9 7 -25 -1 -17 4 -33 10 -36 16 -5 16 -50 1 -50 -6 0 -11 12 -11 26 0
18 -6 26 -20 29 -16 2 -17 1 -5 -7 8 -6 15 -23 15 -38 0 -18 5 -28 15 -28 30
0 16 -30 -15 -32 l-30 -2 30 8 c29 7 29 7 8 15 -13 4 -27 5 -32 2 -13 -8 -42
4 -36 15 3 4 12 6 20 2 8 -3 15 0 15 5 0 6 -9 9 -20 7 -13 -2 -20 2 -20 11 0
8 -4 13 -9 10 -5 -3 -20 3 -34 14 -29 23 -41 26 -31 8 5 -10 4 -10 -5 -2 -13
12 -22 106 -10 98 4 -2 10 0 14 6 3 5 1 10 -4 10 -6 0 -11 7 -11 15 0 8 5 15
10 15 6 0 10 -4 10 -8 0 -5 7 -17 15 -28 14 -18 14 -17 5 10 -8 22 -8 31 2 38
13 8 24 10 34 6 3 -2 10 5 15 15 9 16 41 16 58 1z m171 -44 c21 -21 13 -28 -9
-7 -11 10 -13 9 -8 -5 4 -10 2 -18 -3 -18 -5 0 -9 11 -8 25 3 30 3 30 28 5z
m-12 -128 c2 -7 -1 -12 -8 -12 -6 0 -9 4 -6 9 4 5 1 12 -4 14 -6 3 -5 4 2 3 6
-1 14 -8 16 -14z m-258 -37 c11 -13 10 -14 -4 -9 -9 3 -16 10 -16 15 0 13 6
11 20 -6z m185 -25 c3 -5 2 -10 -4 -10 -5 0 -13 5 -16 10 -3 6 -2 10 4 10 5 0
13 -4 16 -10z m-125 -45 c0 -8 -4 -15 -10 -15 -5 0 -7 7 -4 15 4 8 8 15 10 15
2 0 4 -7 4 -15z m1570 -285 c0 -5 -9 -10 -21 -10 -11 0 -17 5 -14 10 3 6 13
10 21 10 8 0 14 -4 14 -10z m130 -35 c0 -2 -10 -9 -22 -15 -22 -11 -22 -10 -4
4 21 17 26 19 26 11z m-83 -11 c-3 -3 -12 -4 -19 -1 -8 3 -5 6 6 6 11 1 17 -2
13 -5z"/>
<path d="M1550 2064 c0 -8 5 -12 10 -9 6 4 8 11 5 16 -9 14 -15 11 -15 -7z"/>
<path d="M1450 2066 c0 -2 7 -7 16 -10 8 -3 12 -2 9 4 -6 10 -25 14 -25 6z"/>
<path d="M1522 2038 c-18 -18 -15 -38 7 -38 26 0 33 13 18 34 -10 13 -15 14
-25 4z"/>
<path d="M1455 2010 c-17 -33 -19 -40 -7 -39 4 1 6 5 5 10 -2 5 2 9 9 9 6 0 8
3 5 7 -4 3 0 15 10 25 9 10 11 18 5 18 -6 0 -18 -13 -27 -30z"/>
<path d="M1390 2011 c0 -6 4 -13 10 -16 6 -3 7 1 4 9 -7 18 -14 21 -14 7z"/>
<path d="M1512 1985 c12 -13 69 -24 66 -13 -2 6 -19 12 -38 15 -18 2 -31 1
-28 -2z"/>
<path d="M1263 1963 c-15 -5 -17 -23 -4 -23 5 0 11 7 15 15 3 8 4 15 3 14 -1
0 -8 -3 -14 -6z"/>
<path d="M1317 1963 c-10 -9 -9 -23 1 -23 5 0 9 7 9 15 0 17 -1 18 -10 8z"/>
<path d="M1346 1952 c-3 -5 1 -9 9 -9 8 0 12 4 9 9 -3 4 -7 8 -9 8 -2 0 -6 -4
-9 -8z"/>
<path d="M1390 1949 c0 -6 7 -9 15 -5 8 3 15 1 15 -5 0 -6 5 -7 11 -3 8 4 7 9
-2 15 -19 12 -39 11 -39 -2z"/>
<path d="M1533 1940 c-1 -11 2 -22 8 -25 5 -4 6 2 2 11 -4 10 -2 15 3 11 6 -3
16 -1 24 5 13 8 12 9 -1 5 -9 -3 -21 -1 -26 4 -5 5 -9 1 -10 -11z"/>
<path d="M1281 1931 c-10 -6 -9 -10 3 -14 8 -3 18 -2 21 3 8 13 -9 20 -24 11z"/>
<path d="M1475 1930 c-3 -6 1 -7 9 -4 9 3 16 1 16 -5 0 -6 -6 -11 -14 -11 -8
0 -18 -4 -21 -10 -4 -6 1 -7 12 -3 24 8 43 23 43 34 0 12 -37 11 -45 -1z"/>
<path d="M1395 1920 c3 -5 8 -10 11 -10 2 0 4 5 4 10 0 6 -5 10 -11 10 -5 0
-7 -4 -4 -10z"/>
<path d="M1386 1888 c3 -5 10 -6 15 -3 13 9 11 12 -6 12 -8 0 -12 -4 -9 -9z"/>
<path d="M1350 1886 c0 -2 7 -7 16 -10 8 -3 12 -2 9 4 -6 10 -25 14 -25 6z"/>
<path d="M2096 1978 c-3 -17 -2 -36 4 -42 5 -5 10 -20 10 -32 0 -12 7 -27 15
-34 14 -11 19 -7 16 13 0 4 4 7 9 7 15 0 12 -26 -4 -39 -11 -9 -15 -9 -19 1
-2 7 -8 9 -13 5 -9 -9 13 -27 34 -27 6 0 12 6 12 14 0 8 6 16 13 19 9 3 9 8
-2 21 -14 17 -23 56 -13 56 3 0 11 -8 19 -17 13 -16 13 -16 8 7 -8 27 -33 52
-46 45 -4 -3 -14 4 -22 15 -14 20 -15 20 -21 -12z m49 -18 c17 -7 14 -9 -13
-9 -20 -1 -31 3 -27 9 7 12 13 12 40 0z"/>
<path d="M1961 1927 c-8 -10 -7 -14 4 -14 8 0 15 6 15 14 0 7 -2 13 -4 13 -2
0 -9 -6 -15 -13z"/>
<path d="M2020 1928 c-12 -8 -12 -9 2 -5 9 3 19 1 22 -6 3 -9 5 -9 5 0 1 18
-13 23 -29 11z"/>
<path d="M2079 1923 c-3 -18 3 -59 9 -65 4 -4 7 11 7 33 0 21 -3 39 -7 39 -5
0 -8 -3 -9 -7z"/>
<path d="M2045 1870 c-4 -6 -11 -8 -16 -5 -5 4 -9 1 -9 -4 0 -16 16 -13 30 4
7 8 10 15 7 15 -3 0 -9 -5 -12 -10z"/>
<path d="M1856 1832 c-2 -4 4 -8 15 -8 10 0 19 4 19 8 0 4 -6 8 -14 8 -8 0
-17 -4 -20 -8z"/>
<path d="M1960 1768 c0 -4 4 -8 9 -8 6 0 12 4 15 8 3 5 -1 9 -9 9 -8 0 -15 -4
-15 -9z"/>
<path d="M850 1859 c0 -5 5 -7 10 -4 6 3 10 8 10 11 0 2 -4 4 -10 4 -5 0 -10
-5 -10 -11z"/>
<path d="M888 1823 c7 -3 16 -2 19 1 4 3 -2 6 -13 5 -11 0 -14 -3 -6 -6z"/>
<path d="M793 1794 c3 -4 -1 -20 -9 -36 -9 -17 -13 -32 -11 -35 9 -8 48 37 42
47 -4 6 5 5 19 -1 14 -7 23 -16 19 -22 -3 -6 -1 -7 6 -3 15 10 7 22 -31 40
-33 17 -46 20 -35 10z"/>
<path d="M896 1785 c-9 -26 -7 -32 5 -12 6 10 9 21 6 23 -2 3 -7 -2 -11 -11z"/>
<path d="M761 1781 c-8 -6 -9 -11 -3 -15 6 -3 14 -1 17 5 9 14 2 20 -14 10z"/>
<path d="M870 1719 c0 -5 5 -7 10 -4 6 3 10 8 10 11 0 2 -4 4 -10 4 -5 0 -10
-5 -10 -11z"/>
<path d="M900 1726 c0 -2 7 -7 16 -10 8 -3 12 -2 9 4 -6 10 -25 14 -25 6z"/>
<path d="M901 1694 c0 -11 3 -14 6 -6 3 7 2 16 -1 19 -3 4 -6 -2 -5 -13z"/>
<path d="M980 1688 c-8 -13 -18 -31 -23 -42 -6 -16 -5 -17 8 -6 8 7 15 19 15
26 0 8 5 14 11 14 5 0 7 -4 4 -10 -3 -5 -2 -10 4 -10 5 0 13 5 16 10 3 6 1 10
-5 10 -7 0 -10 7 -6 15 8 23 -7 18 -24 -7z"/>
<path d="M937 1691 c6 -7 9 -20 6 -27 -3 -8 -3 -14 0 -14 14 0 14 30 -1 41
-14 11 -15 11 -5 0z"/>
<path d="M855 1680 c-3 -5 -1 -10 4 -10 6 0 11 5 11 10 0 6 -2 10 -4 10 -3 0
-8 -4 -11 -10z"/>
<path d="M884 1625 c1 -8 8 -21 15 -28 11 -9 15 -9 18 2 5 11 7 11 14 0 5 -8
9 -9 9 -4 0 6 -4 16 -9 24 -8 13 -12 13 -27 0 -10 -8 -15 -9 -11 -2 4 6 3 14
-2 17 -5 4 -8 -1 -7 -9z"/>
<path d="M1620 1720 c0 -5 5 -10 10 -10 6 0 10 5 10 10 0 6 -4 10 -10 10 -5 0
-10 -4 -10 -10z"/>
<path d="M1443 1695 c-7 -8 -9 -16 -4 -19 5 -3 12 1 15 10 8 22 4 25 -11 9z"/>
<path d="M1380 1670 c-9 -6 -10 -10 -3 -10 6 0 15 5 18 10 8 12 4 12 -15 0z"/>
<path d="M1455 1660 c-3 -5 -1 -10 4 -10 6 0 11 5 11 10 0 6 -2 10 -4 10 -3 0
-8 -4 -11 -10z"/>
<path d="M1484 1658 c-5 -7 -2 -8 6 -3 8 5 11 3 8 -6 -3 -8 -16 -14 -30 -14
-17 1 -24 -4 -21 -13 3 -8 12 -10 22 -6 9 3 21 7 28 7 7 0 10 4 7 9 -3 4 0 8
5 8 16 0 13 17 -4 23 -8 4 -17 1 -21 -5z"/>
<path d="M1407 1623 c-10 -3 -16 -10 -14 -16 6 -20 24 -18 30 3 3 11 4 19 4
19 -1 -1 -10 -3 -20 -6z"/>
<path d="M1546 1612 c-2 -4 -1 -14 4 -22 7 -11 9 -9 7 8 -1 24 -3 26 -11 14z"/>
<path d="M1367 1593 c-11 -11 -8 -20 9 -27 23 -9 37 3 23 20 -13 15 -22 18
-32 7z"/>
<path d="M1448 1593 c7 -3 16 -2 19 1 4 3 -2 6 -13 5 -11 0 -14 -3 -6 -6z"/>
<path d="M1514 1591 c4 -5 3 -11 -1 -14 -5 -2 -3 -3 3 -1 6 1 17 -3 24 -9 10
-10 10 -7 1 11 -6 12 -16 22 -22 22 -6 0 -8 -4 -5 -9z"/>
<path d="M1473 1578 c-20 -26 -26 -41 -15 -34 12 7 36 46 29 46 -3 0 -9 -6
-14 -12z"/>
<path d="M1040 1470 c-9 -6 -10 -10 -3 -10 6 0 15 5 18 10 8 12 4 12 -15 0z"/>
<path d="M1064 1429 c-3 -5 -2 -9 3 -10 4 0 18 -2 31 -5 13 -2 21 0 18 5 -8
13 -45 20 -52 10z"/>
<path d="M900 1380 c0 -5 4 -10 9 -10 6 0 13 5 16 10 3 6 -1 10 -9 10 -9 0
-16 -4 -16 -10z"/>
<path d="M940 1383 c0 -10 26 -43 35 -43 7 0 -1 25 -9 27 -5 1 -13 7 -17 15
-6 9 -9 9 -9 1z"/>
<path d="M1147 1383 c-9 -2 -14 -9 -10 -15 4 -7 0 -9 -10 -5 -10 3 -17 2 -17
-3 0 -18 35 -10 48 10 7 11 11 19 10 19 -2 -1 -11 -3 -21 -6z"/>
<path d="M1846 1402 c-2 -4 -1 -14 4 -22 7 -11 9 -9 7 8 -1 24 -3 26 -11 14z"/>
<path d="M1680 1390 c-8 -5 -10 -10 -5 -10 6 0 17 5 25 10 8 5 11 10 5 10 -5
0 -17 -5 -25 -10z"/>
<path d="M1676 1362 c-3 -2 -2 -11 1 -19 5 -12 7 -12 15 -1 7 9 8 7 5 -9 -3
-13 -2 -25 2 -28 4 -2 8 11 8 29 0 29 -16 44 -31 28z"/>
<path d="M1650 1330 c0 -5 5 -10 11 -10 5 0 7 5 4 10 -3 6 -8 10 -11 10 -2 0
-4 -4 -4 -10z"/>
<path d="M1913 1322 c-8 -5 -7 -11 2 -19 10 -10 14 -9 19 2 6 17 -5 26 -21 17z"/>
<path d="M1687 1283 c-4 -3 -7 -11 -7 -17 0 -6 5 -5 12 2 6 6 9 14 7 17 -3 3
-9 2 -12 -2z"/>
<path d="M1683 1225 c0 -8 4 -12 9 -9 5 3 6 10 3 15 -9 13 -12 11 -12 -6z"/>
<path d="M1805 1183 c2 -10 4 -21 4 -25 2 -13 28 -9 40 6 9 10 8 15 -4 20 -8
3 -15 1 -15 -4 0 -6 -4 -10 -10 -10 -5 0 -7 7 -4 15 4 8 2 15 -4 15 -6 0 -9
-8 -7 -17z"/>
<path d="M1706 1131 c-17 -6 -17 -8 -4 -14 10 -3 19 0 22 9 3 8 4 14 3 13 -1
0 -11 -4 -21 -8z"/>
<path d="M480 1209 c-7 -11 -9 -23 -6 -27 3 -3 6 0 6 7 0 7 7 11 15 8 8 -4 17
-2 20 3 4 6 -1 10 -10 10 -9 0 -13 5 -10 10 3 6 4 10 1 10 -3 0 -10 -9 -16
-21z"/>
<path d="M520 1185 c-7 -9 -9 -22 -5 -32 5 -10 7 -22 6 -28 -2 -5 1 -7 5 -3 4
4 13 0 20 -10 12 -15 12 -15 7 6 -3 12 -10 22 -15 22 -6 0 -8 13 -4 30 6 34 4
37 -14 15z"/>
<path d="M1436 1032 c-3 -5 1 -9 9 -9 8 0 12 4 9 9 -3 4 -7 8 -9 8 -2 0 -6 -4
-9 -8z"/>
<path d="M1575 1030 c9 -15 45 -32 45 -22 0 5 -12 14 -26 20 -14 7 -23 8 -19
2z"/>
<path d="M1511 1020 c-9 -5 -5 -9 10 -13 28 -7 31 -6 14 10 -6 6 -18 8 -24 3z"/>
<path d="M1556 992 c-4 -12 -12 -19 -18 -16 -5 4 -4 -4 3 -17 15 -28 15 -29
-3 -40 -28 -18 -43 -9 -18 11 14 11 22 20 18 21 -5 1 -13 2 -18 3 -6 0 -14 7
-19 14 -7 11 -9 11 -14 -1 -3 -9 1 -18 10 -21 12 -5 13 -9 3 -21 -6 -8 -9 -18
-6 -23 3 -6 -5 -17 -19 -26 -14 -9 -25 -24 -25 -33 0 -9 3 -13 7 -10 3 4 12 2
19 -4 15 -12 34 -4 33 14 0 9 -2 9 -6 0 -2 -7 -9 -13 -14 -13 -6 0 -7 5 -4 10
3 6 1 10 -4 10 -23 0 -10 15 14 16 14 1 25 -3 25 -9 0 -6 3 -7 7 -4 3 4 12 -1
19 -11 12 -15 12 -15 7 6 -3 12 -12 22 -21 22 -13 0 -13 2 0 18 20 23 61 105
49 98 -5 -4 -11 2 -13 11 -4 15 -5 14 -12 -5z"/>
<path d="M1375 960 c-3 -5 -1 -10 4 -10 6 0 11 5 11 10 0 6 -2 10 -4 10 -3 0
-8 -4 -11 -10z"/>
<path d="M1410 950 c0 -5 5 -10 10 -10 6 0 10 5 10 10 0 6 -4 10 -10 10 -5 0
-10 -4 -10 -10z"/>
<path d="M1583 953 c-18 -7 -16 -20 2 -20 8 0 12 4 9 8 -2 4 2 10 8 12 7 3 9
5 3 5 -5 0 -16 -2 -22 -5z"/>
<path d="M1610 931 c0 -13 20 -25 42 -26 12 -1 15 2 8 10 -5 7 -7 15 -3 18 3
4 1 7 -5 7 -6 0 -13 -8 -15 -17 -4 -17 -5 -17 -6 0 -1 17 -21 25 -21 8z"/>
<path d="M1370 926 c0 -9 30 -14 35 -6 4 6 -3 10 -14 10 -12 0 -21 -2 -21 -4z"/>
<path d="M1425 920 c3 -6 1 -10 -6 -10 -7 0 -10 -3 -6 -6 3 -3 13 -2 22 4 16
8 16 9 1 15 -10 4 -15 3 -11 -3z"/>
<path d="M1404 879 c-3 -5 2 -6 11 -3 9 4 15 3 14 -2 -5 -29 2 -37 16 -18 8
10 15 22 15 25 0 10 -50 8 -56 -2z"/>
<path d="M1595 870 c3 -5 8 -10 11 -10 2 0 4 5 4 10 0 6 -5 10 -11 10 -5 0 -7
-4 -4 -10z"/>
<path d="M1387 859 c7 -7 15 -10 18 -7 3 3 -2 9 -12 12 -14 6 -15 5 -6 -5z"/>
<path d="M1274 843 c10 -11 36 -12 36 -2 0 5 -10 9 -22 9 -12 0 -18 -3 -14 -7z"/>
<path d="M1320 846 c0 -2 8 -10 18 -17 15 -13 16 -12 3 4 -13 16 -21 21 -21
13z"/>
<path d="M1383 823 c-3 -10 -7 -20 -9 -23 -1 -3 5 -6 15 -6 13 0 16 6 13 23
-5 28 -10 29 -19 6z"/>
<path d="M1433 818 c3 -9 1 -19 -6 -22 -9 -3 -9 -5 0 -5 18 -1 23 13 11 29 -8
12 -9 12 -5 -2z"/>
<path d="M774 816 c-15 -11 -15 -13 0 -13 9 0 16 4 16 8 0 4 10 6 21 4 12 -3
19 -1 15 2 -12 12 -34 11 -52 -1z"/>
<path d="M765 780 c3 -5 8 -10 11 -10 2 0 4 5 4 10 0 6 -5 10 -11 10 -5 0 -7
-4 -4 -10z"/>
<path d="M795 779 c-4 -6 -5 -12 -2 -15 2 -3 7 2 10 11 7 17 1 20 -8 4z"/>
<path d="M712 737 c2 -17 7 -23 17 -19 10 4 11 7 3 10 -7 2 -10 8 -7 12 3 5 1
11 -5 15 -6 4 -9 -4 -8 -18z"/>
<path d="M811 724 c0 -11 3 -14 6 -6 3 7 2 16 -1 19 -3 4 -6 -2 -5 -13z"/>
<path d="M830 725 c0 -9 6 -12 15 -9 8 4 12 10 9 15 -8 14 -24 10 -24 -6z"/>
<path d="M760 725 c-8 -45 -8 -47 2 -37 5 5 8 18 5 28 -3 11 -6 15 -7 9z"/>
<path d="M806 671 c-3 -4 6 -6 19 -3 14 2 25 6 25 8 0 8 -39 4 -44 -5z"/>
<path d="M756 2519 c-4 -28 -5 -53 -3 -56 3 -2 8 19 12 47 4 28 5 53 2 56 -2
3 -7 -19 -11 -47z"/>
<path d="M1 2213 c-1 -12 8 -61 19 -108 22 -94 20 -127 -7 -157 -15 -17 -15
-21 -3 -28 10 -7 11 -10 3 -10 -10 0 -13 -36 -13 -145 l0 -144 22 8 c13 4 29
19 35 32 l13 24 1 -30 c1 -29 4 -45 8 -55 3 -6 12 -59 13 -77 1 -7 5 -13 9
-13 5 0 3 -11 -3 -25 -9 -21 -18 -25 -55 -25 -28 0 -43 -4 -43 -13 0 -9 23
-12 85 -11 47 1 88 4 91 7 4 3 -8 72 -27 152 -21 96 -36 141 -42 133 -6 -9 -7
-4 -3 12 8 33 -14 135 -26 118 -5 -8 -6 -1 -3 17 3 17 -12 102 -34 195 -22 91
-40 155 -40 143z m46 -279 c-3 -3 -12 -4 -19 -1 -8 3 -5 6 6 6 11 1 17 -2 13
-5z m40 -126 c-3 -8 -6 -5 -6 6 -1 11 2 17 5 13 3 -3 4 -12 1 -19z m-29 -103
c0 -11 -6 3 -14 30 -7 28 -13 55 -13 60 2 17 27 -69 27 -90z m39 63 c-3 -8 -6
-5 -6 6 -1 11 2 17 5 13 3 -3 4 -12 1 -19z m30 -130 c-3 -8 -6 -5 -6 6 -1 11
2 17 5 13 3 -3 4 -12 1 -19z m10 -50 c-3 -8 -6 -5 -6 6 -1 11 2 17 5 13 3 -3
4 -12 1 -19z m10 -40 c-3 -8 -6 -5 -6 6 -1 11 2 17 5 13 3 -3 4 -12 1 -19z
m10 -40 c-3 -8 -6 -5 -6 6 -1 11 2 17 5 13 3 -3 4 -12 1 -19z m10 -50 c-3 -8
-6 -5 -6 6 -1 11 2 17 5 13 3 -3 4 -12 1 -19z"/>
<path d="M2585 1289 c-4 -6 -5 -12 -2 -15 2 -3 7 2 10 11 7 17 1 20 -8 4z"/>
<path d="M2500 1130 c-9 -6 -10 -10 -3 -10 6 0 15 5 18 10 8 12 4 12 -15 0z"/>
<path d="M2520 1112 c0 -6 -10 -14 -21 -17 -17 -6 -19 -9 -8 -16 8 -5 17 -9
20 -9 8 0 20 42 14 49 -3 2 -5 -1 -5 -7z"/>
<path d="M2509 1032 c6 -10 7 -22 3 -26 -3 -4 2 -4 12 0 12 5 14 9 6 14 -6 4
-11 11 -10 16 1 5 -4 10 -10 12 -9 3 -9 -1 -1 -16z"/>
<path d="M2475 991 c-3 -6 3 -9 14 -8 11 0 17 5 15 9 -7 11 -22 10 -29 -1z"/>
<path d="M2465 960 c-5 -8 -4 -11 3 -6 6 3 13 2 17 -4 3 -5 0 -10 -7 -10 -8 0
-7 -4 4 -11 9 -5 15 -16 12 -23 -3 -8 0 -17 7 -22 8 -5 10 -3 4 6 -4 7 -3 15
3 19 7 4 3 17 -12 36 -17 21 -25 25 -31 15z"/>
<path d="M2451 887 c2 -1 13 -9 24 -17 19 -14 19 -14 6 3 -7 9 -18 17 -24 17
-6 0 -8 -1 -6 -3z"/>
<path d="M2554 709 c0 -13 3 -15 13 -7 7 6 13 12 13 13 0 2 -6 5 -13 8 -7 3
-13 -3 -13 -14z"/>
<path d="M2575 540 c-3 -5 -1 -10 4 -10 6 0 11 5 11 10 0 6 -2 10 -4 10 -3 0
-8 -4 -11 -10z"/>
<path d="M2520 500 c0 -5 5 -10 11 -10 5 0 7 5 4 10 -3 6 -8 10 -11 10 -2 0
-4 -4 -4 -10z"/>
</g>
</svg>
