<svg width="180" height="82" viewBox="0 0 180 82" fill="none" xmlns="http://www.w3.org/2000/svg">
<g filter="url(#filter0_f_13:8)">
<path d="M2.88964 38.3837V39.8725L4.36078 40.1007C25.5119 43.3819 42.6831 50.8409 53.1005 55.8295C63.4353 60.7785 75.7182 68.7061 88.8596 78.5198L89.8673 79.2724L90.897 78.55C93.3394 76.8366 95.5537 75.2301 97.6847 73.684C106.28 67.4479 113.52 62.1947 128.909 54.8789C148.131 45.7405 164.736 41.4658 175.695 40.1081L177.219 39.9193V38.3837V38.2882V38.193V38.0979V38.0031V37.9085V37.8141V37.7199V37.626V37.5323V37.4388V37.3456V37.2525V37.1597V37.0671V36.9747V36.8825V36.7906V36.6988V36.6073V36.516V36.4249V36.334V36.2434V36.1529V36.0627V35.9727V35.8828V35.7932V35.7038V35.6146V35.5257V35.4369V35.3483V35.2599V35.1718V35.0838V34.9961V34.9085V34.8212V34.734V34.6471V34.5603V34.4738V34.3874V34.3013V34.2153V34.1296V34.044V33.9586V33.8735V33.7885V33.7037V33.6191V33.5347V33.4505V33.3665V33.2826V33.199V33.1156V33.0323V32.9492V32.8663V32.7836V32.7011V32.6188V32.5366V32.4546V32.3729V32.2913V32.2098V32.1286V32.0475V31.9666V31.8859V31.8054V31.7251V31.6449V31.5649V31.4851V31.4054V31.3259V31.2466V31.1675V31.0885V31.0097V30.9311V30.8527V30.7744V30.6963V30.6183V30.5406V30.4629V30.3855V30.3082V30.2311V30.1541V30.0773V30.0007V29.9242V29.8479V29.7718V29.6958V29.62V29.5443V29.4688V29.3934V29.3182V29.2432V29.1683V29.0935V29.0189V28.9445V28.8702V28.7961V28.7221V28.6483V28.5746V28.501V28.4277V28.3544V28.2813V28.2084V28.1356V28.0629V27.9904V27.918V27.8458V27.7737V27.7018V27.6299V27.5583V27.4867V27.4154V27.3441V27.273V27.202V27.1312V27.0604V26.9899V26.9194V26.8491V26.7789V26.7089V26.639V26.5692V26.4995V26.43V26.3606V26.2913V26.2222V26.1531V26.0842V26.0155V25.9468V25.8783V25.8099V25.7416V25.6735V25.6054V25.5375V25.4697V25.402V25.3345V25.267V25.1997V25.1325V25.0654V24.9984V24.9315V24.8647V24.7981V24.7316V24.6651V24.5988V24.5326V24.4665V24.4005V24.3347V24.2689V24.2032V24.1377V24.0722V24.0069V23.9416V23.8765V23.8114V23.7465V23.6816V23.6169V23.5522V23.4877V23.4233V23.3589V23.2947V23.2305V23.1664V23.1025V23.0386V22.9748V22.9111V22.8476V22.784V22.7206V22.6573V22.5941V22.5309V22.4679V22.4049V22.342V22.2792V22.2165V22.1539V22.0913V22.0289V21.9665V21.9042V21.842V21.7799V21.7178V21.6558V21.5939V21.5321V21.4704V21.4087V21.3471V21.2856V21.2241V21.1628V21.1015V21.0402V20.9791V20.918V20.857V20.7961V20.7352V20.6744V20.6136V20.553V20.4924V20.4318V20.3713V20.3109V20.2506V20.1903V20.1301V20.0699V20.0098V19.9498V19.8898V19.8299V19.77V19.7102V19.6504V19.5907V19.5311V19.4715V19.412V19.3525V19.2931V19.2337V19.1744V19.1151V19.0559V18.9967V18.9376V18.8785V18.8195V18.7605V18.7015V18.6426V18.5838V18.525V18.4662V18.4075V18.3488V18.2902V18.2316V18.173V18.1145V18.056V17.9976V17.9391V17.8808V17.8224V17.7641V17.7059V17.6476V17.5894V17.5313V17.4731V17.415V17.3569V17.2989V17.2409V17.1829V17.1249V17.067V17.0091V16.9512V16.8933V16.8355V16.7777V16.7199V16.6621V16.6043V16.5466V16.4889V16.4312V16.3735V16.3159V16.2582V16.2006V16.143V16.0854V16.0279V15.9703V15.9127V15.8552V15.7977V15.7402V15.6827V15.6252V15.5677V15.5102V15.4527V15.3953V15.3378V15.2804V15.2229V15.1655V15.108V15.0506V14.9932V14.9357V14.8783V14.8209V14.7635V14.706V14.6486V14.5911V14.5337V14.4763V14.4188V14.3614V14.3039V14.2464V14.189V14.1315V14.074V14.0165V13.959V13.9014V13.8439V13.7864V13.7288V13.6712V13.6136V13.556V13.4984V13.4408V13.3831V13.3255V13.2678V13.2101V13.1524V13.0946V13.0369V12.9791V12.9213V12.8634V12.8056V12.7477V12.6898V12.6318V12.5739V12.5159V12.4579V12.3999V12.3418V12.2837V12.2255V12.1674V12.1092V12.051V11.9927V11.9344V11.8761V11.8177V11.7593V11.7009V11.6424V11.5839V11.5254V11.4668V11.4081V11.3495V11.2907V11.232V11.1732V11.1144V11.0555V10.9965V10.9376V10.8786V10.8195V10.7604V10.7012V10.642V10.5827V10.5234V10.4641V10.4046V10.3452V10.2857V10.2261V10.1665V10.1068V10.047V9.98724V9.92739V9.86748V9.80751V9.74749V9.6874V9.62725V9.56704V9.50677V9.44644V9.38605V9.32559V9.26506V9.20447V9.14382V9.0831V9.02231V8.96145V8.90053V8.83953V8.77847V8.71733V8.65613V8.59485V8.5335V8.47207V8.41057V8.349V8.28735V8.22563V8.16383V8.10195V8.03999V7.97795V7.91584V7.85364V7.79137V7.72901V7.66657V7.60405V7.54144V7.47875V7.41597V7.35311V7.29016V7.22713V7.16401V7.1008V7.0375V6.97411V6.91063V6.84706V6.7834V6.71964V6.65579V6.59185V6.52782V6.46368V6.39946V6.33513V6.27071V6.2062V6.14158V6.07686V6.01205V5.94713V5.88211V5.81699V5.75177V5.68644V5.62101V5.55548V5.48984V5.4241V5.35824V5.29228V5.22622V5.16004V5.09375V5.02736V4.96085V4.89423V4.8275V4.76066V4.6937V4.62663V4.55945V4.49215V4.42473V4.3572V4.28954V4.22177V4.15388V4.08588V2.34838H175.481C161.163 2.34838 144.956 8.0175 131.044 13.2573C119.192 17.7212 107.091 25.5432 95.6222 32.957C93.6896 34.2063 91.7749 35.444 89.8823 36.6521C86.337 34.4667 83.1968 32.4339 80.1893 30.487C72.3574 25.4171 65.4263 20.9303 54.5883 15.8507C46.8504 12.224 37.2325 8.91523 28.1534 6.51226C19.1041 4.1172 10.4359 2.58071 4.62714 2.58071H2.88964L2.88964 4.31821V38.3837Z" fill="#FED007" stroke="black" stroke-width="3.475"/>
</g>
<g filter="url(#filter1_f_13:8)">
<path d="M14.7895 22.7162C14.7895 22.5813 14.844 22.4521 14.9406 22.358L20.3631 17.0768C20.4903 16.9529 20.6737 16.9058 20.8449 16.953L23.6239 17.7197C24.0006 17.8236 24.1179 18.3 23.8325 18.5669L18.7588 23.3116C18.6577 23.4062 18.6004 23.5384 18.6004 23.6768V29.2294C18.6004 29.5561 18.2923 29.795 17.976 29.7137L15.1651 28.9916C14.944 28.9348 14.7895 28.7355 14.7895 28.5073V22.7162Z" fill="#967B00"/>
<path d="M19.6063 24.0404C19.6063 23.9008 19.6646 23.7676 19.7672 23.673L25.4161 18.4605C25.5496 18.3373 25.7394 18.2962 25.9118 18.3531L28.1254 19.0834C28.4816 19.2009 28.5864 19.6541 28.318 19.916L23.4538 24.6631C23.3574 24.7572 23.303 24.8862 23.303 25.0209V30.5912C23.303 30.9247 22.9828 31.1647 22.6627 31.0712L19.966 30.2831C19.7528 30.2208 19.6063 30.0253 19.6063 29.8032V24.0404Z" fill="#967B00"/>
<path d="M24.4231 25.2145C24.4231 25.0786 24.4784 24.9485 24.5763 24.8543L29.756 19.8678C29.8969 19.7321 30.1041 19.6911 30.2861 19.7628L32.7774 20.745C33.1153 20.8782 33.2029 21.3159 32.9423 21.5689L28.3857 25.992C28.2887 26.0862 28.2339 26.2156 28.2339 26.3508L28.2339 32.2224C28.2339 32.5626 27.9015 32.8035 27.5782 32.6975L24.7673 31.7762C24.5619 31.7089 24.4231 31.5172 24.4231 31.3011V25.2145Z" fill="#967B00"/>
<path d="M29.3054 26.7412C29.3054 26.6073 29.3591 26.4791 29.4544 26.3851L34.3086 21.5997C34.4518 21.4585 34.6655 21.4169 34.8512 21.4939L37.0087 22.389C37.3426 22.5276 37.4237 22.9638 37.1618 23.213L32.731 27.4307C32.6318 27.5251 32.5757 27.656 32.5757 27.7929V33.6925C32.5757 34.0371 32.2353 34.2784 31.9101 34.1643L29.6398 33.3674C29.4395 33.2971 29.3054 33.108 29.3054 32.8956V26.7412Z" fill="#967B00"/>
<path d="M33.6063 28.2024C33.6063 28.0629 33.6646 27.9298 33.767 27.8351L38.5959 23.3744C38.7398 23.2414 38.9483 23.2048 39.129 23.2808L41.7304 24.3749C42.0652 24.5157 42.1429 24.9551 41.8768 25.2022L37.25 29.4971C37.1481 29.5917 37.0902 29.7244 37.0902 29.8635V35.4438C37.0902 35.7988 36.7305 36.0407 36.4017 35.9069L33.9178 34.896C33.7295 34.8194 33.6063 34.6363 33.6063 34.4329V28.2024Z" fill="#967B00"/>
<path d="M38.2518 30.4053C38.2518 30.2608 38.3142 30.1235 38.4231 30.0285L43.6194 25.4948C43.7674 25.3658 43.9771 25.3352 44.1557 25.4167L46.6363 26.5486C46.9663 26.6992 47.0312 27.1401 46.7585 27.3794L42.0071 31.5478C41.8989 31.6427 41.8368 31.7797 41.8368 31.9236V37.4446C41.8368 37.8061 41.465 38.0481 41.1345 37.9018L38.5494 36.7577C38.3685 36.6776 38.2518 36.4984 38.2518 36.3005V30.4053Z" fill="#967B00"/>
<path d="M42.905 32.4067C42.905 32.2567 42.9724 32.1147 43.0884 32.0197L48.4844 27.6055C48.6311 27.4855 48.833 27.4587 49.0058 27.5363L51.3019 28.5672C51.6391 28.7186 51.7011 29.1709 51.4171 29.4075L46.6344 33.3919C46.5204 33.4869 46.4545 33.6276 46.4545 33.7761V39.5818C46.4545 39.9492 46.0715 40.1912 45.7398 40.0334L43.1903 38.821C43.0161 38.7381 42.905 38.5624 42.905 38.3694V32.4067Z" fill="#967B00"/>
<path d="M47.7307 34.3272C47.7307 34.1794 47.7961 34.0392 47.9093 33.9442L53.0366 29.6406C53.1858 29.5154 53.3941 29.4882 53.5705 29.571L55.8539 30.6428C56.1912 30.8011 56.243 31.2595 55.9496 31.4892L51.0732 35.306C50.9521 35.4008 50.8814 35.546 50.8814 35.6997V41.6807C50.8814 42.0549 50.4854 42.2965 50.1527 42.1253L48.002 41.0192C47.8354 40.9335 47.7307 40.7619 47.7307 40.5746L47.7307 34.3272Z" fill="#967B00"/>
<path d="M51.998 36.2669C51.998 36.1082 52.0734 35.9588 52.2012 35.8646L57.6969 31.809C57.8464 31.6987 58.0448 31.6804 58.212 31.7614L60.5289 32.8848C60.8694 33.0499 60.9102 33.5186 60.6035 33.7401L55.3643 37.5228C55.2341 37.6168 55.157 37.7677 55.157 37.9282V43.8007C55.157 44.1765 54.7579 44.418 54.425 44.2437L52.2661 43.1131C52.1013 43.0268 51.998 42.8562 51.998 42.6702L51.998 36.2669Z" fill="#967B00"/>
<path d="M56.6063 38.5523C56.6063 38.3868 56.6882 38.232 56.825 38.1389L62.6275 34.1908C62.7767 34.0893 62.9689 34.076 63.1306 34.156L65.3913 35.2747C65.7308 35.4427 65.7675 35.9127 65.458 36.1312L59.9067 40.0526C59.774 40.1463 59.6952 40.2986 59.6952 40.461V46.1036C59.6952 46.4777 59.2994 46.7193 58.9667 46.5484L56.8778 45.4754C56.7111 45.3897 56.6063 45.2181 56.6063 45.0306L56.6063 38.5523Z" fill="#967B00"/>
<path d="M60.8916 40.9107C60.8916 40.7422 60.9765 40.5851 61.1174 40.4926L67.2773 36.4526C67.4315 36.3515 67.6288 36.3434 67.7907 36.4316L70.2188 37.7539C70.5472 37.9327 70.5703 38.3954 70.2614 38.6061L64.4567 42.5638C64.3283 42.6513 64.2479 42.7936 64.2392 42.9488L63.9261 48.4987C63.9054 48.8647 63.511 49.0848 63.1886 48.9101L61.1534 47.8071C60.9921 47.7197 60.8916 47.551 60.8916 47.3675L60.8916 40.9107Z" fill="#967B00"/>
<path d="M65.3497 43.49C65.3551 43.3287 65.438 43.18 65.5723 43.0905L71.8185 38.9304C71.9811 38.8222 72.1917 38.8185 72.358 38.9209L74.7726 40.4087C75.0806 40.5985 75.0914 41.0424 74.793 41.2469L69.0648 45.1719C68.9403 45.2573 68.861 45.3943 68.849 45.5448L68.4023 51.1752C68.3728 51.5469 67.9615 51.7567 67.6433 51.5624L65.3797 50.1804C65.2259 50.0865 65.1345 49.9171 65.1406 49.7369L65.3497 43.49Z" fill="#967B00"/>
<path d="M70.0893 45.999C70.0987 45.8397 70.1835 45.6945 70.3176 45.6081L76.3376 41.7297C76.5028 41.6233 76.715 41.6235 76.88 41.7302L79.3833 43.35C79.6929 43.5503 79.6865 44.0054 79.3715 44.197L73.6264 47.6905C73.4928 47.7717 73.4049 47.9107 73.3888 48.0662L72.7779 53.9668C72.7392 54.3406 72.3175 54.5397 72.0043 54.3321L69.9281 52.9557C69.7796 52.8573 69.6947 52.6873 69.7052 52.5095L70.0893 45.999Z" fill="#967B00"/>
<path d="M74.5788 49.0193C74.5962 48.8661 74.6832 48.7295 74.8147 48.6491L81.0666 44.8251C81.2308 44.7246 81.438 44.7274 81.5995 44.8321L84.424 46.6642C84.7309 46.8633 84.7272 47.3137 84.417 47.5076L78.3429 51.3065C78.221 51.3828 78.1378 51.5078 78.1146 51.6497L77.2419 56.9856C77.1829 57.3464 76.7694 57.5239 76.4672 57.3183L74.0902 55.701C73.9368 55.5966 73.8538 55.4157 73.8747 55.2313L74.5788 49.0193Z" fill="#967B00"/>
<path d="M79.4756 52.0749C79.4989 51.9329 79.5823 51.8078 79.7044 51.7316L85.7922 47.9346C85.9566 47.832 86.1655 47.8337 86.3282 47.9389L88.737 49.4962C89.0461 49.6959 89.0407 50.1498 88.727 50.3423L83.1049 53.7909C82.9846 53.8647 82.9011 53.986 82.875 54.1247L81.7755 59.9709C81.7102 60.3184 81.3145 60.4901 81.016 60.3005L78.6769 58.8142C78.5079 58.7068 78.4192 58.5088 78.4517 58.3112L79.4756 52.0749Z" fill="#967B00"/>
<path d="M83.9201 55.0017C83.946 54.8695 84.0242 54.7533 84.1369 54.6795L88.1144 52.0755C88.4469 51.8578 88.8883 52.0964 88.8883 52.4938V56.5841C88.8883 56.7679 88.7875 56.9368 88.6258 57.0241L87.7873 57.4766C87.6757 57.5368 87.5912 57.6372 87.5508 57.7574L85.9253 62.5953C85.8225 62.9012 85.4612 63.0311 85.1872 62.8606L82.9784 61.4863C82.8021 61.3766 82.712 61.1694 82.7519 60.9656L83.9201 55.0017Z" fill="#967B00"/>
<path d="M89.9249 57.7189C89.822 57.6242 89.7635 57.4908 89.7635 57.3509V50.491C89.7635 50.313 89.8581 50.1484 90.0119 50.0589L92.4121 48.6617C92.7454 48.4676 93.1636 48.7081 93.1636 49.0938V55.7243C93.1636 55.872 93.2289 56.0121 93.342 56.1071L97.725 59.7896C97.985 60.008 97.9563 60.4164 97.6684 60.5964L95.243 62.1126C95.0521 62.2319 94.8051 62.209 94.6394 62.0566L89.9249 57.7189Z" fill="#967B00"/>
<path d="M94.5313 55.3956C94.4168 55.3006 94.3506 55.1596 94.3506 55.0108L94.3506 47.7703C94.3506 47.5955 94.4418 47.4334 94.5913 47.3428L96.4862 46.1938C96.8194 45.9917 97.2455 46.2316 97.2455 46.6213V53.1739C97.2455 53.3234 97.3124 53.4651 97.4279 53.5601L101.864 57.2072C102.125 57.4222 102.102 57.8292 101.818 58.0132L99.8064 59.3158C99.6229 59.4346 99.3836 59.4205 99.2154 59.281L94.5313 55.3956Z" fill="#967B00"/>
<path d="M98.4003 52.7186C98.2874 52.6236 98.2221 52.4835 98.2221 52.3359V45.408C98.2221 45.2339 98.3127 45.0724 98.4612 44.9815L100.633 43.6529C100.971 43.4457 101.405 43.6967 101.393 44.0935L101.199 50.987C101.195 51.1408 101.261 51.288 101.38 51.3862L105.541 54.8323C105.802 55.0484 105.777 55.456 105.492 55.6386L103.746 56.7554C103.561 56.8733 103.322 56.8577 103.154 56.7169L98.4003 52.7186Z" fill="#967B00"/>
<path d="M102.793 50.7933C102.675 50.6984 102.606 50.555 102.606 50.4033V42.7203C102.606 42.5441 102.699 42.3809 102.85 42.2907L105.076 40.965C105.409 40.7665 105.832 41.0066 105.832 41.3946V48.1381C105.832 48.2831 105.895 48.421 106.004 48.516L110.118 52.0794C110.374 52.3018 110.34 52.7098 110.049 52.8854L107.696 54.306C107.517 54.4145 107.288 54.3993 107.125 54.268L102.793 50.7933Z" fill="#967B00"/>
<path d="M107.073 47.6922C106.965 47.5972 106.903 47.4605 106.903 47.3168V40.1891C106.903 40.0135 106.995 39.8507 107.146 39.7604L109.652 38.2557C109.991 38.0526 110.42 38.303 110.41 38.6975L110.238 45.2305C110.234 45.3728 110.291 45.5099 110.395 45.6075L114.576 49.5478C114.818 49.7759 114.774 50.1723 114.488 50.3418L112.169 51.7158C111.983 51.8262 111.747 51.8041 111.584 51.661L107.073 47.6922Z" fill="#967B00"/>
<path d="M111.757 44.7932C111.661 44.6991 111.606 44.5701 111.606 44.4353L111.606 37.501C111.606 37.32 111.704 37.1531 111.862 37.0647L114.589 35.5377C114.925 35.3495 115.338 35.5961 115.333 35.9813L115.239 42.4034C115.237 42.5401 115.292 42.6717 115.389 42.7675L119.473 46.7759C119.711 47.0091 119.658 47.4049 119.369 47.5684L116.675 49.0864C116.482 49.1955 116.24 49.1639 116.081 49.0089L111.757 44.7932Z" fill="#967B00"/>
<path d="M116.598 42.181C116.493 42.0833 116.435 41.9453 116.439 41.8021L116.625 34.7104C116.629 34.5287 116.732 34.3638 116.894 34.2799L119.174 33.0944C119.506 32.9213 119.904 33.1629 119.904 33.538V40.2254C119.904 40.3602 119.959 40.4893 120.055 40.5834L123.924 44.3562C124.164 44.5908 124.109 44.991 123.815 45.1525L121.595 46.3699C121.406 46.4737 121.172 46.4444 121.014 46.2973L116.598 42.181Z" fill="#967B00"/>
<path d="M121.165 39.9211C121.074 39.8277 121.023 39.7026 121.023 39.5724V32.4916C121.023 32.3062 121.126 32.1359 121.29 32.0494L123.912 30.6658C124.248 30.4884 124.652 30.7363 124.645 31.1164L124.532 37.8588C124.53 37.9871 124.577 38.1113 124.664 38.2057L128.329 42.1902C128.555 42.4361 128.481 42.8305 128.181 42.9776L125.77 44.1593C125.576 44.2545 125.343 44.214 125.192 44.0591L121.165 39.9211Z" fill="#967B00"/>
<path d="M125.742 37.6354C125.655 37.5426 125.606 37.4201 125.606 37.2927V30.1251C125.606 29.9343 125.715 29.7601 125.886 29.6762L128.18 28.5521C128.512 28.3893 128.9 28.6311 128.9 29.0011V35.4338C128.9 35.5604 128.948 35.6822 129.034 35.7748L132.867 39.8856C133.093 40.1286 133.024 40.5211 132.728 40.672L130.272 41.9237C130.074 42.0246 129.833 41.9827 129.681 41.8209L125.742 37.6354Z" fill="#967B00"/>
<path d="M130.465 35.2564C130.382 35.1646 130.336 35.0454 130.336 34.9218V27.9698C130.336 27.7769 130.447 27.6011 130.622 27.5183L133.141 26.3208C133.476 26.1614 133.862 26.41 133.855 26.7811L133.737 33.5072C133.735 33.6289 133.777 33.7472 133.856 33.8399L137.272 37.8564C137.488 38.1102 137.4 38.5002 137.095 38.6366L134.873 39.6328C134.675 39.7216 134.442 39.6725 134.297 39.5112L130.465 35.2564Z" fill="#967B00"/>
<path d="M134.98 33.3348C134.907 33.244 134.869 33.1309 134.871 33.0149L134.993 25.7911C134.997 25.5968 135.112 25.422 135.29 25.3429L138.157 24.0644C138.498 23.9127 138.878 24.173 138.86 24.5451L138.541 31.1771C138.536 31.2965 138.573 31.4139 138.646 31.5082L141.967 35.7745C142.166 36.0303 142.072 36.4049 141.777 36.5377L139.002 37.784C138.794 37.8776 138.548 37.818 138.406 37.6393L134.98 33.3348Z" fill="#967B00"/>
<path d="M139.611 31.2063C139.543 31.1128 139.51 30.9988 139.517 30.8837L139.95 23.6397C139.961 23.4474 140.082 23.2787 140.261 23.2062L143.075 22.0634C143.416 21.9249 143.785 22.19 143.762 22.5575L143.341 29.3657C143.335 29.4723 143.363 29.5782 143.42 29.6679L146.233 34.0193C146.403 34.2821 146.292 34.6346 146.002 34.7533L143.412 35.8152C143.198 35.9028 142.952 35.8326 142.817 35.6453L139.611 31.2063Z" fill="#967B00"/>
<path d="M144.487 29.371C144.432 29.282 144.406 29.1778 144.413 29.0731L144.902 21.7167C144.915 21.5201 145.042 21.3496 145.227 21.2811L147.866 20.3034C148.216 20.1735 148.58 20.4598 148.536 20.8309L147.757 27.4225C147.744 27.5302 147.767 27.6391 147.822 27.7329L150.575 32.4588C150.732 32.7282 150.607 33.074 150.314 33.1804L147.883 34.0638C147.661 34.1444 147.413 34.0588 147.288 33.8586L144.487 29.371Z" fill="#967B00"/>
<path d="M148.825 27.4854C148.771 27.3918 148.75 27.2834 148.763 27.1763L149.643 19.9699C149.667 19.7735 149.804 19.6097 149.994 19.5521L152.666 18.7401C153.014 18.6344 153.355 18.9236 153.307 19.2841L152.449 25.7627C152.435 25.8716 152.457 25.9823 152.512 26.0776L155.282 30.893C155.441 31.1684 155.306 31.5198 155.003 31.6179L152.175 32.5362C151.95 32.6093 151.704 32.5145 151.587 32.3091L148.825 27.4854Z" fill="#967B00"/>
<path d="M153.43 25.8932C153.374 25.7953 153.353 25.6816 153.371 25.5704L154.473 18.4364C154.503 18.2366 154.652 18.0751 154.848 18.0271L157.368 17.4113C157.72 17.3251 158.045 17.632 157.978 17.989L156.756 24.5171C156.736 24.6274 156.753 24.7414 156.805 24.8409L159.382 29.7666C159.53 30.0488 159.379 30.3953 159.073 30.4803L156.817 31.1052C156.596 31.1664 156.361 31.0694 156.248 30.8697L153.43 25.8932Z" fill="#967B00"/>
<path d="M157.805 24.5217C157.753 24.4212 157.737 24.3061 157.759 24.1952L159.142 17.2443C159.182 17.0435 159.34 16.8873 159.541 16.8501L162.054 16.3855C162.41 16.3198 162.716 16.6416 162.631 16.9934L161.231 22.855C161.204 22.9695 161.218 23.09 161.271 23.1953L163.989 28.6181C164.134 28.9058 163.972 29.2529 163.66 29.3283L161.036 29.9604C160.812 30.0144 160.58 29.9082 160.474 29.7033L157.805 24.5217Z" fill="#967B00"/>
<path d="M162.453 23.0771L165.069 28.3063C165.314 28.7963 166.055 28.592 166.015 28.0455L165.998 27.8203V16.1249C165.998 15.7672 165.633 15.5252 165.304 15.6643L164.219 16.122C164.072 16.1837 163.964 16.3112 163.927 16.4654L162.414 22.7352C162.386 22.8499 162.4 22.9716 162.453 23.0771Z" fill="#967B00"/>
<path d="M87.1618 63.8062L89.66 65.3159C89.8201 65.4126 90.0208 65.412 90.1802 65.3141L93.5955 63.2179C93.8798 63.0434 93.9168 62.6447 93.6693 62.421L89.3301 58.4969C89.0647 58.2569 88.6405 58.3652 88.5226 58.703L86.9483 63.2135C86.8704 63.4367 86.9595 63.684 87.1618 63.8062Z" fill="#967B00"/>
<path d="M14.323 16.651C14.323 16.3559 14.5774 16.1249 14.8712 16.1534L18.5011 16.5047C18.9217 16.5454 19.1053 17.0571 18.8065 17.3559L15.1766 20.9859C14.8616 21.3008 14.323 21.0778 14.323 20.6323V16.651Z" fill="#967B00"/>
</g>
<defs>
<filter id="filter0_f_13:8" x="0.85213" y="0.31087" width="178.404" height="81.4062" filterUnits="userSpaceOnUse" color-interpolation-filters="sRGB">
<feFlood flood-opacity="0" result="BackgroundImageFix"/>
<feBlend mode="normal" in="SourceGraphic" in2="BackgroundImageFix" result="shape"/>
<feGaussianBlur stdDeviation="0.15" result="effect1_foregroundBlur_13:8"/>
</filter>
<filter id="filter1_f_13:8" x="14.123" y="15.4244" width="152.093" height="50.1636" filterUnits="userSpaceOnUse" color-interpolation-filters="sRGB">
<feFlood flood-opacity="0" result="BackgroundImageFix"/>
<feBlend mode="normal" in="SourceGraphic" in2="BackgroundImageFix" result="shape"/>
<feGaussianBlur stdDeviation="0.1" result="effect1_foregroundBlur_13:8"/>
</filter>
</defs>
</svg>
