<?xml version="1.0" standalone="no"?>
<!DOCTYPE svg PUBLIC "-//W3C//DTD SVG 20010904//EN"
 "http://www.w3.org/TR/2001/REC-SVG-20010904/DTD/svg10.dtd">
<svg version="1.0" xmlns="http://www.w3.org/2000/svg"
 width="260.000000pt" height="260.000000pt" viewBox="0 0 260.000000 260.000000"
 preserveAspectRatio="xMidYMid meet">
<metadata>
Created by potrace 1.14, written by Peter Selinger 2001-2017
</metadata>
<g transform="translate(0.000000,260.000000) scale(0.100000,-0.100000)"
fill="#000000" stroke="none">
<path d="M0 1590 l0 -290 23 -9 c12 -5 47 -12 77 -16 94 -12 343 -81 415 -115
11 -5 49 -21 85 -36 78 -31 253 -117 295 -144 17 -11 37 -23 45 -27 25 -12
291 -194 321 -219 8 -8 21 -14 27 -14 12 0 72 40 158 104 152 113 358 229 534
300 36 15 73 31 82 36 10 6 23 10 29 10 6 0 25 6 42 14 29 13 72 26 232 70 28
8 75 17 105 21 30 3 67 8 83 11 l27 6 0 295 0 295 -108 -5 c-59 -3 -129 -10
-157 -16 -89 -19 -263 -70 -310 -90 -11 -5 -49 -19 -85 -31 -63 -22 -270 -117
-280 -129 -3 -4 -16 -12 -30 -19 -14 -7 -37 -20 -51 -30 -23 -15 -79 -49 -154
-95 -11 -7 -22 -14 -25 -17 -21 -21 -73 -50 -89 -50 -11 0 -64 29 -116 65 -53
36 -99 65 -102 65 -3 0 -24 13 -47 28 -62 41 -292 155 -366 181 -36 12 -73 27
-82 32 -10 5 -34 13 -55 18 -21 6 -78 21 -128 34 -136 36 -256 57 -329 57
l-66 0 0 -290z m2513 243 c-7 -2 -19 -2 -25 0 -7 3 -2 5 12 5 14 0 19 -2 13
-5z m-2386 -9 c-3 -3 -12 -4 -19 -1 -8 3 -5 6 6 6 11 1 17 -2 13 -5z m2310 0
c-3 -3 -12 -4 -19 -1 -8 3 -5 6 6 6 11 1 17 -2 13 -5z m-2375 -331 c2 -88 0
-159 -4 -156 -5 2 -7 113 -6 246 2 243 6 212 10 -90z m2475 -25 c-1 -68 -3
-15 -3 117 0 132 2 187 3 123 2 -64 2 -172 0 -240z m-2260 336 c-3 -3 -12 -4
-19 -1 -8 3 -5 6 6 6 11 1 17 -2 13 -5z m238 -64 c3 -6 -1 -7 -9 -4 -18 7 -21
14 -7 14 6 0 13 -4 16 -10z m95 -30 c8 -5 11 -10 5 -10 -5 0 -17 5 -25 10 -8
5 -10 10 -5 10 6 0 17 -5 25 -10z m1360 -10 c-8 -5 -19 -10 -25 -10 -5 0 -3 5
5 10 8 5 20 10 25 10 6 0 3 -5 -5 -10z m-1265 -30 c3 -6 -1 -7 -9 -4 -18 7
-21 14 -7 14 6 0 13 -4 16 -10z m1684 -97 c0 -79 -2 -85 -12 -56 -7 17 -15 34
-18 38 -6 5 -3 22 17 93 9 32 14 4 13 -75z m-1614 67 c3 -6 -1 -7 -9 -4 -18 7
-21 14 -7 14 6 0 13 -4 16 -10z m-545 -10 c0 -5 -4 -10 -10 -10 -5 0 -10 5
-10 10 0 6 5 10 10 10 6 0 10 -4 10 -10z m2093 -40 c-4 -37 -2 -56 12 -76 14
-22 15 -28 4 -35 -15 -9 -39 14 -39 37 0 7 -5 14 -11 16 -9 3 -8 14 1 43 7 22
14 46 16 53 2 6 8 12 13 12 6 0 8 -20 4 -50z m-2043 1 c-32 -31 -40 -46 -40
-75 0 -25 -4 -36 -15 -36 -11 0 -15 11 -15 37 0 29 8 45 37 75 20 21 45 38 55
38 14 0 8 -10 -22 -39z m1977 -8 c-5 -47 8 -102 27 -115 7 -5 3 -8 -9 -8 -12
0 -27 13 -38 32 -16 27 -16 37 -6 84 15 67 34 72 26 7z m-1911 -13 c-27 -30
-36 -49 -36 -75 0 -24 -5 -35 -15 -35 -11 0 -15 11 -15 39 0 33 7 46 38 75 51
49 73 46 28 -4z m1847 -9 c-4 -35 -1 -58 11 -81 20 -41 20 -50 1 -50 -9 0 -21
12 -28 28 -6 15 -16 30 -22 34 -6 4 -5 19 3 41 7 18 12 41 12 49 0 14 5 19 27
27 1 1 -1 -21 -4 -48z m-1776 -9 c-21 -22 -27 -38 -27 -75 0 -40 -3 -47 -20
-47 -17 0 -20 7 -20 46 0 40 5 51 38 84 23 24 41 35 46 29 6 -5 0 -20 -17 -37z
m1709 -19 c-5 -38 -2 -55 14 -80 l20 -33 -21 0 c-12 0 -23 8 -26 20 -3 11 -9
20 -14 20 -14 0 -11 108 4 113 26 11 29 5 23 -40z m-1616 31 c0 -3 -13 -19
-30 -36 -24 -24 -30 -38 -30 -74 0 -28 -4 -43 -10 -39 -5 3 -10 26 -10 50 0
34 6 51 28 74 24 27 52 40 52 25z m460 -30 c0 -2 -9 0 -20 6 -11 6 -20 13 -20
16 0 2 9 0 20 -6 11 -6 20 -13 20 -16z m1088 -28 c-4 -33 -1 -52 13 -73 10
-15 19 -31 19 -35 0 -16 -24 -7 -46 18 -18 19 -24 36 -24 73 0 51 5 61 28 61
11 0 13 -10 10 -44z m-1478 27 c-1 -5 -14 -19 -30 -33 -25 -20 -30 -32 -30
-68 0 -36 -3 -43 -17 -40 -13 2 -19 15 -21 42 -3 33 2 44 30 72 30 30 69 45
68 27z m1426 -128 c29 -38 30 -45 7 -45 -45 0 -84 125 -50 159 10 10 13 3 15
-35 2 -31 12 -58 28 -79z m-1363 99 c3 -4 -9 -20 -28 -37 -28 -25 -35 -38 -35
-69 0 -21 -4 -38 -10 -38 -5 0 -10 21 -10 47 0 37 5 52 28 74 27 28 43 35 55
23z m1293 -129 c13 -17 24 -35 24 -38 0 -16 -23 -5 -45 21 -19 21 -24 39 -25
78 0 66 14 80 18 18 2 -31 12 -58 28 -79z m-1226 96 c0 -4 -13 -18 -30 -31
-25 -19 -30 -30 -30 -67 0 -57 -24 -54 -28 4 -3 35 1 44 33 72 35 31 55 39 55
22z m1155 -123 c11 -15 23 -28 28 -28 14 0 7 -20 -8 -20 -31 0 -65 50 -65 96
0 68 14 88 20 29 3 -27 14 -62 25 -77z m-1090 93 c3 -6 -3 -15 -14 -20 -37
-20 -51 -42 -51 -82 0 -21 -4 -39 -10 -39 -5 0 -10 21 -10 47 0 40 4 50 33 74
35 31 43 34 52 20z m1037 -140 c23 -25 25 -30 10 -33 -10 -3 -29 9 -44 26 -22
23 -28 40 -28 73 0 24 6 50 13 57 10 11 13 4 17 -39 4 -39 12 -61 32 -84z
m-967 109 c3 -6 -2 -13 -11 -17 -37 -14 -54 -42 -54 -88 0 -35 -3 -43 -15 -39
-10 4 -15 20 -15 53 1 41 5 49 37 74 39 29 49 32 58 17z m865 -63 c0 -35 6
-49 30 -72 22 -21 27 -31 18 -36 -8 -5 -24 2 -40 18 -24 23 -28 35 -28 80 0
29 5 53 10 53 6 0 10 -19 10 -43z m-790 28 c0 -3 -18 -17 -40 -31 -37 -24 -40
-30 -40 -71 0 -27 -4 -42 -10 -38 -12 7 -14 105 -2 105 5 0 19 9 32 20 21 18
60 28 60 15z m758 -138 c22 -23 24 -29 12 -37 -11 -7 -23 -2 -42 17 -23 22
-28 35 -28 78 0 28 6 57 13 64 10 10 13 2 15 -41 2 -41 9 -59 30 -81z m-694
105 c3 -5 -13 -19 -34 -33 -36 -22 -39 -28 -40 -67 0 -60 -24 -51 -28 11 -3
39 0 48 20 58 12 7 29 18 36 26 15 15 38 17 46 5z m596 -69 c0 -38 6 -53 25
-72 23 -21 26 -41 6 -41 -4 0 -22 13 -39 28 -27 24 -32 36 -32 75 0 41 7 54
33 56 4 1 7 -20 7 -46z m-536 19 c-10 -9 -31 -25 -46 -35 -23 -14 -28 -25 -28
-57 0 -27 -4 -38 -12 -35 -9 4 -12 22 -9 56 2 42 7 52 26 59 13 5 26 14 30 19
3 6 18 11 32 11 26 0 26 0 7 -18z m76 -31 c0 -4 -18 -17 -39 -29 -34 -19 -40
-28 -43 -59 -5 -55 -28 -55 -28 1 0 41 3 47 43 74 38 26 67 32 67 13z m390
-28 c0 -42 4 -51 31 -74 26 -21 29 -27 16 -32 -9 -3 -27 3 -41 14 -23 18 -26
28 -26 80 0 33 4 59 10 59 6 0 10 -21 10 -47z m-32 -120 c19 -16 22 -22 11
-23 -8 0 -25 9 -37 20 -17 16 -22 32 -22 74 0 73 14 81 18 9 3 -49 7 -61 30
-80z m-288 98 c0 -4 -18 -18 -39 -31 -40 -25 -51 -44 -51 -88 0 -20 -2 -22
-14 -9 -10 10 -13 27 -9 56 5 35 12 45 46 65 36 22 67 25 67 7z m200 -51 c0
-43 4 -54 30 -76 40 -36 27 -51 -16 -18 -32 25 -34 30 -34 85 0 33 4 59 10 59
6 0 10 -22 10 -50z m630 36 c0 -2 -7 -7 -16 -10 -8 -3 -12 -2 -9 4 6 10 25 14
25 6z m-778 -36 c-12 -11 -24 -20 -28 -20 -20 0 -44 -36 -44 -67 0 -23 -5 -33
-15 -33 -16 0 -19 35 -7 78 8 27 58 60 91 61 l25 1 -22 -20z m118 -115 c17
-11 30 -23 30 -27 0 -17 -34 -6 -61 19 -23 23 -29 36 -29 71 0 24 6 49 13 56
10 11 13 3 15 -43 2 -50 6 -59 32 -76z m515 85 c-3 -5 -12 -10 -18 -10 -7 0
-6 4 3 10 19 12 23 12 15 0z m-629 -75 c-9 -18 -16 -38 -16 -45 0 -6 -6 -10
-12 -7 -21 7 -10 79 15 101 20 17 22 17 25 2 2 -10 -3 -32 -12 -51z m-441 35
c3 -6 -1 -7 -9 -4 -18 7 -21 14 -7 14 6 0 13 -4 16 -10z m995 6 c0 -2 -7 -7
-16 -10 -8 -3 -12 -2 -9 4 6 10 25 14 25 6z m-491 -90 c23 -24 23 -24 3 -35
-25 -13 -52 -4 -46 15 16 54 13 52 43 20z m-138 -143 c13 -16 12 -17 -3 -4
-10 7 -18 15 -18 17 0 8 8 3 21 -13z"/>
</g>
</svg>
