<?xml version="1.0" standalone="no"?>
<!DOCTYPE svg PUBLIC "-//W3C//DTD SVG 20010904//EN"
 "http://www.w3.org/TR/2001/REC-SVG-20010904/DTD/svg10.dtd">
<svg version="1.0" xmlns="http://www.w3.org/2000/svg"
 width="260.000000pt" height="260.000000pt" viewBox="0 0 260.000000 260.000000"
 preserveAspectRatio="xMidYMid meet">
<metadata>
Created by potrace 1.14, written by Peter Selinger 2001-2017
</metadata>
<g transform="translate(0.000000,260.000000) scale(0.100000,-0.100000)"
fill="#000000" stroke="none">
<path d="M564 2397 c45 -111 91 -227 103 -257 l21 -56 -42 -1 c-289 -10 -436
-10 -431 -2 10 15 0 11 -25 -11 -24 -20 -46 -27 -36 -11 8 12 -18 21 -57 20
-25 0 -28 -2 -13 -8 18 -7 18 -8 2 -14 -25 -10 -38 -9 -31 3 3 5 -7 8 -25 7
-29 -2 -30 -3 -30 -56 l0 -53 33 5 c17 4 97 9 177 13 80 4 148 8 152 11 4 2
67 8 140 13 73 5 151 12 174 16 35 5 42 3 46 -13 3 -10 9 -26 13 -35 5 -14 2
-18 -14 -18 -12 0 -21 -4 -21 -9 0 -4 10 -6 23 -4 21 4 27 -8 81 -149 90 -233
106 -280 100 -290 -3 -4 -1 -8 5 -8 5 0 19 -30 32 -67 12 -38 24 -74 27 -82 4
-10 1 -13 -11 -8 -9 3 -17 2 -17 -3 0 -6 -29 -9 -70 -8 -55 2 -73 -2 -90 -17
-20 -18 -20 -18 -20 8 0 14 6 27 13 30 7 2 8 8 3 13 -5 5 -11 4 -13 -4 -3 -6
-9 -10 -13 -7 -5 3 -7 -6 -4 -20 4 -22 1 -25 -23 -26 -136 -5 -166 -8 -193
-19 -47 -19 -37 -33 18 -25 26 4 43 3 39 -1 -7 -7 -60 -11 -176 -15 -18 -1
-20 -3 -10 -10 39 -24 -57 -43 -141 -27 -27 5 -56 4 -74 -2 -19 -7 -33 -7 -41
0 -6 5 -16 6 -20 2 -5 -4 -5 -1 -1 6 4 7 15 10 24 8 10 -3 30 1 46 9 33 18 39
19 31 5 -4 -7 3 -7 20 0 15 6 41 10 58 11 18 0 25 3 17 6 -8 4 -21 13 -30 22
-13 13 -13 14 2 9 9 -4 18 -1 21 6 6 14 -30 19 -38 5 -4 -5 -18 -9 -33 -8
l-27 1 25 7 c25 7 25 8 3 15 -13 4 -30 2 -42 -5 -14 -10 -25 -10 -43 -2 -21
11 -21 11 9 8 39 -4 53 13 28 32 -11 7 -14 13 -8 13 6 0 16 -7 24 -16 13 -16
44 -15 83 1 15 6 17 5 11 -5 -5 -8 -4 -11 3 -6 6 4 9 13 5 21 -4 12 -24 15
-88 15 -46 0 -91 3 -101 7 -13 5 -15 3 -9 -7 5 -9 4 -11 -4 -6 -20 13 -111 -4
-111 -20 0 -16 41 -28 73 -21 12 4 29 2 37 -3 13 -9 13 -10 0 -11 -10 0 -8 -3
5 -9 17 -7 15 -9 -11 -9 -17 -1 -45 6 -63 15 -35 17 -57 10 -29 -10 15 -11 15
-13 0 -24 -14 -11 -11 -12 18 -7 25 3 31 2 20 -5 -9 -6 -10 -10 -3 -10 6 0 15
5 18 11 4 6 14 8 22 5 8 -3 11 -1 8 4 -4 6 6 10 23 10 16 0 44 3 62 7 24 4 31
3 26 -5 -4 -7 -20 -12 -36 -12 -22 0 -28 -4 -24 -15 5 -12 -4 -15 -47 -17 -30
0 -64 0 -77 1 -22 2 -22 0 -22 -124 l0 -125 58 5 c31 3 50 2 42 -2 -14 -8 -26
-53 -14 -53 3 0 16 8 29 19 18 13 21 21 12 30 -8 8 -6 11 11 11 12 0 22 -6 22
-12 0 -9 3 -8 10 2 5 8 17 16 27 16 10 1 58 5 108 9 50 4 87 4 84 1 -4 -4 -50
-22 -102 -41 -148 -52 -287 -115 -287 -131 0 -16 11 -18 25 -5 9 7 211 68 305
91 19 5 59 16 89 24 29 9 71 16 93 16 l41 0 -8 -298 c-3 -163 -8 -375 -11
-470 -2 -95 -6 -178 -9 -183 -4 -5 5 -9 19 -9 30 0 28 -14 32 190 5 172 13
419 21 621 l6 146 46 11 c25 6 92 16 149 23 106 13 135 28 57 30 -25 1 -49 3
-55 4 -5 1 -14 3 -20 4 -5 0 -10 6 -10 12 0 5 4 8 9 5 5 -4 11 -2 13 4 1 5 29
11 60 11 l57 2 7 55 c7 60 45 112 79 112 12 0 15 5 11 16 -5 14 -4 15 9 4 12
-10 46 -11 143 -6 70 4 148 9 173 13 l47 5 7 72 c4 39 8 96 8 128 1 31 5 54 8
52 4 -2 7 6 7 19 -1 12 7 140 17 284 l19 263 30 5 c35 6 64 9 304 30 95 8 221
19 280 25 59 6 136 13 172 16 65 5 90 8 185 19 28 3 79 7 114 8 44 2 66 7 69
16 4 11 -7 12 -54 8 l-59 -6 34 15 c19 9 45 14 58 11 19 -4 23 0 23 22 0 26 0
26 -87 29 -95 2 -189 -14 -197 -33 -2 -6 0 -18 5 -26 7 -11 9 -11 9 -1 0 7 4
11 9 8 5 -3 11 0 14 8 6 16 55 27 63 15 3 -5 -4 -9 -15 -9 -23 0 -37 -16 -19
-23 10 -3 10 -8 -1 -18 -9 -9 -11 -9 -7 -1 5 7 1 12 -9 12 -9 0 -14 -4 -11 -9
3 -5 -1 -12 -10 -15 -10 -4 -13 -2 -8 7 6 9 4 9 -7 1 -8 -5 -32 -11 -54 -12
-22 -2 -57 -5 -77 -8 -34 -5 -52 6 -30 19 4 2 2 2 -5 1 -7 -2 -15 1 -18 6 -4
6 -3 10 2 11 4 0 16 2 27 4 24 5 47 -5 40 -16 -3 -5 0 -9 6 -9 7 0 14 9 17 20
3 11 10 20 16 20 7 0 7 3 1 9 -5 5 -31 6 -59 1 -27 -4 -65 -5 -84 -2 -24 4
-32 2 -27 -6 4 -7 14 -12 22 -12 8 0 13 -4 9 -9 -9 -15 -65 9 -65 27 0 14 -2
14 -9 3 -5 -8 -16 -11 -24 -8 -11 4 -14 1 -11 -8 3 -7 14 -12 25 -10 10 2 19
0 19 -6 0 -17 -51 -9 -81 12 -16 11 -29 16 -29 10 0 -6 4 -11 10 -11 5 0 7 -6
4 -13 -3 -9 -19 -13 -46 -11 -27 2 -37 -1 -28 -6 24 -15 4 -22 -20 -8 -18 10
-24 10 -27 1 -8 -22 -26 -14 -20 8 4 15 2 19 -10 15 -8 -3 -17 -6 -19 -6 -3 0
-2 -5 2 -11 4 -7 1 -10 -7 -7 -8 3 -22 1 -33 -4 -10 -6 -16 -6 -13 -1 3 4 -5
9 -16 9 -12 1 -32 4 -44 7 -13 3 -23 2 -23 -4 0 -5 7 -9 15 -9 8 0 15 -5 15
-11 0 -8 -17 -10 -51 -7 -29 3 -45 2 -37 -3 8 -5 -7 -7 -37 -5 -27 2 -63 -1
-79 -5 l-29 -8 7 112 c3 61 9 165 13 230 l6 117 -91 0 c-81 0 -92 -2 -93 -17
0 -10 -4 -83 -8 -163 -6 -109 -5 -156 5 -189 7 -25 9 -50 4 -60 -22 -43 -30
-114 -35 -316 -6 -257 -14 -363 -26 -325 -4 15 -7 -16 -7 -75 1 -128 0 -143
-11 -163 -9 -16 -10 -15 -17 1 -5 15 -9 16 -15 5 -10 -15 -10 -16 -12 74 -1
31 1 52 4 46 4 -6 9 -6 12 -2 6 11 -1 95 -9 103 -3 3 -4 -7 -2 -23 2 -17 -2
-31 -9 -33 -9 -3 -13 7 -14 29 l-2 33 -7 -35 -7 -35 -2 38 c0 23 -5 36 -11 32
-6 -4 -8 3 -6 17 3 13 5 37 5 54 1 23 8 34 25 42 19 8 26 8 30 -1 3 -7 3 20 1
58 -6 109 -34 201 -36 119 -1 -21 -3 -31 -6 -21 -2 9 -8 15 -11 13 -4 -2 -7
11 -8 29 0 26 3 32 15 27 10 -4 8 4 -8 26 -25 36 -37 42 -20 11 8 -15 8 -19 0
-15 -14 9 -14 5 0 -31 8 -22 8 -26 -2 -16 -18 17 -21 35 -23 134 -2 47 -6 90
-9 97 -4 6 -3 14 3 17 6 4 8 15 5 26 -7 20 24 112 52 160 14 24 14 38 -6 170
-11 79 -21 147 -21 152 0 4 -43 7 -95 7 -94 0 -95 0 -90 -22 7 -33 45 -345 45
-372 0 -20 -4 -22 -32 -19 -26 4 -30 2 -18 -6 11 -8 12 -13 3 -19 -17 -11 -3
-26 27 -31 25 -3 25 -3 6 18 -19 21 -19 21 2 21 18 0 22 -6 22 -29 0 -27 -2
-29 -39 -27 -37 2 -39 1 -30 -22 5 -13 9 -29 9 -35 -1 -7 -23 48 -50 121 -28
74 -47 139 -43 149 4 9 2 14 -3 10 -5 -3 -32 54 -60 126 l-50 132 -110 2 -111
2 81 -202z m1526 -231 c0 -3 -10 -6 -22 -5 -13 0 -18 3 -11 5 7 3 9 13 5 22
-5 16 -5 16 11 0 9 -9 17 -19 17 -22z m-76 8 c9 -3 13 -10 10 -15 -8 -14 -21
-11 -28 6 -6 17 -4 18 18 9z m-284 -29 c0 -8 -7 -15 -16 -15 -14 0 -14 3 -4
15 7 8 14 15 16 15 2 0 4 -7 4 -15z m165 5 c3 -5 1 -10 -4 -10 -6 0 -11 5 -11
10 0 6 2 10 4 10 3 0 8 -4 11 -10z m68 3 c-7 -2 -21 -2 -30 0 -10 3 -4 5 12 5
17 0 24 -2 18 -5z m-356 -29 c-3 -3 -12 -4 -19 -1 -8 3 -5 6 6 6 11 1 17 -2
13 -5z m-40 -10 c-3 -3 -12 -4 -19 -1 -8 3 -5 6 6 6 11 1 17 -2 13 -5z m-583
-96 c2 -13 10 -68 16 -123 6 -55 13 -111 16 -125 4 -26 -10 9 -69 171 l-35 95
34 2 c28 2 34 -1 38 -20z m-190 -48 c5 -17 4 -20 -2 -10 -5 8 -13 26 -16 40
-5 17 -4 20 2 10 5 -8 13 -26 16 -40z m263 -142 c-3 -8 -6 -5 -6 6 -1 11 2 17
5 13 3 -3 4 -12 1 -19z m0 -190 c-2 -18 -4 -4 -4 32 0 36 2 50 4 33 2 -18 2
-48 0 -65z m-896 -303 c0 -6 -11 -11 -23 -12 -15 -1 -17 0 -5 3 9 3 14 10 11
16 -4 6 -1 9 5 7 7 -3 12 -9 12 -14z m946 -37 c-3 -8 -6 -5 -6 6 -1 11 2 17 5
13 3 -3 4 -12 1 -19z m17 -33 c3 -8 1 -15 -4 -15 -6 0 -10 7 -10 15 0 8 2 15
4 15 2 0 6 -7 10 -15z m-416 -2 c-10 -2 -26 -2 -35 0 -10 3 -2 5 17 5 19 0 27
-2 18 -5z m-453 -83 c-3 -5 -14 -10 -23 -9 -14 0 -13 2 3 9 27 11 27 11 20 0z
m462 -162 c-3 -7 -5 -2 -5 12 0 14 2 19 5 13 2 -7 2 -19 0 -25z m-17 11 c0 -6
-7 -8 -15 -5 -9 3 -18 -1 -22 -10 -5 -12 -7 -13 -14 -3 -5 8 -3 17 4 21 18 11
47 10 47 -3z m-70 -3 c0 -2 -7 -6 -15 -10 -8 -3 -15 -1 -15 4 0 6 7 10 15 10
8 0 15 -2 15 -4z m-63 -12 c-3 -3 -12 -4 -19 -1 -8 3 -5 6 6 6 11 1 17 -2 13
-5z"/>
<path d="M960 1926 c0 -2 7 -7 16 -10 8 -3 12 -2 9 4 -6 10 -25 14 -25 6z"/>
<path d="M60 2300 c-9 -6 -10 -10 -3 -10 6 0 15 5 18 10 8 12 4 12 -15 0z"/>
<path d="M2246 2205 c-2 -6 4 -11 14 -11 10 0 17 3 14 7 -2 4 2 9 8 12 7 3 3
4 -9 4 -12 -1 -24 -6 -27 -12z"/>
<path d="M130 2200 c0 -5 5 -10 10 -10 6 0 10 5 10 10 0 6 -4 10 -10 10 -5 0
-10 -4 -10 -10z"/>
<path d="M2523 2163 c9 -3 15 -9 12 -14 -9 -14 11 -11 24 4 9 11 5 14 -22 14
-17 0 -24 -2 -14 -4z"/>
<path d="M2208 2123 c7 -3 16 -2 19 1 4 3 -2 6 -13 5 -11 0 -14 -3 -6 -6z"/>
<path d="M2485 2120 c-16 -7 -17 -9 -3 -9 9 -1 20 4 23 9 7 11 7 11 -20 0z"/>
<path d="M2564 2119 c-3 -6 -12 -8 -20 -5 -7 3 -16 0 -20 -6 -5 -8 3 -9 24 -5
19 4 32 2 32 -3 0 -6 -13 -10 -29 -10 -16 0 -35 -8 -42 -17 -12 -16 -12 -17 1
-8 8 6 31 11 51 10 31 0 37 3 37 22 0 24 -23 39 -34 22z"/>
<path d="M2040 2106 c0 -8 -6 -17 -12 -19 -8 -3 -6 -6 5 -6 11 -1 17 6 17 19
0 11 -2 20 -5 20 -3 0 -5 -6 -5 -14z"/>
<path d="M2445 2110 c3 -5 8 -10 11 -10 2 0 4 5 4 10 0 6 -5 10 -11 10 -5 0
-7 -4 -4 -10z"/>
<path d="M2365 2081 l-50 -6 40 -7 c54 -10 67 -10 60 1 -3 6 10 8 32 5 29 -4
34 -3 23 5 -16 11 -25 11 -105 2z"/>
<path d="M2236 2063 c-3 -8 5 -8 32 -1 49 13 51 17 8 15 -20 -1 -38 -7 -40
-14z"/>
<path d="M1146 2056 c7 -19 4 -19 -30 -6 -26 9 -26 9 -26 -43 0 -52 12 -79 59
-137 l21 -25 -1 40 c0 31 -2 36 -9 20 -5 -11 -9 -14 -9 -7 -1 7 10 35 24 62
14 27 25 53 24 57 0 4 -13 18 -30 31 -20 16 -27 19 -23 8z"/>
<path d="M1463 2013 c9 -2 25 -2 35 0 9 3 1 5 -18 5 -19 0 -27 -2 -17 -5z"/>
<path d="M2153 2009 c-11 -4 -5 -7 20 -7 20 0 37 3 37 7 0 9 -33 9 -57 0z"/>
<path d="M2300 2009 c0 -5 5 -7 10 -4 6 3 10 8 10 11 0 2 -4 4 -10 4 -5 0 -10
-5 -10 -11z"/>
<path d="M2110 2000 c0 -5 5 -10 11 -10 5 0 7 5 4 10 -3 6 -8 10 -11 10 -2 0
-4 -4 -4 -10z"/>
<path d="M1735 1989 c-4 -5 3 -8 14 -6 28 4 34 12 11 14 -11 1 -22 -2 -25 -8z"/>
<path d="M2020 1988 c0 -4 4 -8 9 -8 6 0 12 4 15 8 3 5 -1 9 -9 9 -8 0 -15 -4
-15 -9z"/>
<path d="M1542 1981 c2 -7 7 -12 11 -12 12 1 9 15 -3 20 -7 2 -11 -2 -8 -8z"/>
<path d="M1580 1980 c0 -5 10 -10 23 -10 18 0 19 2 7 10 -19 13 -30 13 -30 0z"/>
<path d="M1643 1983 c9 -2 15 -8 12 -13 -6 -10 35 -4 44 6 3 4 -2 4 -11 1 -10
-3 -20 -2 -23 3 -4 6 -14 9 -23 9 -15 -1 -15 -2 1 -6z"/>
<path d="M2469 1973 c-12 -16 -12 -17 1 -7 8 6 22 14 30 17 13 5 12 6 -1 6 -9
1 -23 -7 -30 -16z"/>
<path d="M1450 1970 c0 -10 68 -11 75 0 3 5 -13 9 -35 8 -22 0 -40 -4 -40 -8z"/>
<path d="M479 1959 c-11 -7 -9 -9 8 -9 16 0 21 -4 17 -15 -4 -8 -1 -15 5 -15
16 0 14 37 -2 43 -8 3 -20 1 -28 -4z"/>
<path d="M1860 1960 c0 -5 5 -10 11 -10 5 0 7 5 4 10 -3 6 -8 10 -11 10 -2 0
-4 -4 -4 -10z"/>
<path d="M50 1950 c0 -5 7 -10 16 -10 8 0 12 5 9 10 -3 6 -10 10 -16 10 -5 0
-9 -4 -9 -10z"/>
<path d="M277 1953 c-23 -4 -28 -9 -24 -24 5 -17 -1 -19 -41 -20 -26 0 -56 -2
-67 -4 -11 -3 -48 -6 -82 -7 -66 -3 -89 -23 -28 -25 22 -1 33 3 28 10 -4 7 7
8 36 3 23 -3 72 -1 109 5 37 6 79 11 94 10 34 -2 45 14 11 17 -13 1 -32 6 -41
12 -14 8 -13 10 8 11 14 1 29 1 33 0 5 -1 6 3 2 9 -3 5 -7 9 -8 9 -1 -1 -15
-4 -30 -6z"/>
<path d="M2108 1953 c7 -3 16 -2 19 1 4 3 -2 6 -13 5 -11 0 -14 -3 -6 -6z"/>
<path d="M170 1942 c0 -5 7 -13 16 -16 23 -9 24 -8 23 12 0 11 -2 12 -6 4 -4
-10 -8 -10 -19 -1 -8 7 -14 7 -14 1z"/>
<path d="M225 1940 c3 -5 8 -10 11 -10 2 0 4 5 4 10 0 6 -5 10 -11 10 -5 0 -7
-4 -4 -10z"/>
<path d="M413 1930 c-1 -11 2 -18 8 -15 11 7 12 35 1 35 -4 0 -8 -9 -9 -20z"/>
<path d="M625 1940 c-27 -7 -27 -8 -5 -8 14 0 36 4 50 8 20 6 21 8 5 8 -11 0
-33 -4 -50 -8z"/>
<path d="M1215 1940 c3 -5 8 -10 11 -10 2 0 4 5 4 10 0 6 -5 10 -11 10 -5 0
-7 -4 -4 -10z"/>
<path d="M1588 1943 c6 -2 18 -2 25 0 6 3 1 5 -13 5 -14 0 -19 -2 -12 -5z"/>
<path d="M534 1929 c-3 -5 9 -9 25 -9 17 0 31 2 31 4 0 8 -51 13 -56 5z"/>
<path d="M1192 1920 c0 -14 2 -19 5 -12 2 6 2 18 0 25 -3 6 -5 1 -5 -13z"/>
<path d="M2460 1930 c-13 -8 -12 -10 3 -10 9 0 17 5 17 10 0 12 -1 12 -20 0z"/>
<path d="M2490 1936 c0 -8 61 -12 66 -4 3 4 -11 8 -30 8 -20 0 -36 -2 -36 -4z"/>
<path d="M38 1923 c6 -2 18 -2 25 0 6 3 1 5 -13 5 -14 0 -19 -2 -12 -5z"/>
<path d="M445 1920 c3 -5 12 -7 20 -3 21 7 19 13 -6 13 -11 0 -18 -4 -14 -10z"/>
<path d="M2102 1915 c-17 -20 5 -20 24 0 12 11 12 15 2 15 -7 -1 -19 -7 -26
-15z"/>
<path d="M2197 1916 c-5 -13 0 -16 26 -15 21 1 25 3 12 6 -11 3 -23 10 -26 15
-3 5 -9 3 -12 -6z"/>
<path d="M2396 1921 c-3 -4 6 -6 19 -3 14 2 25 6 25 8 0 8 -39 4 -44 -5z"/>
<path d="M360 1911 c0 -5 9 -7 20 -4 11 3 20 7 20 9 0 2 -9 4 -20 4 -11 0 -20
-4 -20 -9z"/>
<path d="M2313 1913 c15 -2 37 -2 50 0 12 2 0 4 -28 4 -27 0 -38 -2 -22 -4z"/>
<path d="M613 1901 c-87 -9 -91 -22 -5 -19 51 1 72 6 72 15 0 7 -1 12 -2 11
-2 0 -31 -4 -65 -7z"/>
<path d="M705 1900 c3 -5 11 -10 16 -10 6 0 7 5 4 10 -3 6 -11 10 -16 10 -6 0
-7 -4 -4 -10z"/>
<path d="M1648 1903 c6 -2 18 -2 25 0 6 3 1 5 -13 5 -14 0 -19 -2 -12 -5z"/>
<path d="M1890 1900 c-9 -6 -10 -10 -3 -10 6 0 15 5 18 10 8 12 4 12 -15 0z"/>
<path d="M1925 1900 c3 -5 11 -10 16 -10 6 0 7 5 4 10 -3 6 -11 10 -16 10 -6
0 -7 -4 -4 -10z"/>
<path d="M2138 1903 c6 -2 18 -2 25 0 6 3 1 5 -13 5 -14 0 -19 -2 -12 -5z"/>
<path d="M1480 1889 c0 -5 9 -9 20 -9 11 0 20 2 20 4 0 2 -9 6 -20 9 -11 3
-20 1 -20 -4z"/>
<path d="M1590 1896 c0 -2 7 -6 15 -10 8 -3 15 -1 15 4 0 6 -7 10 -15 10 -8 0
-15 -2 -15 -4z"/>
<path d="M1715 1890 c3 -5 10 -10 16 -10 5 0 9 5 9 10 0 6 -7 10 -16 10 -8 0
-12 -4 -9 -10z"/>
<path d="M1803 1893 c9 -2 23 -2 30 0 6 3 -1 5 -18 5 -16 0 -22 -2 -12 -5z"/>
<path d="M410 1879 c-36 -4 -101 -11 -145 -14 -44 -3 -109 -8 -145 -11 -36 -3
-77 -7 -92 -7 -25 -2 -42 -27 -18 -27 6 0 10 -7 10 -15 0 -8 -4 -15 -10 -15
-6 0 -10 -43 -10 -109 0 -104 1 -109 22 -115 35 -9 57 -6 33 4 -11 5 -14 9 -6
9 8 1 20 9 27 19 12 16 14 16 33 -5 18 -19 51 -23 51 -6 0 3 -7 3 -15 -1 -19
-7 -20 18 -1 33 19 16 56 22 56 9 0 -5 -6 -8 -14 -5 -8 3 -20 0 -26 -8 -17
-20 10 -25 39 -7 13 9 45 16 75 16 l51 -1 -38 10 c-25 6 -37 14 -33 23 3 7 -4
14 -17 17 -12 2 5 5 37 6 43 1 62 6 72 19 8 10 13 12 14 5 0 -8 14 -13 38 -13
27 0 33 -3 22 -10 -12 -8 -11 -10 8 -10 13 0 22 6 22 15 0 9 -10 15 -26 15
-20 0 -25 4 -20 17 6 15 5 15 -13 -1 -18 -17 -20 -17 -30 1 -6 10 -11 12 -11
6 0 -7 -7 -13 -16 -13 -8 0 -12 -4 -9 -10 3 -5 2 -10 -4 -10 -5 0 -11 5 -13
11 -2 6 -28 11 -58 13 -43 1 -56 6 -58 19 -3 14 4 17 40 16 24 -1 35 -3 26 -6
-35 -9 -17 -19 31 -19 36 1 47 4 40 13 -16 18 2 23 127 38 64 7 122 19 128 26
8 9 6 10 -9 5 -24 -9 -139 -24 -247 -33 -55 -4 -78 -2 -78 5 0 8 -8 9 -26 2
-15 -6 -42 -8 -60 -4 -22 4 -40 2 -49 -6 -9 -7 -18 -10 -21 -7 -3 3 -17 2 -30
-3 -15 -6 -26 -5 -30 2 -4 7 -3 8 5 4 6 -4 14 0 17 8 3 9 10 14 14 11 5 -3 6
5 3 17 -3 15 -2 19 4 11 10 -14 56 -6 47 8 -3 5 -1 9 4 9 6 0 13 -7 16 -16 5
-13 9 -14 21 -4 8 7 12 16 9 21 -3 5 -2 9 3 10 4 0 37 2 73 3 59 3 159 13 202
19 10 2 20 6 24 9 3 4 12 4 19 2 7 -3 16 -1 20 5 7 12 -8 12 -105 0z m-352
-76 c-5 -25 -28 -28 -28 -4 0 12 6 21 16 21 9 0 14 -7 12 -17z m182 -159 c0
-2 -7 -4 -15 -4 -8 0 -15 4 -15 10 0 5 7 7 15 4 8 -4 15 -8 15 -10z m-160 -14
c0 -5 -5 -10 -11 -10 -5 0 -7 5 -4 10 3 6 8 10 11 10 2 0 4 -4 4 -10z m50 -4
c-7 -7 -14 -6 -21 1 -9 9 -7 12 9 10 14 -1 18 -5 12 -11z"/>
<path d="M430 1840 c0 -6 7 -10 15 -10 8 0 15 2 15 4 0 2 -7 6 -15 10 -8 3
-15 1 -15 -4z"/>
<path d="M1498 1833 c7 -3 16 -2 19 1 4 3 -2 6 -13 5 -11 0 -14 -3 -6 -6z"/>
<path d="M2223 1833 c9 -2 23 -2 30 0 6 3 -1 5 -18 5 -16 0 -22 -2 -12 -5z"/>
<path d="M2410 1830 c-9 -6 -10 -10 -3 -10 6 0 15 5 18 10 8 12 4 12 -15 0z"/>
<path d="M220 1819 c0 -5 5 -7 10 -4 6 3 10 8 10 11 0 2 -4 4 -10 4 -5 0 -10
-5 -10 -11z"/>
<path d="M1948 1823 c7 -3 16 -2 19 1 4 3 -2 6 -13 5 -11 0 -14 -3 -6 -6z"/>
<path d="M2013 1823 c9 -2 23 -2 30 0 6 3 -1 5 -18 5 -16 0 -22 -2 -12 -5z"/>
<path d="M478 1813 c6 -2 18 -2 25 0 6 3 1 5 -13 5 -14 0 -19 -2 -12 -5z"/>
<path d="M1723 1813 c9 -2 25 -2 35 0 9 3 1 5 -18 5 -19 0 -27 -2 -17 -5z"/>
<path d="M1863 1813 c9 -2 23 -2 30 0 6 3 -1 5 -18 5 -16 0 -22 -2 -12 -5z"/>
<path d="M403 1803 c9 -2 23 -2 30 0 6 3 -1 5 -18 5 -16 0 -22 -2 -12 -5z"/>
<path d="M268 1783 c6 -2 18 -2 25 0 6 3 1 5 -13 5 -14 0 -19 -2 -12 -5z"/>
<path d="M1218 1773 c7 -3 16 -2 19 1 4 3 -2 6 -13 5 -11 0 -14 -3 -6 -6z"/>
<path d="M600 1756 c0 -2 9 -6 20 -9 11 -3 18 -1 14 4 -5 9 -34 13 -34 5z"/>
<path d="M1187 1731 c-4 -17 -3 -21 5 -13 5 5 8 16 6 23 -3 8 -7 3 -11 -10z"/>
<path d="M2404 1729 c-4 -8 58 0 65 7 3 3 -10 3 -28 2 -18 -1 -34 -5 -37 -9z"/>
<path d="M598 1716 c-14 -8 -46 -17 -69 -20 -23 -3 -45 -9 -48 -12 -3 -4 19
-3 49 1 30 4 67 8 82 8 15 0 25 4 22 9 -3 5 -11 6 -17 2 -7 -3 -3 2 7 10 24
20 10 21 -26 2z"/>
<path d="M690 1711 c0 -5 -10 -7 -22 -5 -23 5 -23 4 0 -6 18 -7 27 -6 38 5 14
13 14 15 0 15 -9 0 -16 -4 -16 -9z"/>
<path d="M752 1710 c10 -6 25 -7 40 -1 20 9 18 10 -17 10 -31 0 -36 -2 -23 -9z"/>
<path d="M287 1649 c7 -7 15 -10 18 -7 3 3 -2 9 -12 12 -14 6 -15 5 -6 -5z"/>
<path d="M2568 1648 c5 -5 16 -8 23 -6 8 3 3 7 -10 11 -17 4 -21 3 -13 -5z"/>
<path d="M528 1643 c7 -3 16 -2 19 1 4 3 -2 6 -13 5 -11 0 -14 -3 -6 -6z"/>
<path d="M2393 1643 c9 -2 23 -2 30 0 6 3 -1 5 -18 5 -16 0 -22 -2 -12 -5z"/>
<path d="M2441 1646 c8 -8 88 -10 95 -3 4 4 -17 7 -46 7 -29 0 -51 -2 -49 -4z"/>
<path d="M398 1633 c6 -2 18 -2 25 0 6 3 1 5 -13 5 -14 0 -19 -2 -12 -5z"/>
<path d="M2108 1633 c6 -2 18 -2 25 0 6 3 1 5 -13 5 -14 0 -19 -2 -12 -5z"/>
<path d="M2256 1624 c-5 -13 -3 -14 6 -6 7 5 27 12 43 15 28 4 28 4 -6 6 -26
1 -39 -4 -43 -15z"/>
<path d="M2348 1633 c7 -3 16 -2 19 1 4 3 -2 6 -13 5 -11 0 -14 -3 -6 -6z"/>
<path d="M565 1620 c-16 -7 -17 -9 -3 -9 9 -1 20 4 23 9 7 11 7 11 -20 0z"/>
<path d="M2428 1623 c7 -3 16 -2 19 1 4 3 -2 6 -13 5 -11 0 -14 -3 -6 -6z"/>
<path d="M1133 1580 c0 -25 2 -35 4 -22 2 12 2 32 0 45 -2 12 -4 2 -4 -23z"/>
<path d="M365 1600 c-13 -6 -15 -9 -5 -9 8 0 22 4 30 9 18 12 2 12 -25 0z"/>
<path d="M468 1603 c7 -3 16 -2 19 1 4 3 -2 6 -13 5 -11 0 -14 -3 -6 -6z"/>
<path d="M1222 1585 c0 -16 2 -22 5 -12 2 9 2 23 0 30 -3 6 -5 -1 -5 -18z"/>
<path d="M2065 1600 c19 -8 93 -14 84 -6 -2 2 -26 6 -54 9 -32 4 -43 3 -30 -3z"/>
<path d="M2498 1603 c7 -3 16 -2 19 1 4 3 -2 6 -13 5 -11 0 -14 -3 -6 -6z"/>
<path d="M1718 1593 c12 -2 30 -2 40 0 9 3 -1 5 -23 4 -22 0 -30 -2 -17 -4z"/>
<path d="M1162 1570 c0 -14 2 -19 5 -12 2 6 2 18 0 25 -3 6 -5 1 -5 -13z"/>
<path d="M2380 1580 c8 -5 35 -10 60 -10 60 0 34 17 -29 18 -33 1 -42 -1 -31
-8z"/>
<path d="M2524 1571 c1 -13 -14 -16 -89 -19 -49 -2 -94 -8 -100 -14 -7 -8 -6
-9 4 -3 9 5 12 4 7 -3 -8 -14 -62 -16 -70 -3 -3 4 -36 8 -73 9 -37 0 -60 -2
-50 -5 9 -2 17 -9 17 -14 0 -6 -4 -8 -9 -5 -5 3 -11 0 -14 -8 -3 -8 -28 -17
-57 -21 -29 -4 -63 -13 -77 -20 -13 -7 -34 -10 -46 -7 -18 5 -14 8 18 13 35 5
32 6 -25 8 -36 2 -75 4 -88 7 -16 3 -21 0 -16 -7 5 -9 -4 -10 -32 -4 -21 4
-41 10 -44 14 -3 4 -25 7 -50 8 -37 1 -39 0 -10 -4 19 -2 43 -11 52 -20 9 -8
21 -13 25 -10 5 3 15 2 23 -3 8 -5 -16 -8 -59 -9 -40 0 -77 -3 -83 -7 -5 -4
-33 -7 -62 -7 -28 0 -39 -2 -23 -4 15 -2 27 -8 27 -13 0 -12 -74 -19 -81 -7
-4 5 -16 6 -28 2 -15 -5 -21 -2 -21 9 0 18 -6 19 -35 6 -11 -5 -14 -9 -7 -9
23 -2 2 -21 -22 -21 -26 0 -36 -29 -36 -101 l0 -39 154 7 c201 8 223 -1 255
-99 7 -21 17 -35 24 -33 31 11 588 54 632 49 28 -3 68 -6 90 -7 35 -2 41 -6
46 -32 4 -17 7 59 8 168 1 151 -2 197 -11 197 -10 0 -9 3 1 9 17 11 4 34 -15
27 -8 -3 -14 -2 -14 2 0 12 14 29 30 35 8 3 -4 5 -26 5 -31 -1 -41 -5 -40 -17z
m23 -26 c0 -9 -9 -15 -21 -15 -21 1 -21 1 -2 15 24 18 23 18 23 0z m-90 -11
c-3 -3 -12 -4 -19 -1 -8 3 -5 6 6 6 11 1 17 -2 13 -5z m-64 -24 c-3 -11 -8
-20 -12 -20 -4 0 -7 9 -8 20 -1 11 4 20 12 20 8 0 11 -7 8 -20z m84 4 c-3 -3
-12 -4 -19 -1 -8 3 -5 6 6 6 11 1 17 -2 13 -5z m-123 -25 c14 -13 -141 -8
-159 5 -12 8 5 10 67 8 46 -2 87 -8 92 -13z m-417 -42 c-4 -10 2 -13 21 -10
25 3 25 2 -3 -7 -29 -9 -51 3 -39 22 9 14 26 9 21 -5z m123 -7 c-14 -4 -36 -8
-50 -8 -37 -1 3 14 43 15 30 1 30 1 7 -7z m-150 -16 c0 -2 -9 -4 -21 -4 -11 0
-18 4 -14 10 5 8 35 3 35 -6z m-230 -13 c0 -5 -9 -7 -20 -4 -11 3 -20 7 -20 9
0 2 9 4 20 4 11 0 20 -4 20 -9z m820 5 c0 -3 -4 -8 -10 -11 -5 -3 -10 -1 -10
4 0 6 5 11 10 11 6 0 10 -2 10 -4z m-970 -21 c0 -9 -9 -15 -22 -15 -21 0 -21
0 -2 15 24 18 24 18 24 0z m40 -10 c-7 -8 -17 -15 -23 -15 -6 0 -2 7 9 15 25
19 30 19 14 0z m-71 -72 c-6 -7 -15 -10 -20 -7 -13 8 -3 21 15 21 12 0 13 -4
5 -14z m136 7 c-3 -5 -25 -10 -48 -9 -33 0 -38 2 -22 9 28 12 78 12 70 0z
m165 -9 c-8 -5 -42 -12 -75 -15 l-60 -6 45 14 c53 16 114 20 90 7z"/>
<path d="M608 1573 c12 -2 30 -2 40 0 9 3 -1 5 -23 4 -22 0 -30 -2 -17 -4z"/>
<path d="M743 1573 c9 -2 23 -2 30 0 6 3 -1 5 -18 5 -16 0 -22 -2 -12 -5z"/>
<path d="M280 1560 c-24 -8 -23 -8 8 -9 20 -1 31 3 27 9 -3 6 -7 10 -8 9 -1
-1 -13 -5 -27 -9z"/>
<path d="M340 1560 c-13 -8 -12 -10 3 -10 9 0 17 5 17 10 0 12 -1 12 -20 0z"/>
<path d="M1433 1563 c9 -2 23 -2 30 0 6 3 -1 5 -18 5 -16 0 -22 -2 -12 -5z"/>
<path d="M1868 1563 c7 -3 16 -2 19 1 4 3 -2 6 -13 5 -11 0 -14 -3 -6 -6z"/>
<path d="M2093 1563 c9 -2 23 -2 30 0 6 3 -1 5 -18 5 -16 0 -22 -2 -12 -5z"/>
<path d="M708 1543 c7 -3 16 -2 19 1 4 3 -2 6 -13 5 -11 0 -14 -3 -6 -6z"/>
<path d="M2288 1543 c7 -3 16 -2 19 1 4 3 -2 6 -13 5 -11 0 -14 -3 -6 -6z"/>
<path d="M610 1531 c0 -5 -8 -12 -17 -14 -14 -4 -12 -5 5 -6 13 -1 22 5 22 14
0 8 -2 15 -5 15 -3 0 -5 -4 -5 -9z"/>
<path d="M830 1529 l-45 -6 38 -1 c28 -2 36 -5 31 -14 -5 -8 -1 -8 12 2 10 8
20 15 22 16 12 7 -20 9 -58 3z"/>
<path d="M1839 1529 c-22 -5 -22 -6 7 -12 33 -6 78 -1 101 12 16 8 -73 9 -108
0z"/>
<path d="M2048 1533 c7 -3 16 -2 19 1 4 3 -2 6 -13 5 -11 0 -14 -3 -6 -6z"/>
<path d="M90 1525 c-8 -2 -31 -6 -51 -9 -36 -6 -52 -36 -19 -36 9 0 22 -6 29
-12 10 -11 12 -10 9 2 -2 11 7 15 35 16 45 1 62 14 21 15 -17 1 -22 3 -11 6 9
2 17 9 17 14 0 9 -2 9 -30 4z"/>
<path d="M330 1520 c20 -13 33 -13 25 0 -3 6 -14 10 -23 10 -15 0 -15 -2 -2
-10z"/>
<path d="M630 1519 c0 -12 26 -18 41 -8 8 5 21 6 30 4 9 -3 26 -2 39 3 17 6 5
9 -43 9 -37 0 -67 -4 -67 -8z"/>
<path d="M1765 1520 c-7 -12 2 -12 30 0 19 8 19 9 -2 9 -12 1 -25 -3 -28 -9z"/>
<path d="M188 1513 c6 -2 18 -2 25 0 6 3 1 5 -13 5 -14 0 -19 -2 -12 -5z"/>
<path d="M518 1513 c7 -3 16 -2 19 1 4 3 -2 6 -13 5 -11 0 -14 -3 -6 -6z"/>
<path d="M1982 1510 c10 -6 25 -7 40 -1 20 9 18 10 -17 10 -31 0 -36 -2 -23
-9z"/>
<path d="M418 1503 c7 -3 16 -2 19 1 4 3 -2 6 -13 5 -11 0 -14 -3 -6 -6z"/>
<path d="M320 1492 c0 -6 -19 -13 -42 -15 -33 -3 -28 -4 21 -5 35 -1 62 -1 60
1 -2 1 -12 9 -21 16 -11 8 -18 9 -18 3z"/>
<path d="M1483 1493 c9 -2 23 -2 30 0 6 3 -1 5 -18 5 -16 0 -22 -2 -12 -5z"/>
<path d="M468 1483 c7 -3 16 -2 19 1 4 3 -2 6 -13 5 -11 0 -14 -3 -6 -6z"/>
<path d="M625 1480 c-3 -6 1 -7 9 -4 18 7 21 14 7 14 -6 0 -13 -4 -16 -10z"/>
<path d="M718 1483 c6 -2 18 -2 25 0 6 3 1 5 -13 5 -14 0 -19 -2 -12 -5z"/>
<path d="M75 1469 c-5 -7 136 -22 143 -14 3 3 3 7 1 9 -7 7 -140 12 -144 5z"/>
<path d="M365 1461 c-37 -5 -45 -8 -31 -14 24 -10 108 2 100 14 -3 5 -8 8 -12
7 -4 0 -29 -4 -57 -7z"/>
<path d="M460 1463 c8 -3 18 -10 21 -16 8 -12 43 -1 35 11 -2 4 -19 8 -38 9
-18 1 -26 -1 -18 -4z"/>
<path d="M1500 1466 c0 -2 9 -6 20 -9 11 -3 18 -1 14 4 -5 9 -34 13 -34 5z"/>
<path d="M5 1450 c-3 -5 3 -10 15 -10 12 0 18 5 15 10 -3 6 -10 10 -15 10 -5
0 -12 -4 -15 -10z"/>
<path d="M278 1448 c5 -5 16 -8 23 -6 8 3 3 7 -10 11 -17 4 -21 3 -13 -5z"/>
<path d="M1598 1453 c7 -3 16 -2 19 1 4 3 -2 6 -13 5 -11 0 -14 -3 -6 -6z"/>
<path d="M115 1428 c11 -6 25 -19 32 -27 9 -12 12 -12 13 -3 0 19 -25 42 -47
42 -16 -1 -16 -2 2 -12z"/>
<path d="M205 1430 c-3 -5 -2 -10 4 -10 5 0 13 5 16 10 3 6 2 10 -4 10 -5 0
-13 -4 -16 -10z"/>
<path d="M675 1430 c-29 -8 -29 -8 8 -7 20 1 37 5 37 9 0 9 -3 9 -45 -2z"/>
<path d="M743 1433 c9 -2 25 -2 35 0 9 3 1 5 -18 5 -19 0 -27 -2 -17 -5z"/>
<path d="M808 1433 c7 -3 16 -2 19 1 4 3 -2 6 -13 5 -11 0 -14 -3 -6 -6z"/>
<path d="M5 1419 c-4 -5 0 -9 7 -9 9 0 9 -3 -2 -10 -13 -8 -12 -10 5 -11 11
-1 28 -2 38 -1 9 1 17 -2 17 -7 0 -18 39 -7 44 12 4 16 2 16 -12 5 -10 -8 -13
-9 -9 -1 4 6 3 14 -3 18 -5 3 -10 1 -10 -5 0 -6 -12 -5 -35 4 -20 9 -37 11
-40 5z"/>
<path d="M240 1426 c0 -2 7 -7 16 -10 8 -3 12 -2 9 4 -6 10 -25 14 -25 6z"/>
<path d="M351 1417 c-19 -23 8 -35 72 -32 85 4 83 15 -4 15 -49 0 -69 3 -59
10 8 5 12 12 9 15 -4 3 -11 -1 -18 -8z"/>
<path d="M513 1399 c27 -16 65 -21 72 -9 3 6 -4 10 -17 11 -13 0 -34 2 -48 5
-22 3 -23 2 -7 -7z"/>
<path d="M655 1400 c3 -5 -2 -10 -12 -11 -16 0 -16 -1 2 -9 11 -5 29 -9 40 -9
l20 0 -20 9 c-24 10 -15 12 45 10 62 -2 48 6 -23 14 -39 4 -56 3 -52 -4z"/>
<path d="M1180 1363 c0 -55 5 -54 14 5 4 26 2 42 -4 42 -5 0 -10 -21 -10 -47z"/>
<path d="M314 1389 c-4 -7 -3 -10 3 -6 6 4 16 0 22 -7 10 -11 8 -15 -6 -19
-10 -3 19 -4 64 -3 99 2 122 14 27 15 -46 0 -72 5 -84 16 -14 12 -20 13 -26 4z"/>
<path d="M180 1380 c0 -5 7 -10 16 -10 8 0 12 5 9 10 -3 6 -10 10 -16 10 -5 0
-9 -4 -9 -10z"/>
<path d="M220 1380 c0 -5 5 -10 11 -10 5 0 7 5 4 10 -3 6 -8 10 -11 10 -2 0
-4 -4 -4 -10z"/>
<path d="M530 1361 c0 -4 11 -6 25 -3 14 2 25 6 25 8 0 2 -11 4 -25 4 -14 0
-25 -4 -25 -9z"/>
<path d="M618 1363 c7 -3 16 -2 19 1 4 3 -2 6 -13 5 -11 0 -14 -3 -6 -6z"/>
<path d="M808 1363 c6 -2 18 -2 25 0 6 3 1 5 -13 5 -14 0 -19 -2 -12 -5z"/>
<path d="M416 1297 c3 -8 -9 -12 -41 -10 -25 0 -45 -2 -45 -6 0 -9 82 -8 97 2
7 4 21 3 31 -2 24 -13 64 10 42 24 -9 5 -11 4 -6 -3 6 -11 -30 -9 -71 3 -7 2
-10 -1 -7 -8z"/>
<path d="M358 1253 c7 -3 16 -2 19 1 4 3 -2 6 -13 5 -11 0 -14 -3 -6 -6z"/>
<path d="M1520 1164 c0 -10 5 -26 10 -34 8 -11 9 -7 4 15 -8 37 -14 45 -14 19z"/>
<path d="M1552 1155 c0 -16 2 -22 5 -12 2 9 2 23 0 30 -3 6 -5 -1 -5 -18z"/>
<path d="M1387 1163 c-13 -12 -7 -41 10 -47 21 -8 48 17 40 38 -6 16 -38 22
-50 9z m38 -23 c0 -22 -29 -18 -33 3 -3 14 1 18 15 15 10 -2 18 -10 18 -18z"/>
<path d="M1451 1163 c0 -5 4 -17 9 -28 8 -17 8 -16 7 8 -1 15 -5 27 -9 27 -4
0 -8 -3 -7 -7z"/>
<path d="M1496 1156 c4 -11 2 -21 -7 -27 -10 -6 -11 -9 -1 -9 18 0 27 29 13
43 -9 9 -11 8 -5 -7z"/>
<path d="M1202 1131 c-6 -18 -7 -29 -2 -26 6 4 10 14 10 23 1 15 2 15 15 -2 8
-11 17 -18 19 -15 3 2 -3 15 -13 28 l-18 24 -11 -32z"/>
<path d="M1260 1133 c0 -16 4 -23 8 -17 4 6 14 14 22 17 11 4 10 6 -5 6 -17 1
-17 3 -5 11 13 8 12 10 -2 10 -13 0 -18 -8 -18 -27z"/>
<path d="M1320 1133 c0 -21 3 -24 9 -14 5 8 7 20 4 28 -8 21 -13 15 -13 -14z"/>
<path d="M1120 1131 c0 -11 3 -22 8 -24 4 -3 7 6 7 19 0 13 -3 24 -7 24 -5 0
-8 -9 -8 -19z"/>
<path d="M1160 1143 c5 -2 10 -11 10 -18 0 -7 -5 -16 -10 -18 -6 -3 -5 -4 2
-3 7 2 13 11 13 21 0 10 -6 19 -13 21 -7 1 -8 0 -2 -3z"/>
<path d="M1342 1030 c0 -14 2 -19 5 -12 2 6 2 18 0 25 -3 6 -5 1 -5 -13z"/>
<path d="M1367 1029 c4 -13 8 -18 11 -10 2 7 -1 18 -6 23 -8 8 -9 4 -5 -13z"/>
<path d="M1181 1024 c0 -11 3 -14 6 -6 3 7 2 16 -1 19 -3 4 -6 -2 -5 -13z"/>
<path d="M1222 1020 c0 -14 2 -19 5 -12 2 6 2 18 0 25 -3 6 -5 1 -5 -13z"/>
<path d="M1281 1024 c0 -11 3 -14 6 -6 3 7 2 16 -1 19 -3 4 -6 -2 -5 -13z"/>
<path d="M1435 1029 c-4 -6 -4 -13 -1 -16 3 -4 6 -1 6 6 0 7 5 9 12 5 7 -4 8
-3 4 4 -9 15 -13 15 -21 1z"/>
<path d="M1781 978 c-1 -56 2 -68 15 -68 14 0 15 7 9 46 -12 85 -24 95 -24 22z"/>
<path d="M953 900 c5 -110 19 -166 38 -155 6 4 8 19 5 34 -3 18 0 14 11 -11 9
-21 20 -38 25 -38 5 0 6 4 3 10 -4 6 2 7 17 1 13 -5 22 -16 21 -26 -1 -12 2
-14 9 -7 8 8 15 6 26 -4 19 -20 27 -11 13 14 -6 12 -11 30 -11 41 0 12 -7 21
-15 21 -18 0 -20 -16 -2 -23 7 -3 5 -6 -5 -6 -10 -1 -18 4 -18 10 0 7 -10 9
-25 7 -26 -5 -30 3 -26 58 1 11 -12 38 -29 59 -30 37 -30 40 -13 53 10 7 30
12 45 9 34 -4 27 9 -9 18 -16 3 -37 14 -47 23 -18 17 -19 14 -13 -88z m37 -85
c0 -5 -5 -3 -10 5 -5 8 -10 20 -10 25 0 6 5 3 10 -5 5 -8 10 -19 10 -25z"/>
<path d="M195 960 c-3 -5 -1 -10 4 -10 6 0 11 5 11 10 0 6 -2 10 -4 10 -3 0
-8 -4 -11 -10z"/>
<path d="M1632 950 c0 -14 2 -19 5 -12 2 6 2 18 0 25 -3 6 -5 1 -5 -13z"/>
<path d="M40 945 c7 -8 17 -12 22 -9 6 4 5 10 -3 15 -22 14 -33 10 -19 -6z"/>
<path d="M1161 944 c0 -11 3 -14 6 -6 3 7 2 16 -1 19 -3 4 -6 -2 -5 -13z"/>
<path d="M1201 944 c0 -11 3 -14 6 -6 3 7 2 16 -1 19 -3 4 -6 -2 -5 -13z"/>
<path d="M1401 944 c0 -11 3 -14 6 -6 3 7 2 16 -1 19 -3 4 -6 -2 -5 -13z"/>
<path d="M1481 944 c0 -11 3 -14 6 -6 3 7 2 16 -1 19 -3 4 -6 -2 -5 -13z"/>
<path d="M1860 858 c0 -24 -7 -79 -14 -123 -43 -234 -86 -459 -91 -463 -2 -3
-27 -11 -56 -18 -44 -12 -54 -11 -75 2 -28 19 -30 36 -8 58 11 12 20 13 34 6
24 -13 37 5 19 26 -9 11 -8 18 5 32 9 10 16 24 16 31 0 6 15 14 33 18 31 7 31
7 7 13 -18 4 -26 14 -28 33 -5 38 -17 33 -19 -8 -2 -53 -24 -88 -58 -96 -16
-4 -48 -16 -70 -28 -36 -19 -37 -21 -13 -21 29 0 53 -23 45 -44 -4 -9 3 -16
16 -20 12 -3 18 -8 15 -12 -4 -3 -21 -1 -39 5 -27 9 -33 8 -48 -10 -14 -17
-32 -22 -99 -26 -89 -6 -103 3 -54 34 32 21 44 36 33 43 -16 10 -23 50 -9 51
7 0 3 4 -9 9 -18 8 -22 15 -17 38 4 20 1 32 -12 43 -10 8 -15 9 -11 3 4 -7 1
-17 -7 -23 -11 -9 -12 -7 -9 11 3 16 -3 27 -17 36 -30 18 -33 11 -15 -31 17
-42 20 -77 5 -77 -5 0 -10 7 -10 16 0 8 -4 13 -10 9 -16 -10 1 -34 30 -40 45
-10 55 -28 36 -66 -9 -18 -16 -38 -16 -46 0 -10 -23 -13 -99 -13 l-98 0 -83
204 c-74 183 -85 203 -104 199 -18 -3 -19 -2 -5 8 15 11 14 20 -11 93 -15 45
-30 102 -34 129 -4 26 -11 47 -17 47 -5 0 -9 -4 -9 -10 0 -5 -11 -12 -25 -16
-14 -3 -25 -10 -25 -15 0 -5 -4 -9 -9 -9 -4 0 -39 -31 -77 -69 -75 -75 -94
-117 -94 -209 0 -45 27 -121 54 -152 12 -13 96 -202 96 -215 0 -3 9 -25 21
-50 11 -24 26 -66 33 -92 l12 -48 580 -3 580 -2 1 47 c0 27 4 64 7 83 4 19 9
55 11 80 3 25 10 87 16 138 6 51 9 96 5 99 -3 4 -6 -10 -6 -30 0 -20 -4 -37
-10 -37 -5 0 -7 7 -4 15 4 8 3 22 0 31 -5 14 -9 14 -24 3 -15 -13 -16 -12 -3
4 8 9 16 15 19 13 10 -11 40 42 52 92 15 63 8 127 -19 181 -23 44 -110 126
-169 159 l-42 23 0 -43z m-938 -265 c-6 -3 -9 -10 -5 -16 3 -7 3 -9 -1 -5 -4
3 -28 -5 -54 -18 -25 -13 -49 -21 -54 -16 -4 4 20 22 54 39 34 18 65 29 68 26
3 -3 -1 -8 -8 -10z m22 -58 c-7 -18 7 -20 25 -2 10 10 11 9 6 -5 -9 -23 -35
-31 -52 -16 -13 10 -12 14 3 25 23 17 25 16 18 -2z m31 -75 c3 -5 -3 -10 -14
-10 -12 0 -21 5 -21 10 0 6 6 10 14 10 8 0 18 -4 21 -10z m85 -71 c0 -5 -4 -9
-10 -9 -5 0 -10 7 -10 16 0 8 5 12 10 9 6 -3 10 -10 10 -16z m-214 -10 c19
-22 19 -22 -3 -10 -24 12 -39 31 -25 31 5 0 17 -10 28 -21z m1201 -56 c-3 -10
-5 -2 -5 17 0 19 2 27 5 18 2 -10 2 -26 0 -35z m-1000 11 c-3 -3 -12 -4 -19
-1 -8 3 -5 6 6 6 11 1 17 -2 13 -5z m990 -66 c-3 -8 -6 -5 -6 6 -1 11 2 17 5
13 3 -3 4 -12 1 -19z"/>
<path d="M1481 874 c0 -11 3 -14 6 -6 3 7 2 16 -1 19 -3 4 -6 -2 -5 -13z"/>
<path d="M1106 865 c-9 -26 -7 -32 5 -12 6 10 9 21 6 23 -2 3 -7 -2 -11 -11z"/>
<path d="M1191 864 c0 -11 3 -14 6 -6 3 7 2 16 -1 19 -3 4 -6 -2 -5 -13z"/>
<path d="M1232 860 c0 -14 2 -19 5 -12 2 6 2 18 0 25 -3 6 -5 1 -5 -13z"/>
<path d="M1308 803 c-28 -7 -23 -43 5 -43 13 0 32 -9 42 -20 17 -19 19 -19 37
-4 10 10 18 24 18 33 0 12 -2 13 -9 3 -6 -10 -12 -7 -25 12 -16 25 -31 29 -68
19z m62 -33 c6 -11 7 -20 3 -20 -5 0 -14 9 -21 20 -7 11 -8 20 -2 20 5 0 14
-9 20 -20z"/>
<path d="M1450 795 c7 -8 10 -24 7 -35 -8 -30 40 -27 65 5 11 14 26 25 34 25
8 0 14 5 14 10 0 6 -29 10 -66 10 -58 0 -65 -2 -54 -15z"/>
<path d="M1595 767 c-5 -6 -11 -21 -13 -32 -3 -18 -2 -18 13 3 10 13 26 22 43
22 21 0 24 -2 12 -10 -13 -9 -13 -10 0 -10 12 0 12 -2 2 -9 -20 -12 7 -21 33
-11 18 7 19 8 3 15 -10 4 -18 13 -18 21 0 8 -6 14 -12 14 -7 0 -22 2 -33 5
-11 3 -24 -1 -30 -8z"/>
<path d="M1195 750 c-3 -5 -2 -10 4 -10 5 0 13 5 16 10 3 6 2 10 -4 10 -5 0
-13 -4 -16 -10z"/>
<path d="M1230 745 c0 -8 2 -15 4 -15 2 0 6 7 10 15 3 8 1 15 -4 15 -6 0 -10
-7 -10 -15z"/>
<path d="M1524 699 c-3 -6 0 -15 7 -20 12 -7 12 -12 1 -26 -7 -10 -15 -26 -18
-35 -8 -22 -43 -33 -57 -19 -15 15 -30 14 -24 -2 3 -7 -1 -21 -9 -31 -7 -11
-11 -22 -9 -26 2 -4 -3 -7 -11 -7 -10 0 -11 4 -4 11 19 19 10 29 -10 11 -20
-18 -20 -17 -21 11 l-1 29 -7 -30 c-4 -16 -3 -33 3 -36 5 -4 6 -16 3 -28 -3
-12 -4 -21 -2 -21 21 0 93 36 112 56 15 17 31 24 43 21 17 -4 18 -2 9 15 -7
12 -7 23 -2 27 5 3 12 14 16 24 4 10 12 17 19 16 7 -1 21 -1 31 0 15 1 15 3
-3 21 -11 11 -20 25 -20 31 0 6 -7 8 -16 5 -8 -3 -12 -2 -9 4 3 6 2 10 -4 10
-5 0 -13 -5 -17 -11z"/>
<path d="M1265 677 c-4 -12 -8 -24 -9 -27 -1 -3 -7 -15 -14 -27 -11 -19 -10
-23 3 -23 8 0 14 5 13 12 -2 6 12 22 31 35 29 20 28 29 -2 24 -5 -1 -6 3 -3 8
4 5 2 12 -3 15 -5 3 -12 -4 -16 -17z"/>
<path d="M1190 680 c0 -5 5 -10 11 -10 5 0 7 5 4 10 -3 6 -8 10 -11 10 -2 0
-4 -4 -4 -10z"/>
<path d="M1760 670 c0 -11 7 -20 15 -20 8 0 15 9 15 20 0 11 -7 20 -15 20 -8
0 -15 -9 -15 -20z"/>
<path d="M30 663 c5 -2 8 -9 4 -14 -3 -5 0 -9 6 -9 15 0 7 23 -8 26 -7 1 -8 0
-2 -3z"/>
<path d="M0 644 c0 -8 5 -12 10 -9 6 4 8 11 5 16 -9 14 -15 11 -15 -7z"/>
<path d="M1010 651 c0 -5 5 -13 10 -16 6 -3 10 -2 10 4 0 5 -4 13 -10 16 -5 3
-10 2 -10 -4z"/>
<path d="M1670 642 c0 -6 -10 -8 -22 -4 -17 4 -20 2 -15 -12 4 -10 7 -19 7
-22 0 -2 7 -1 17 3 13 5 15 2 11 -15 -6 -23 5 -20 47 12 17 13 18 15 3 16 -9
0 -24 7 -32 16 -9 8 -16 11 -16 6z"/>
<path d="M1060 629 c0 -5 5 -7 10 -4 6 3 10 8 10 11 0 2 -4 4 -10 4 -5 0 -10
-5 -10 -11z"/>
<path d="M1120 620 c0 -5 7 -10 16 -10 8 0 12 5 9 10 -3 6 -10 10 -16 10 -5 0
-9 -4 -9 -10z"/>
<path d="M1060 590 c0 -5 5 -10 10 -10 6 0 10 5 10 10 0 6 -4 10 -10 10 -5 0
-10 -4 -10 -10z"/>
<path d="M1291 576 c6 -13 21 -27 32 -30 15 -4 17 -2 8 7 -6 6 -11 19 -11 29
0 11 -7 18 -20 18 -17 0 -18 -3 -9 -24z"/>
<path d="M1046 557 c3 -10 9 -15 12 -12 3 3 0 11 -7 18 -10 9 -11 8 -5 -6z"/>
<path d="M1569 527 c5 -5 17 -5 28 2 16 9 15 10 -9 9 -16 -2 -24 -6 -19 -11z"/>
<path d="M1647 526 c-4 -9 -3 -26 2 -38 8 -21 8 -21 13 4 6 32 -6 58 -15 34z"/>
<path d="M1186 502 c-3 -5 1 -9 9 -9 8 0 12 4 9 9 -3 4 -7 8 -9 8 -2 0 -6 -4
-9 -8z"/>
<path d="M1493 454 c-7 -3 -13 -10 -13 -15 0 -6 5 -7 12 -3 20 13 62 13 71 1
6 -8 7 -7 4 3 -4 15 -51 24 -74 14z"/>
<path d="M1205 380 c-3 -5 -16 -10 -28 -10 -16 0 -18 -3 -9 -12 8 -8 15 -8 26
1 8 7 27 16 43 21 l28 8 -27 1 c-15 1 -30 -3 -33 -9z"/>
<path d="M1120 370 c0 -6 7 -10 15 -10 8 0 15 2 15 4 0 2 -7 6 -15 10 -8 3
-15 1 -15 -4z"/>
<path d="M1460 340 c0 -9 31 -30 44 -30 16 0 3 18 -19 28 -14 7 -25 8 -25 2z"/>
<path d="M1430 325 c-7 -9 -11 -17 -9 -20 3 -2 10 5 17 15 14 24 10 26 -8 5z"/>
<path d="M2060 99 c0 -11 5 -17 10 -14 6 3 10 13 10 21 0 8 -4 14 -10 14 -5 0
-10 -9 -10 -21z"/>
</g>
</svg>
