<svg width="179" height="82" viewBox="0 0 179 82" fill="none" xmlns="http://www.w3.org/2000/svg">
<g filter="url(#filter0_f_11:305)">
<path d="M2.28334 38.5478V40.0366L3.75449 40.2648C24.9056 43.546 42.0769 51.005 52.4942 55.9936C62.829 60.9426 75.1119 68.8702 88.2533 78.6839L89.261 79.4364L90.2907 78.7141C92.7331 77.0007 94.9474 75.3942 97.0785 73.8481C105.674 67.612 112.914 62.3588 128.303 55.0429C147.525 45.9046 164.129 41.6299 175.089 40.2721L176.613 40.0834V38.5478V38.4523V38.357V38.262V38.1672V38.0726V37.9782V37.884V37.7901V37.6964V37.6029V37.5096V37.4166V37.3238V37.2312V37.1388V37.0466V36.9547V36.8629V36.7714V36.6801V36.589V36.4981V36.4075V36.317V36.2268V36.1367V36.0469V35.9573V35.8679V35.7787V35.6897V35.601V35.5124V35.424V35.3359V35.2479V35.1602V35.0726V34.9853V34.8981V34.8112V34.7244V34.6379V34.5515V34.4654V34.3794V34.2936V34.2081V34.1227V34.0375V33.9526V33.8678V33.7832V33.6988V33.6146V33.5306V33.4467V33.3631V33.2796V33.1964V33.1133V33.0304V32.9477V32.8652V32.7829V32.7007V32.6187V32.537V32.4554V32.3739V32.2927V32.2116V32.1307V32.05V31.9695V31.8892V31.809V31.729V31.6492V31.5695V31.49V31.4107V31.3316V31.2526V31.1738V31.0952V31.0168V30.9385V30.8604V30.7824V30.7047V30.627V30.5496V30.4723V30.3952V30.3182V30.2414V30.1648V30.0883V30.012V29.9359V29.8599V29.7841V29.7084V29.6329V29.5575V29.4823V29.4072V29.3324V29.2576V29.183V29.1086V29.0343V28.9602V28.8862V28.8124V28.7387V28.6651V28.5918V28.5185V28.4454V28.3725V28.2997V28.227V28.1545V28.0821V28.0099V27.9378V27.8658V27.794V27.7224V27.6508V27.5794V27.5082V27.4371V27.3661V27.2952V27.2245V27.154V27.0835V27.0132V26.943V26.873V26.8031V26.7333V26.6636V26.5941V26.5247V26.4554V26.3863V26.3172V26.2483V26.1796V26.1109V26.0424V25.974V25.9057V25.8376V25.7695V25.7016V25.6338V25.5661V25.4986V25.4311V25.3638V25.2966V25.2295V25.1625V25.0956V25.0288V24.9622V24.8957V24.8292V24.7629V24.6967V24.6306V24.5646V24.4988V24.433V24.3673V24.3018V24.2363V24.1709V24.1057V24.0406V23.9755V23.9106V23.8457V23.781V23.7163V23.6518V23.5874V23.523V23.4588V23.3946V23.3305V23.2666V23.2027V23.1389V23.0752V23.0116V22.9481V22.8847V22.8214V22.7582V22.695V22.632V22.569V22.5061V22.4433V22.3806V22.318V22.2554V22.193V22.1306V22.0683V22.0061V21.944V21.8819V21.8199V21.758V21.6962V21.6345V21.5728V21.5112V21.4497V21.3882V21.3269V21.2656V21.2043V21.1432V21.0821V21.0211V20.9601V20.8993V20.8385V20.7777V20.7171V20.6565V20.5959V20.5354V20.475V20.4147V20.3544V20.2942V20.234V20.1739V20.1139V20.0539V19.994V19.9341V19.8743V19.8145V19.7548V19.6952V19.6356V19.5761V19.5166V19.4572V19.3978V19.3385V19.2792V19.22V19.1608V19.1017V19.0426V18.9835V18.9246V18.8656V18.8067V18.7479V18.6891V18.6303V18.5716V18.5129V18.4543V18.3957V18.3371V18.2786V18.2201V18.1616V18.1032V18.0449V17.9865V17.9282V17.87V17.8117V17.7535V17.6954V17.6372V17.5791V17.521V17.463V17.405V17.347V17.289V17.2311V17.1732V17.1153V17.0574V16.9996V16.9417V16.884V16.8262V16.7684V16.7107V16.653V16.5953V16.5376V16.48V16.4223V16.3647V16.3071V16.2495V16.1919V16.1344V16.0768V16.0193V15.9618V15.9043V15.8468V15.7893V15.7318V15.6743V15.6168V15.5594V15.5019V15.4445V15.387V15.3296V15.2721V15.2147V15.1573V15.0998V15.0424V14.985V14.9275V14.8701V14.8127V14.7552V14.6978V14.6404V14.5829V14.5254V14.468V14.4105V14.353V14.2956V14.2381V14.1806V14.1231V14.0655V14.008V13.9505V13.8929V13.8353V13.7777V13.7201V13.6625V13.6049V13.5472V13.4896V13.4319V13.3742V13.3165V13.2587V13.2009V13.1432V13.0854V13.0275V12.9697V12.9118V12.8539V12.7959V12.738V12.68V12.622V12.5639V12.5059V12.4478V12.3896V12.3315V12.2733V12.2151V12.1568V12.0985V12.0402V11.9818V11.9234V11.865V11.8065V11.748V11.6894V11.6309V11.5722V11.5136V11.4548V11.3961V11.3373V11.2785V11.2196V11.1606V11.1017V11.0426V10.9836V10.9245V10.8653V10.8061V10.7468V10.6875V10.6282V10.5687V10.5093V10.4497V10.3902V10.3305V10.2709V10.2111V10.1513V10.0915V10.0316V9.97161V9.91158V9.85149V9.79135V9.73114V9.67087V9.61054V9.55014V9.48968V9.42916V9.36857V9.30791V9.24719V9.1864V9.12555V9.06462V9.00363V8.94256V8.88143V8.82022V8.75894V8.69759V8.63617V8.57467V8.51309V8.45145V8.38972V8.32792V8.26604V8.20408V8.14205V8.07993V8.01774V7.95546V7.8931V7.83066V7.76814V7.70553V7.64284V7.58007V7.5172V7.45426V7.39122V7.3281V7.26489V7.20159V7.1382V7.07472V7.01115V6.94749V6.88373V6.81989V6.75594V6.69191V6.62778V6.56355V6.49923V6.43481V6.37029V6.30567V6.24096V6.17614V6.11122V6.04621V5.98109V5.91586V5.85054V5.78511V5.71957V5.65393V5.58819V5.52234V5.45638V5.39031V5.32413V5.25785V5.19145V5.12494V5.05833V4.9916V4.92475V4.8578V4.79073V4.72354V4.65624V4.58882V4.52129V4.45364V4.38587V4.31798V4.24997V2.51247H174.875C160.557 2.51247 144.35 8.1816 130.438 13.4214C118.586 17.8853 106.485 25.7073 95.0159 33.1211C93.0833 34.3704 91.1686 35.6081 89.276 36.8161C85.7307 34.6308 82.5905 32.598 79.5831 30.6511C71.7512 25.5812 64.82 21.0943 53.982 16.0148C46.2441 12.3881 36.6263 9.07932 27.5471 6.67635C18.4978 4.28129 9.82962 2.7448 4.02084 2.7448H2.28334L2.28334 4.4823V38.5478Z" fill="#FED007" stroke="black" stroke-width="3.475"/>
</g>
<g filter="url(#filter1_f_11:305)">
<path d="M14.1832 22.8802C14.1832 22.7453 14.2377 22.6162 14.3343 22.5221L19.7568 17.2409C19.884 17.117 20.0674 17.0699 20.2386 17.1171L23.0177 17.8838C23.3943 17.9877 23.5116 18.4641 23.2262 18.731L18.1526 23.4757C18.0515 23.5703 17.9941 23.7025 17.9941 23.8409V29.3935C17.9941 29.7202 17.686 29.9591 17.3697 29.8778L14.5588 29.1557C14.3377 29.0989 14.1832 28.8996 14.1832 28.6714V22.8802Z" fill="#967B00"/>
<path d="M19 24.2045C19 24.0649 19.0583 23.9317 19.1609 23.8371L24.8098 18.6246C24.9433 18.5014 25.1331 18.4603 25.3055 18.5172L27.5191 19.2475C27.8753 19.365 27.9801 19.8182 27.7117 20.0801L22.8475 24.8272C22.7511 24.9213 22.6967 25.0503 22.6967 25.185V30.7553C22.6967 31.0888 22.3765 31.3288 22.0564 31.2353L19.3597 30.4472C19.1465 30.3849 19 30.1894 19 29.9673V24.2045Z" fill="#967B00"/>
<path d="M23.8168 25.3786C23.8168 25.2427 23.8721 25.1126 23.97 25.0184L29.1497 20.0319C29.2906 19.8962 29.4978 19.8552 29.6798 19.9269L32.1711 20.9091C32.509 21.0423 32.5966 21.48 32.336 21.733L27.7794 26.1561C27.6824 26.2503 27.6277 26.3797 27.6277 26.5149L27.6277 32.3865C27.6277 32.7267 27.2952 32.9676 26.9719 32.8616L24.161 31.9403C23.9557 31.873 23.8168 31.6813 23.8168 31.4652V25.3786Z" fill="#967B00"/>
<path d="M28.6991 26.9052C28.6991 26.7714 28.7528 26.6431 28.8481 26.5492L33.7023 21.7638C33.8455 21.6226 34.0593 21.581 34.2449 21.658L36.4024 22.5531C36.7363 22.6917 36.8174 23.1278 36.5555 23.3771L32.1247 27.5948C32.0255 27.6892 31.9694 27.8201 31.9694 27.9569V33.8566C31.9694 34.2012 31.629 34.4425 31.3038 34.3284L29.0336 33.5315C28.8332 33.4612 28.6991 33.2721 28.6991 33.0597V26.9052Z" fill="#967B00"/>
<path d="M33 28.3665C33 28.227 33.0583 28.0939 33.1607 27.9992L37.9896 23.5385C38.1335 23.4055 38.342 23.3689 38.5227 23.4449L41.1241 24.539C41.4589 24.6798 41.5366 25.1192 41.2705 25.3663L36.6437 29.6612C36.5418 29.7558 36.4839 29.8885 36.4839 30.0276V35.6079C36.4839 35.9629 36.1242 36.2048 35.7954 36.071L33.3115 35.0601C33.1232 34.9834 33 34.8003 33 34.597V28.3665Z" fill="#967B00"/>
<path d="M37.6455 30.5694C37.6455 30.4249 37.7079 30.2876 37.8168 30.1926L43.0132 25.6589C43.1611 25.5299 43.3708 25.4993 43.5494 25.5808L46.03 26.7127C46.3601 26.8633 46.4249 27.3042 46.1522 27.5434L41.4008 31.7119C41.2926 31.8068 41.2306 31.9438 41.2306 32.0877V37.6087C41.2306 37.9702 40.8588 38.2122 40.5282 38.0659L37.9431 36.9218C37.7622 36.8417 37.6455 36.6625 37.6455 36.4646V30.5694Z" fill="#967B00"/>
<path d="M42.2987 32.5708C42.2987 32.4208 42.3661 32.2788 42.4821 32.1838L47.8781 27.7696C48.0248 27.6496 48.2267 27.6228 48.3995 27.7004L50.6956 28.7313C51.0328 28.8827 51.0948 29.335 50.8108 29.5716L46.0282 33.556C45.9141 33.651 45.8482 33.7917 45.8482 33.9402V39.7459C45.8482 40.1133 45.4652 40.3553 45.1335 40.1975L42.584 38.9851C42.4098 38.9022 42.2987 38.7265 42.2987 38.5335V32.5708Z" fill="#967B00"/>
<path d="M47.1244 34.4912C47.1244 34.3435 47.1898 34.2033 47.303 34.1083L52.4303 29.8047C52.5795 29.6795 52.7878 29.6523 52.9642 29.7351L55.2476 30.8069C55.5849 30.9652 55.6367 31.4236 55.3433 31.6533L50.4669 35.4701C50.3458 35.5649 50.2751 35.7101 50.2751 35.8638V41.8448C50.2751 42.219 49.8791 42.4606 49.5464 42.2894L47.3957 41.1833C47.2291 41.0976 47.1244 40.926 47.1244 40.7387L47.1244 34.4912Z" fill="#967B00"/>
<path d="M51.3917 36.431C51.3917 36.2722 51.4671 36.1229 51.5949 36.0287L57.0906 31.9731C57.2401 31.8628 57.4385 31.8445 57.6057 31.9255L59.9226 33.0489C60.2631 33.214 60.3039 33.6827 59.9972 33.9042L54.758 37.6869C54.6278 37.7809 54.5507 37.9317 54.5507 38.0923V43.9648C54.5507 44.3406 54.1516 44.5821 53.8187 44.4077L51.6598 43.2772C51.495 43.1909 51.3917 43.0203 51.3917 42.8343L51.3917 36.431Z" fill="#967B00"/>
<path d="M56 38.7164C56 38.5509 56.0819 38.3961 56.2187 38.303L62.0213 34.3548C62.1704 34.2534 62.3626 34.2401 62.5243 34.3201L64.785 35.4388C65.1246 35.6068 65.1612 36.0767 64.8517 36.2953L59.3004 40.2167C59.1677 40.3104 59.0889 40.4627 59.0889 40.6251V46.2677C59.0889 46.6418 58.6931 46.8834 58.3604 46.7125L56.2715 45.6395C56.1048 45.5538 56 45.3822 56 45.1947L56 38.7164Z" fill="#967B00"/>
<path d="M60.2853 41.0748C60.2853 40.9063 60.3702 40.7492 60.5111 40.6567L66.671 36.6167C66.8252 36.5156 67.0225 36.5075 67.1844 36.5957L69.6125 37.9179C69.9409 38.0968 69.964 38.5595 69.6551 38.7702L63.8504 42.7279C63.722 42.8154 63.6416 42.9577 63.6329 43.1129L63.3198 48.6628C63.2991 49.0288 62.9047 49.2489 62.5824 49.0742L60.5471 47.9712C60.3858 47.8838 60.2853 47.7151 60.2853 47.5316L60.2853 41.0748Z" fill="#967B00"/>
<path d="M64.7434 43.6541C64.7488 43.4928 64.8317 43.3441 64.966 43.2546L71.2122 39.0945C71.3748 38.9863 71.5854 38.9826 71.7517 39.085L74.1663 40.5728C74.4743 40.7626 74.4851 41.2065 74.1867 41.411L68.4585 45.336C68.334 45.4214 68.2547 45.5584 68.2427 45.7089L67.796 51.3393C67.7665 51.711 67.3552 51.9208 67.037 51.7265L64.7734 50.3445C64.6196 50.2506 64.5282 50.0812 64.5343 49.901L64.7434 43.6541Z" fill="#967B00"/>
<path d="M69.483 46.1631C69.4924 46.0038 69.5772 45.8586 69.7113 45.7722L75.7313 41.8938C75.8965 41.7874 76.1087 41.7876 76.2737 41.8943L78.777 43.5141C79.0866 43.7144 79.0803 44.1695 78.7652 44.3611L73.0201 47.8546C72.8866 47.9358 72.7987 48.0748 72.7826 48.2303L72.1717 54.1309C72.133 54.5047 71.7112 54.7038 71.3981 54.4962L69.3218 53.1198C69.1734 53.0214 69.0885 52.8514 69.099 52.6736L69.483 46.1631Z" fill="#967B00"/>
<path d="M73.9725 49.1834C73.9899 49.0302 74.0769 48.8936 74.2084 48.8132L80.4603 44.9892C80.6245 44.8887 80.8318 44.8915 80.9933 44.9962L83.8177 46.8283C84.1246 47.0274 84.1209 47.4778 83.8107 47.6717L77.7366 51.4706C77.6147 51.5469 77.5315 51.6719 77.5083 51.8138L76.6356 57.1497C76.5766 57.5105 76.1631 57.688 75.8609 57.4824L73.4839 55.8651C73.3305 55.7607 73.2475 55.5798 73.2684 55.3954L73.9725 49.1834Z" fill="#967B00"/>
<path d="M78.8693 52.239C78.8926 52.097 78.976 51.9719 79.0981 51.8957L85.1859 48.0987C85.3503 47.9961 85.5592 47.9978 85.7219 48.103L88.1307 49.6603C88.4398 49.86 88.4344 50.3139 88.1207 50.5064L82.4986 53.955C82.3783 54.0288 82.2948 54.1501 82.2687 54.2888L81.1692 60.135C81.1039 60.4825 80.7082 60.6542 80.4097 60.4646L78.0706 58.9783C77.9016 58.8709 77.813 58.6729 77.8454 58.4753L78.8693 52.239Z" fill="#967B00"/>
<path d="M83.3138 55.1658C83.3397 55.0336 83.4179 54.9174 83.5306 54.8436L87.5081 52.2396C87.8407 52.0219 88.282 52.2604 88.282 52.6579V56.7482C88.282 56.932 88.1812 57.1009 88.0195 57.1882L87.181 57.6407C87.0695 57.7009 86.9849 57.8013 86.9446 57.9215L85.319 62.7594C85.2162 63.0653 84.8549 63.1952 84.5809 63.0247L82.3721 61.6503C82.1959 61.5407 82.1057 61.3334 82.1456 61.1297L83.3138 55.1658Z" fill="#967B00"/>
<path d="M89.3186 57.883C89.2157 57.7883 89.1572 57.6549 89.1572 57.515V50.6551C89.1572 50.4771 89.2518 50.3125 89.4056 50.223L91.8058 48.8258C92.1391 48.6317 92.5573 48.8722 92.5573 49.2579V55.8884C92.5573 56.0361 92.6226 56.1762 92.7357 56.2712L97.1187 59.9537C97.3786 60.1721 97.35 60.5805 97.0621 60.7605L94.6367 62.2767C94.4458 62.396 94.1988 62.3731 94.0331 62.2207L89.3186 57.883Z" fill="#967B00"/>
<path d="M93.925 55.5597C93.8105 55.4647 93.7443 55.3236 93.7443 55.1749L93.7443 47.9344C93.7443 47.7596 93.8355 47.5975 93.985 47.5069L95.8799 46.3579C96.2131 46.1558 96.6392 46.3957 96.6392 46.7854V53.3379C96.6392 53.4875 96.7061 53.6292 96.8216 53.7242L101.258 57.3713C101.519 57.5862 101.496 57.9933 101.212 58.1773L99.2001 59.4799C99.0166 59.5987 98.7773 59.5846 98.6091 59.4451L93.925 55.5597Z" fill="#967B00"/>
<path d="M97.794 52.8827C97.6811 52.7877 97.6159 52.6476 97.6159 52.5V45.5721C97.6159 45.398 97.7064 45.2364 97.8549 45.1456L100.026 43.817C100.365 43.6098 100.798 43.8608 100.787 44.2576L100.593 51.151C100.588 51.3049 100.655 51.4521 100.773 51.5502L104.935 54.9964C105.196 55.2125 105.171 55.6201 104.885 55.8027L103.139 56.9195C102.955 57.0374 102.715 57.0218 102.548 56.881L97.794 52.8827Z" fill="#967B00"/>
<path d="M102.187 50.9574C102.069 50.8625 102 50.7191 102 50.5674V42.8844C102 42.7082 102.093 42.545 102.244 42.4548L104.469 41.1291C104.803 40.9306 105.225 41.1707 105.225 41.5587V48.3022C105.225 48.4472 105.288 48.5851 105.398 48.6801L109.511 52.2435C109.768 52.4659 109.733 52.8739 109.443 53.0495L107.09 54.4701C106.91 54.5786 106.682 54.5634 106.519 54.4321L102.187 50.9574Z" fill="#967B00"/>
<path d="M106.467 47.8562C106.359 47.7613 106.297 47.6246 106.297 47.4808V40.3531C106.297 40.1776 106.389 40.0148 106.54 39.9245L109.046 38.4198C109.385 38.2167 109.814 38.4671 109.803 38.8616L109.632 45.3946C109.628 45.5369 109.685 45.674 109.789 45.7716L113.97 49.7119C114.212 49.94 114.168 50.3364 113.882 50.5059L111.563 51.8799C111.377 51.9903 111.14 51.9682 110.978 51.8251L106.467 47.8562Z" fill="#967B00"/>
<path d="M111.151 44.9573C111.054 44.8632 111 44.7341 111 44.5994L111 37.6651C111 37.4841 111.098 37.3172 111.256 37.2288L113.982 35.7018C114.318 35.5136 114.732 35.7602 114.726 36.1454L114.633 42.5675C114.631 42.7042 114.685 42.8358 114.783 42.9316L118.867 46.94C119.105 47.1732 119.052 47.569 118.762 47.7324L116.069 49.2505C115.875 49.3596 115.633 49.328 115.474 49.1729L111.151 44.9573Z" fill="#967B00"/>
<path d="M115.991 42.3451C115.887 42.2474 115.829 42.1094 115.833 41.9662L116.018 34.8745C116.023 34.6928 116.126 34.5279 116.287 34.444L118.567 33.2585C118.9 33.0854 119.298 33.327 119.298 33.7021V40.3895C119.298 40.5243 119.352 40.6534 119.449 40.7475L123.317 44.5203C123.558 44.7549 123.503 45.1551 123.209 45.3166L120.989 46.534C120.8 46.6378 120.566 46.6085 120.408 46.4614L115.991 42.3451Z" fill="#967B00"/>
<path d="M120.559 40.0852C120.468 39.9918 120.417 39.8667 120.417 39.7364V32.6557C120.417 32.4703 120.519 32.3 120.683 32.2135L123.306 30.8299C123.642 30.6525 124.045 30.9004 124.039 31.2805L123.926 38.0229C123.923 38.1512 123.971 38.2754 124.058 38.3698L127.723 42.3543C127.949 42.6002 127.875 42.9946 127.575 43.1417L125.164 44.3234C124.97 44.4186 124.736 44.3781 124.586 44.2232L120.559 40.0852Z" fill="#967B00"/>
<path d="M125.136 37.7995C125.049 37.7067 125 37.5842 125 37.4568V30.2892C125 30.0984 125.109 29.9242 125.28 29.8403L127.574 28.7162C127.906 28.5534 128.294 28.7952 128.294 29.1652V35.5979C128.294 35.7245 128.342 35.8463 128.428 35.9389L132.26 40.0496C132.487 40.2927 132.418 40.6852 132.122 40.8361L129.666 42.0878C129.468 42.1887 129.227 42.1468 129.075 41.985L125.136 37.7995Z" fill="#967B00"/>
<path d="M129.859 35.4205C129.776 35.3286 129.73 35.2094 129.73 35.0859V28.1339C129.73 27.941 129.841 27.7652 130.015 27.6824L132.534 26.4849C132.87 26.3255 133.256 26.5741 133.249 26.9452L133.131 33.6713C133.128 33.793 133.171 33.9113 133.25 34.004L136.666 38.0205C136.881 38.2743 136.793 38.6643 136.489 38.8007L134.267 39.7969C134.069 39.8857 133.836 39.8366 133.691 39.6753L129.859 35.4205Z" fill="#967B00"/>
<path d="M134.373 33.4989C134.301 33.4081 134.263 33.295 134.265 33.179L134.387 25.9552C134.39 25.7609 134.506 25.5861 134.683 25.507L137.551 24.2285C137.891 24.0768 138.272 24.3371 138.254 24.7092L137.935 31.3412C137.929 31.4605 137.966 31.578 138.04 31.6723L141.36 35.9386C141.559 36.1944 141.466 36.569 141.171 36.7018L138.396 37.9481C138.187 38.0417 137.942 37.9821 137.8 37.8034L134.373 33.4989Z" fill="#967B00"/>
<path d="M139.005 31.3704C138.937 31.2769 138.904 31.1629 138.911 31.0478L139.343 23.8038C139.355 23.6115 139.476 23.4428 139.654 23.3703L142.469 22.2275C142.81 22.089 143.179 22.3541 143.156 22.7216L142.735 29.5298C142.728 29.6364 142.756 29.7423 142.814 29.832L145.626 34.1834C145.796 34.4462 145.686 34.7987 145.396 34.9174L142.806 35.9793C142.592 36.0669 142.346 35.9967 142.211 35.8094L139.005 31.3704Z" fill="#967B00"/>
<path d="M143.881 29.5351C143.825 29.4461 143.799 29.3419 143.806 29.2372L144.296 21.8808C144.309 21.6842 144.436 21.5137 144.621 21.4452L147.259 20.4674C147.61 20.3376 147.973 20.6239 147.93 20.995L147.151 27.5866C147.138 27.6943 147.161 27.8032 147.215 27.897L149.969 32.6229C150.126 32.8923 150.001 33.2381 149.708 33.3445L147.277 34.2279C147.055 34.3085 146.807 34.2229 146.682 34.0227L143.881 29.5351Z" fill="#967B00"/>
<path d="M148.219 27.6495C148.165 27.5559 148.143 27.4475 148.156 27.3404L149.037 20.134C149.061 19.9375 149.198 19.7737 149.387 19.7162L152.06 18.9042C152.407 18.7985 152.748 19.0877 152.701 19.4482L151.843 25.9267C151.829 26.0357 151.851 26.1464 151.905 26.2417L154.676 31.0571C154.835 31.3325 154.699 31.6839 154.397 31.782L151.569 32.7003C151.344 32.7734 151.098 32.6786 150.98 32.4732L148.219 27.6495Z" fill="#967B00"/>
<path d="M152.823 26.0573C152.768 25.9594 152.747 25.8457 152.764 25.7345L153.866 18.6005C153.897 18.4007 154.045 18.2391 154.242 18.1911L156.761 17.5754C157.114 17.4892 157.438 17.7961 157.371 18.1531L156.15 24.6812C156.129 24.7915 156.146 24.9055 156.198 25.0049L158.776 29.9307C158.923 30.2129 158.773 30.5594 158.466 30.6444L156.211 31.2693C155.99 31.3305 155.755 31.2334 155.642 31.0338L152.823 26.0573Z" fill="#967B00"/>
<path d="M157.199 24.6858C157.147 24.5853 157.131 24.4702 157.153 24.3593L158.535 17.4083C158.575 17.2076 158.734 17.0514 158.935 17.0142L161.448 16.5496C161.804 16.4839 162.109 16.8057 162.025 17.1575L160.625 23.0191C160.598 23.1336 160.611 23.2541 160.664 23.3594L163.383 28.7822C163.527 29.0699 163.366 29.417 163.053 29.4923L160.429 30.1245C160.205 30.1785 159.973 30.0723 159.868 29.8674L157.199 24.6858Z" fill="#967B00"/>
<path d="M161.847 23.2412L164.463 28.4704C164.708 28.9604 165.449 28.7561 165.409 28.2096L165.392 27.9844V16.289C165.392 15.9313 165.027 15.6893 164.697 15.8283L163.612 16.2861C163.466 16.3478 163.358 16.4752 163.321 16.6295L161.807 22.8993C161.78 23.014 161.794 23.1357 161.847 23.2412Z" fill="#967B00"/>
<path d="M86.5555 63.9703L89.0537 65.48C89.2138 65.5767 89.4145 65.576 89.5739 65.4782L92.9892 63.382C93.2735 63.2075 93.3105 62.8088 93.063 62.585L88.7238 58.661C88.4584 58.421 88.0342 58.5293 87.9163 58.8671L86.342 63.3776C86.2641 63.6008 86.3532 63.8481 86.5555 63.9703Z" fill="#967B00"/>
<path d="M13.7167 16.8151C13.7167 16.52 13.9711 16.289 14.2649 16.3175L17.8948 16.6688C18.3154 16.7095 18.499 17.2212 18.2002 17.52L14.5703 21.1499C14.2553 21.4649 13.7167 21.2418 13.7167 20.7964V16.8151Z" fill="#967B00"/>
</g>
<defs>
<filter id="filter0_f_11:305" x="0.245845" y="0.474963" width="178.404" height="81.4062" filterUnits="userSpaceOnUse" color-interpolation-filters="sRGB">
<feFlood flood-opacity="0" result="BackgroundImageFix"/>
<feBlend mode="normal" in="SourceGraphic" in2="BackgroundImageFix" result="shape"/>
<feGaussianBlur stdDeviation="0.15" result="effect1_foregroundBlur_11:305"/>
</filter>
<filter id="filter1_f_11:305" x="13.5167" y="15.5885" width="152.093" height="50.1636" filterUnits="userSpaceOnUse" color-interpolation-filters="sRGB">
<feFlood flood-opacity="0" result="BackgroundImageFix"/>
<feBlend mode="normal" in="SourceGraphic" in2="BackgroundImageFix" result="shape"/>
<feGaussianBlur stdDeviation="0.1" result="effect1_foregroundBlur_11:305"/>
</filter>
</defs>
</svg>
