<svg width="201" height="201" viewBox="0 0 201 201" fill="none" xmlns="http://www.w3.org/2000/svg">
<circle cx="100.606" cy="100.128" r="100" fill="white"/>
<g filter="url(#filter0_f_13:51)">
<path d="M13.8896 109.384V110.872L15.3608 111.101C36.5119 114.382 53.6831 121.841 64.1005 126.829C74.4353 131.779 86.7182 139.706 99.8596 149.52L100.867 150.272L101.897 149.55C104.339 147.837 106.554 146.23 108.685 144.684C117.28 138.448 124.52 133.195 139.909 125.879C159.131 116.74 175.736 112.466 186.695 111.108L188.219 110.919V109.384V109.288V109.193V109.098V109.003V108.908V108.814V108.72V108.626V108.532V108.439V108.346V108.253V108.16V108.067V107.975V107.883V107.791V107.699V107.607V107.516V107.425V107.334V107.243V107.153V107.063V106.973V106.883V106.793V106.704V106.615V106.526V106.437V106.348V106.26V106.172V106.084V105.996V105.909V105.821V105.734V105.647V105.56V105.474V105.387V105.301V105.215V105.13V105.044V104.959V104.873V104.788V104.704V104.619V104.535V104.45V104.366V104.283V104.199V104.116V104.032V103.949V103.866V103.784V103.701V103.619V103.537V103.455V103.373V103.291V103.21V103.129V103.048V102.967V102.886V102.805V102.725V102.645V102.565V102.485V102.405V102.326V102.247V102.167V102.089V102.01V101.931V101.853V101.774V101.696V101.618V101.541V101.463V101.385V101.308V101.231V101.154V101.077V101.001V100.924V100.848V100.772V100.696V100.62V100.544V100.469V100.393V100.318V100.243V100.168V100.094V100.019V99.9445V99.8702V99.7961V99.7221V99.6483V99.5746V99.501V99.4277V99.3544V99.2813V99.2084V99.1356V99.0629V98.9904V98.918V98.8458V98.7737V98.7018V98.6299V98.5583V98.4867V98.4154V98.3441V98.273V98.202V98.1312V98.0604V97.9899V97.9194V97.8491V97.7789V97.7089V97.639V97.5692V97.4995V97.43V97.3606V97.2913V97.2222V97.1531V97.0842V97.0155V96.9468V96.8783V96.8099V96.7416V96.6735V96.6054V96.5375V96.4697V96.402V96.3345V96.267V96.1997V96.1325V96.0654V95.9984V95.9315V95.8647V95.7981V95.7316V95.6651V95.5988V95.5326V95.4665V95.4005V95.3347V95.2689V95.2032V95.1377V95.0722V95.0069V94.9416V94.8765V94.8114V94.7465V94.6816V94.6169V94.5522V94.4877V94.4233V94.3589V94.2947V94.2305V94.1664V94.1025V94.0386V93.9748V93.9111V93.8476V93.784V93.7206V93.6573V93.5941V93.5309V93.4679V93.4049V93.342V93.2792V93.2165V93.1539V93.0913V93.0289V92.9665V92.9042V92.842V92.7799V92.7178V92.6558V92.5939V92.5321V92.4704V92.4087V92.3471V92.2856V92.2241V92.1628V92.1015V92.0402V91.9791V91.918V91.857V91.7961V91.7352V91.6744V91.6136V91.553V91.4924V91.4318V91.3713V91.3109V91.2506V91.1903V91.1301V91.0699V91.0098V90.9498V90.8898V90.8299V90.77V90.7102V90.6504V90.5907V90.5311V90.4715V90.412V90.3525V90.2931V90.2337V90.1744V90.1151V90.0559V89.9967V89.9376V89.8785V89.8195V89.7605V89.7015V89.6426V89.5838V89.525V89.4662V89.4075V89.3488V89.2902V89.2316V89.173V89.1145V89.056V88.9976V88.9391V88.8808V88.8224V88.7641V88.7059V88.6476V88.5894V88.5313V88.4731V88.415V88.3569V88.2989V88.2409V88.1829V88.1249V88.067V88.0091V87.9512V87.8933V87.8355V87.7777V87.7199V87.6621V87.6043V87.5466V87.4889V87.4312V87.3735V87.3159V87.2582V87.2006V87.143V87.0854V87.0279V86.9703V86.9127V86.8552V86.7977V86.7402V86.6827V86.6252V86.5677V86.5102V86.4527V86.3953V86.3378V86.2804V86.2229V86.1655V86.108V86.0506V85.9932V85.9357V85.8783V85.8209V85.7635V85.706V85.6486V85.5911V85.5337V85.4763V85.4188V85.3614V85.3039V85.2464V85.189V85.1315V85.074V85.0165V84.959V84.9014V84.8439V84.7864V84.7288V84.6712V84.6136V84.556V84.4984V84.4408V84.3831V84.3255V84.2678V84.2101V84.1524V84.0946V84.0369V83.9791V83.9213V83.8634V83.8056V83.7477V83.6898V83.6318V83.5739V83.5159V83.4579V83.3999V83.3418V83.2837V83.2255V83.1674V83.1092V83.051V82.9927V82.9344V82.8761V82.8177V82.7593V82.7009V82.6424V82.5839V82.5254V82.4668V82.4081V82.3495V82.2907V82.232V82.1732V82.1144V82.0555V81.9965V81.9376V81.8786V81.8195V81.7604V81.7012V81.642V81.5827V81.5234V81.4641V81.4046V81.3452V81.2857V81.2261V81.1665V81.1068V81.047V80.9872V80.9274V80.8675V80.8075V80.7475V80.6874V80.6273V80.567V80.5068V80.4464V80.386V80.3256V80.2651V80.2045V80.1438V80.0831V80.0223V79.9615V79.9005V79.8395V79.7785V79.7173V79.6561V79.5948V79.5335V79.4721V79.4106V79.349V79.2874V79.2256V79.1638V79.1019V79.04V78.978V78.9158V78.8536V78.7914V78.729V78.6666V78.604V78.5414V78.4787V78.416V78.3531V78.2902V78.2271V78.164V78.1008V78.0375V77.9741V77.9106V77.8471V77.7834V77.7196V77.6558V77.5919V77.5278V77.4637V77.3995V77.3351V77.2707V77.2062V77.1416V77.0769V77.012V76.9471V76.8821V76.817V76.7518V76.6864V76.621V76.5555V76.4898V76.4241V76.3582V76.2923V76.2262V76.16V76.0938V76.0274V75.9609V75.8942V75.8275V75.7607V75.6937V75.6266V75.5594V75.4921V75.4247V75.3572V75.2895V75.2218V75.1539V75.0859V73.3484H186.481C172.163 73.3484 155.956 79.0175 142.044 84.2574C130.192 88.7212 118.091 96.5432 106.622 103.957C104.69 105.206 102.775 106.444 100.882 107.652C97.337 105.467 94.1968 103.434 91.1893 101.487C83.3574 96.4171 76.4263 91.9303 65.5883 86.8507C57.8504 83.224 48.2325 79.9152 39.1534 77.5123C30.1041 75.1172 21.4359 73.5807 15.6271 73.5807H13.8896L13.8896 75.3182V109.384Z" fill="#FED007" stroke="black" stroke-width="3.475"/>
</g>
<g filter="url(#filter1_f_13:51)">
<path d="M25.7895 93.7162C25.7895 93.5813 25.844 93.4521 25.9406 93.358L31.3631 88.0768C31.4903 87.9529 31.6737 87.9058 31.8449 87.953L34.6239 88.7197C35.0006 88.8236 35.1179 89.3 34.8325 89.5669L29.7588 94.3116C29.6577 94.4062 29.6004 94.5384 29.6004 94.6768V100.229C29.6004 100.556 29.2923 100.795 28.976 100.714L26.1651 99.9916C25.944 99.9348 25.7895 99.7355 25.7895 99.5073V93.7162Z" fill="#967B00"/>
<path d="M30.6063 95.0404C30.6063 94.9008 30.6646 94.7676 30.7672 94.673L36.4161 89.4605C36.5496 89.3373 36.7394 89.2962 36.9118 89.3531L39.1254 90.0834C39.4816 90.2009 39.5864 90.6541 39.318 90.916L34.4538 95.6631C34.3574 95.7572 34.303 95.8862 34.303 96.0209V101.591C34.303 101.925 33.9828 102.165 33.6627 102.071L30.966 101.283C30.7528 101.221 30.6063 101.025 30.6063 100.803V95.0404Z" fill="#967B00"/>
<path d="M35.4231 96.2145C35.4231 96.0786 35.4784 95.9485 35.5763 95.8543L40.756 90.8678C40.8969 90.7321 41.1041 90.6911 41.2861 90.7628L43.7774 91.745C44.1153 91.8782 44.2029 92.3159 43.9423 92.5689L39.3857 96.992C39.2887 97.0862 39.2339 97.2156 39.2339 97.3508L39.2339 103.222C39.2339 103.563 38.9015 103.804 38.5782 103.698L35.7673 102.776C35.5619 102.709 35.4231 102.517 35.4231 102.301V96.2145Z" fill="#967B00"/>
<path d="M40.3054 97.7412C40.3054 97.6073 40.3591 97.4791 40.4544 97.3851L45.3086 92.5997C45.4518 92.4585 45.6655 92.4169 45.8512 92.4939L48.0087 93.389C48.3426 93.5276 48.4237 93.9638 48.1618 94.213L43.731 98.4307C43.6318 98.5251 43.5757 98.656 43.5757 98.7929V104.692C43.5757 105.037 43.2353 105.278 42.9101 105.164L40.6398 104.367C40.4395 104.297 40.3054 104.108 40.3054 103.896V97.7412Z" fill="#967B00"/>
<path d="M44.6063 99.2024C44.6063 99.0629 44.6646 98.9298 44.767 98.8351L49.5959 94.3744C49.7398 94.2414 49.9483 94.2048 50.129 94.2808L52.7304 95.3749C53.0652 95.5157 53.1429 95.9551 52.8768 96.2022L48.25 100.497C48.1481 100.592 48.0902 100.724 48.0902 100.864V106.444C48.0902 106.799 47.7305 107.041 47.4017 106.907L44.9178 105.896C44.7295 105.819 44.6063 105.636 44.6063 105.433V99.2024Z" fill="#967B00"/>
<path d="M49.2518 101.405C49.2518 101.261 49.3142 101.123 49.4231 101.029L54.6194 96.4948C54.7674 96.3658 54.9771 96.3352 55.1557 96.4167L57.6363 97.5486C57.9663 97.6992 58.0312 98.1401 57.7585 98.3794L53.0071 102.548C52.8989 102.643 52.8368 102.78 52.8368 102.924V108.445C52.8368 108.806 52.465 109.048 52.1345 108.902L49.5494 107.758C49.3685 107.678 49.2518 107.498 49.2518 107.3V101.405Z" fill="#967B00"/>
<path d="M53.905 103.407C53.905 103.257 53.9724 103.115 54.0884 103.02L59.4844 98.6055C59.6311 98.4855 59.833 98.4587 60.0058 98.5363L62.3019 99.5672C62.6391 99.7186 62.7011 100.171 62.4171 100.408L57.6344 104.392C57.5204 104.487 57.4545 104.628 57.4545 104.776V110.582C57.4545 110.949 57.0715 111.191 56.7398 111.033L54.1903 109.821C54.0161 109.738 53.905 109.562 53.905 109.369V103.407Z" fill="#967B00"/>
<path d="M58.7307 105.327C58.7307 105.179 58.7961 105.039 58.9093 104.944L64.0366 100.641C64.1858 100.515 64.3941 100.488 64.5705 100.571L66.8539 101.643C67.1912 101.801 67.243 102.26 66.9496 102.489L62.0732 106.306C61.9521 106.401 61.8814 106.546 61.8814 106.7V112.681C61.8814 113.055 61.4854 113.296 61.1527 113.125L59.002 112.019C58.8354 111.934 58.7307 111.762 58.7307 111.575L58.7307 105.327Z" fill="#967B00"/>
<path d="M62.998 107.267C62.998 107.108 63.0734 106.959 63.2012 106.865L68.6969 102.809C68.8464 102.699 69.0448 102.68 69.212 102.761L71.5289 103.885C71.8694 104.05 71.9102 104.519 71.6035 104.74L66.3643 108.523C66.2341 108.617 66.157 108.768 66.157 108.928V114.801C66.157 115.177 65.7579 115.418 65.425 115.244L63.2661 114.113C63.1013 114.027 62.998 113.856 62.998 113.67L62.998 107.267Z" fill="#967B00"/>
<path d="M67.6063 109.552C67.6063 109.387 67.6882 109.232 67.825 109.139L73.6275 105.191C73.7767 105.089 73.9689 105.076 74.1306 105.156L76.3913 106.275C76.7308 106.443 76.7675 106.913 76.458 107.131L70.9067 111.053C70.774 111.146 70.6952 111.299 70.6952 111.461V117.104C70.6952 117.478 70.2994 117.719 69.9667 117.548L67.8778 116.475C67.7111 116.39 67.6063 116.218 67.6063 116.031L67.6063 109.552Z" fill="#967B00"/>
<path d="M71.8916 111.911C71.8916 111.742 71.9765 111.585 72.1174 111.493L78.2773 107.453C78.4315 107.352 78.6288 107.343 78.7907 107.432L81.2188 108.754C81.5472 108.933 81.5703 109.395 81.2614 109.606L75.4567 113.564C75.3283 113.651 75.2479 113.794 75.2392 113.949L74.9261 119.499C74.9054 119.865 74.511 120.085 74.1886 119.91L72.1534 118.807C71.9921 118.72 71.8916 118.551 71.8916 118.368L71.8916 111.911Z" fill="#967B00"/>
<path d="M76.3497 114.49C76.3551 114.329 76.438 114.18 76.5723 114.091L82.8185 109.93C82.9811 109.822 83.1917 109.818 83.358 109.921L85.7726 111.409C86.0806 111.598 86.0914 112.042 85.793 112.247L80.0648 116.172C79.9403 116.257 79.861 116.394 79.849 116.545L79.4023 122.175C79.3728 122.547 78.9615 122.757 78.6433 122.562L76.3797 121.18C76.2259 121.087 76.1345 120.917 76.1406 120.737L76.3497 114.49Z" fill="#967B00"/>
<path d="M81.0893 116.999C81.0987 116.84 81.1835 116.694 81.3176 116.608L87.3376 112.73C87.5028 112.623 87.715 112.623 87.88 112.73L90.3833 114.35C90.6929 114.55 90.6865 115.005 90.3715 115.197L84.6264 118.69C84.4928 118.772 84.4049 118.911 84.3888 119.066L83.7779 124.967C83.7392 125.341 83.3175 125.54 83.0043 125.332L80.9281 123.956C80.7796 123.857 80.6947 123.687 80.7052 123.509L81.0893 116.999Z" fill="#967B00"/>
<path d="M85.5788 120.019C85.5962 119.866 85.6832 119.73 85.8147 119.649L92.0666 115.825C92.2308 115.725 92.438 115.727 92.5995 115.832L95.424 117.664C95.7309 117.863 95.7272 118.314 95.417 118.508L89.3429 122.307C89.221 122.383 89.1378 122.508 89.1146 122.65L88.2419 127.986C88.1829 128.346 87.7694 128.524 87.4672 128.318L85.0902 126.701C84.9368 126.597 84.8538 126.416 84.8747 126.231L85.5788 120.019Z" fill="#967B00"/>
<path d="M90.4756 123.075C90.4989 122.933 90.5823 122.808 90.7044 122.732L96.7922 118.935C96.9566 118.832 97.1655 118.834 97.3282 118.939L99.737 120.496C100.046 120.696 100.041 121.15 99.727 121.342L94.1049 124.791C93.9846 124.865 93.9011 124.986 93.875 125.125L92.7755 130.971C92.7102 131.318 92.3145 131.49 92.016 131.3L89.6769 129.814C89.5079 129.707 89.4192 129.509 89.4517 129.311L90.4756 123.075Z" fill="#967B00"/>
<path d="M94.9201 126.002C94.946 125.87 95.0242 125.753 95.1369 125.68L99.1144 123.075C99.4469 122.858 99.8883 123.096 99.8883 123.494V127.584C99.8883 127.768 99.7875 127.937 99.6258 128.024L98.7873 128.477C98.6757 128.537 98.5912 128.637 98.5508 128.757L96.9253 133.595C96.8225 133.901 96.4612 134.031 96.1872 133.861L93.9784 132.486C93.8021 132.377 93.712 132.169 93.7519 131.966L94.9201 126.002Z" fill="#967B00"/>
<path d="M100.925 128.719C100.822 128.624 100.763 128.491 100.763 128.351V121.491C100.763 121.313 100.858 121.148 101.012 121.059L103.412 119.662C103.745 119.468 104.164 119.708 104.164 120.094V126.724C104.164 126.872 104.229 127.012 104.342 127.107L108.725 130.79C108.985 131.008 108.956 131.416 108.668 131.596L106.243 133.113C106.052 133.232 105.805 133.209 105.639 133.057L100.925 128.719Z" fill="#967B00"/>
<path d="M105.531 126.396C105.417 126.301 105.351 126.16 105.351 126.011L105.351 118.77C105.351 118.596 105.442 118.433 105.591 118.343L107.486 117.194C107.819 116.992 108.245 117.232 108.245 117.621V124.174C108.245 124.323 108.312 124.465 108.428 124.56L112.864 128.207C113.125 128.422 113.102 128.829 112.818 129.013L110.806 130.316C110.623 130.435 110.384 130.421 110.215 130.281L105.531 126.396Z" fill="#967B00"/>
<path d="M109.4 123.719C109.287 123.624 109.222 123.484 109.222 123.336V116.408C109.222 116.234 109.313 116.072 109.461 115.981L111.633 114.653C111.971 114.446 112.405 114.697 112.393 115.093L112.199 121.987C112.195 122.141 112.261 122.288 112.38 122.386L116.541 125.832C116.802 126.048 116.777 126.456 116.492 126.639L114.746 127.755C114.561 127.873 114.322 127.858 114.154 127.717L109.4 123.719Z" fill="#967B00"/>
<path d="M113.793 121.793C113.675 121.698 113.606 121.555 113.606 121.403V113.72C113.606 113.544 113.699 113.381 113.85 113.291L116.076 111.965C116.409 111.766 116.832 112.007 116.832 112.395V119.138C116.832 119.283 116.895 119.421 117.004 119.516L121.118 123.079C121.374 123.302 121.34 123.71 121.049 123.885L118.696 125.306C118.517 125.414 118.288 125.399 118.125 125.268L113.793 121.793Z" fill="#967B00"/>
<path d="M118.073 118.692C117.965 118.597 117.903 118.46 117.903 118.317V111.189C117.903 111.013 117.995 110.851 118.146 110.76L120.652 109.256C120.991 109.053 121.42 109.303 121.41 109.697L121.238 116.231C121.234 116.373 121.291 116.51 121.395 116.608L125.576 120.548C125.818 120.776 125.774 121.172 125.488 121.342L123.169 122.716C122.983 122.826 122.747 122.804 122.584 122.661L118.073 118.692Z" fill="#967B00"/>
<path d="M122.757 115.793C122.661 115.699 122.606 115.57 122.606 115.435L122.606 108.501C122.606 108.32 122.704 108.153 122.862 108.065L125.589 106.538C125.925 106.35 126.338 106.596 126.333 106.981L126.239 113.403C126.237 113.54 126.292 113.672 126.389 113.767L130.473 117.776C130.711 118.009 130.658 118.405 130.369 118.568L127.675 120.086C127.482 120.195 127.24 120.164 127.081 120.009L122.757 115.793Z" fill="#967B00"/>
<path d="M127.598 113.181C127.493 113.083 127.435 112.945 127.439 112.802L127.625 105.71C127.629 105.529 127.732 105.364 127.894 105.28L130.174 104.094C130.506 103.921 130.904 104.163 130.904 104.538V111.225C130.904 111.36 130.959 111.489 131.055 111.583L134.924 115.356C135.164 115.591 135.109 115.991 134.815 116.153L132.595 117.37C132.406 117.474 132.172 117.444 132.014 117.297L127.598 113.181Z" fill="#967B00"/>
<path d="M132.165 110.921C132.074 110.828 132.023 110.703 132.023 110.572V103.492C132.023 103.306 132.126 103.136 132.29 103.049L134.912 101.666C135.248 101.488 135.652 101.736 135.645 102.116L135.532 108.859C135.53 108.987 135.577 109.111 135.664 109.206L139.329 113.19C139.555 113.436 139.481 113.831 139.181 113.978L136.77 115.159C136.576 115.254 136.343 115.214 136.192 115.059L132.165 110.921Z" fill="#967B00"/>
<path d="M136.742 108.635C136.655 108.543 136.606 108.42 136.606 108.293V101.125C136.606 100.934 136.715 100.76 136.886 100.676L139.18 99.5521C139.512 99.3893 139.9 99.6311 139.9 100.001V106.434C139.9 106.56 139.948 106.682 140.034 106.775L143.867 110.886C144.093 111.129 144.024 111.521 143.728 111.672L141.272 112.924C141.074 113.025 140.833 112.983 140.681 112.821L136.742 108.635Z" fill="#967B00"/>
<path d="M141.465 106.256C141.382 106.165 141.336 106.045 141.336 105.922V98.9698C141.336 98.7769 141.447 98.6011 141.622 98.5183L144.141 97.3208C144.476 97.1614 144.862 97.41 144.855 97.7811L144.737 104.507C144.735 104.629 144.777 104.747 144.856 104.84L148.272 108.856C148.488 109.11 148.4 109.5 148.095 109.637L145.873 110.633C145.675 110.722 145.442 110.672 145.297 110.511L141.465 106.256Z" fill="#967B00"/>
<path d="M145.98 104.335C145.907 104.244 145.869 104.131 145.871 104.015L145.993 96.7911C145.997 96.5968 146.112 96.422 146.29 96.3429L149.157 95.0644C149.498 94.9127 149.878 95.173 149.86 95.5451L149.541 102.177C149.536 102.296 149.573 102.414 149.646 102.508L152.967 106.775C153.166 107.03 153.072 107.405 152.777 107.538L150.002 108.784C149.794 108.878 149.548 108.818 149.406 108.639L145.98 104.335Z" fill="#967B00"/>
<path d="M150.611 102.206C150.543 102.113 150.51 101.999 150.517 101.884L150.95 94.6397C150.961 94.4474 151.082 94.2787 151.261 94.2062L154.075 93.0634C154.416 92.9249 154.785 93.19 154.762 93.5575L154.341 100.366C154.335 100.472 154.363 100.578 154.42 100.668L157.233 105.019C157.403 105.282 157.292 105.635 157.002 105.753L154.412 106.815C154.198 106.903 153.952 106.833 153.817 106.645L150.611 102.206Z" fill="#967B00"/>
<path d="M155.487 100.371C155.432 100.282 155.406 100.178 155.413 100.073L155.902 92.7167C155.915 92.5201 156.042 92.3496 156.227 92.2811L158.866 91.3034C159.216 91.1735 159.58 91.4598 159.536 91.8309L158.757 98.4225C158.744 98.5302 158.767 98.6391 158.822 98.7329L161.575 103.459C161.732 103.728 161.607 104.074 161.314 104.18L158.883 105.064C158.661 105.144 158.413 105.059 158.288 104.859L155.487 100.371Z" fill="#967B00"/>
<path d="M159.825 98.4854C159.771 98.3918 159.75 98.2834 159.763 98.1763L160.643 90.9699C160.667 90.7735 160.804 90.6097 160.994 90.5521L163.666 89.7401C164.014 89.6344 164.355 89.9236 164.307 90.2841L163.449 96.7627C163.435 96.8716 163.457 96.9823 163.512 97.0776L166.282 101.893C166.441 102.168 166.306 102.52 166.003 102.618L163.175 103.536C162.95 103.609 162.704 103.515 162.587 103.309L159.825 98.4854Z" fill="#967B00"/>
<path d="M164.43 96.8932C164.374 96.7953 164.353 96.6816 164.371 96.5704L165.473 89.4364C165.503 89.2366 165.652 89.0751 165.848 89.0271L168.368 88.4113C168.72 88.3251 169.045 88.632 168.978 88.989L167.756 95.5171C167.736 95.6274 167.753 95.7414 167.805 95.8409L170.382 100.767C170.53 101.049 170.379 101.395 170.073 101.48L167.817 102.105C167.596 102.166 167.361 102.069 167.248 101.87L164.43 96.8932Z" fill="#967B00"/>
<path d="M168.805 95.5217C168.753 95.4212 168.737 95.3061 168.759 95.1952L170.142 88.2443C170.182 88.0435 170.34 87.8873 170.541 87.8501L173.054 87.3855C173.41 87.3198 173.716 87.6416 173.631 87.9934L172.231 93.855C172.204 93.9695 172.218 94.09 172.271 94.1953L174.989 99.6181C175.134 99.9058 174.972 100.253 174.66 100.328L172.036 100.96C171.812 101.014 171.58 100.908 171.474 100.703L168.805 95.5217Z" fill="#967B00"/>
<path d="M173.453 94.0771L176.069 99.3063C176.314 99.7963 177.055 99.592 177.015 99.0455L176.998 98.8203V87.1249C176.998 86.7672 176.633 86.5252 176.304 86.6643L175.219 87.122C175.072 87.1837 174.964 87.3112 174.927 87.4654L173.414 93.7352C173.386 93.8499 173.4 93.9716 173.453 94.0771Z" fill="#967B00"/>
<path d="M98.1618 134.806L100.66 136.316C100.82 136.413 101.021 136.412 101.18 136.314L104.596 134.218C104.88 134.043 104.917 133.645 104.669 133.421L100.33 129.497C100.065 129.257 99.6405 129.365 99.5226 129.703L97.9483 134.214C97.8704 134.437 97.9595 134.684 98.1618 134.806Z" fill="#967B00"/>
<path d="M25.323 87.651C25.323 87.3559 25.5774 87.1249 25.8712 87.1534L29.5011 87.5047C29.9217 87.5454 30.1053 88.0571 29.8065 88.3559L26.1766 91.9859C25.8616 92.3008 25.323 92.0778 25.323 91.6323V87.651Z" fill="#967B00"/>
</g>
<defs>
<filter id="filter0_f_13:51" x="11.8521" y="71.3109" width="178.404" height="81.4062" filterUnits="userSpaceOnUse" color-interpolation-filters="sRGB">
<feFlood flood-opacity="0" result="BackgroundImageFix"/>
<feBlend mode="normal" in="SourceGraphic" in2="BackgroundImageFix" result="shape"/>
<feGaussianBlur stdDeviation="0.15" result="effect1_foregroundBlur_13:51"/>
</filter>
<filter id="filter1_f_13:51" x="25.123" y="86.4244" width="152.093" height="50.1636" filterUnits="userSpaceOnUse" color-interpolation-filters="sRGB">
<feFlood flood-opacity="0" result="BackgroundImageFix"/>
<feBlend mode="normal" in="SourceGraphic" in2="BackgroundImageFix" result="shape"/>
<feGaussianBlur stdDeviation="0.1" result="effect1_foregroundBlur_13:51"/>
</filter>
</defs>
</svg>
