<svg width="278" height="188" viewBox="0 0 278 188" fill="none" xmlns="http://www.w3.org/2000/svg">
<g filter="url(#filter0_d_11:301)">
<path d="M34.3461 82.9166C34.0179 82.9166 33.7476 82.8105 33.5352 82.5981C33.3229 82.3857 33.2167 82.1155 33.2167 81.7873V61.4296C33.2167 61.1014 33.3229 60.8311 33.5352 60.6187C33.7476 60.4064 34.0179 60.3002 34.3461 60.3002H39.5586C41.2188 60.3002 42.7343 60.5801 44.105 61.14C45.495 61.6805 46.692 62.4624 47.6959 63.4856C48.6997 64.4895 49.472 65.6768 50.0125 67.0475C50.5724 68.4182 50.8523 69.9337 50.8523 71.5939C50.8523 73.2542 50.5724 74.7793 50.0125 76.1693C49.472 77.54 48.6997 78.737 47.6959 79.7602C46.692 80.7641 45.495 81.5459 44.105 82.1058C42.7343 82.6464 41.2188 82.9166 39.5586 82.9166H34.3461ZM35.4754 80.8896H39.5586C41.3347 80.8896 42.8984 80.4938 44.2498 79.7023C45.6205 78.8914 46.692 77.791 47.4642 76.401C48.2364 74.9917 48.6225 73.3893 48.6225 71.5939C48.6225 69.7985 48.2364 68.2058 47.4642 66.8158C46.692 65.4065 45.6205 64.3061 44.2498 63.5146C42.8984 62.723 41.3347 62.3273 39.5586 62.3273H35.4754V80.8896ZM64.955 83.2062C63.2754 83.2062 61.731 82.9166 60.3217 82.3375C58.9124 81.7583 57.6865 80.9475 56.644 79.905C55.6208 78.8625 54.8196 77.6366 54.2404 76.2273C53.6806 74.818 53.4006 73.2735 53.4006 71.5939C53.4006 69.9337 53.6806 68.3989 54.2404 66.9896C54.8196 65.5803 55.6208 64.3543 56.644 63.3118C57.6865 62.2693 58.9124 61.4585 60.3217 60.8793C61.731 60.3002 63.2754 60.0106 64.955 60.0106C66.6153 60.0106 68.1501 60.3002 69.5594 60.8793C70.9687 61.4585 72.1946 62.2693 73.2371 63.3118C74.2796 64.3543 75.0808 65.5803 75.6406 66.9896C76.2198 68.3989 76.5094 69.9337 76.5094 71.5939C76.5094 73.2735 76.2198 74.818 75.6406 76.2273C75.0808 77.6366 74.2796 78.8625 73.2371 79.905C72.1946 80.9475 70.9687 81.7583 69.5594 82.3375C68.1501 82.9166 66.6153 83.2062 64.955 83.2062ZM64.955 81.0633C66.2871 81.0633 67.5227 80.8316 68.6617 80.3683C69.8007 79.8857 70.7853 79.2196 71.6154 78.3702C72.4649 77.5014 73.1213 76.4975 73.5846 75.3585C74.0479 74.2002 74.2796 72.9453 74.2796 71.5939C74.2796 70.2618 74.0479 69.0263 73.5846 67.8873C73.1213 66.7289 72.4649 65.725 71.6154 64.8756C70.7853 64.0068 69.8007 63.3408 68.6617 62.8775C67.5227 62.3948 66.2871 62.1535 64.955 62.1535C63.6036 62.1535 62.3584 62.3948 61.2194 62.8775C60.0804 63.3408 59.0861 64.0068 58.2367 64.8756C57.4065 65.725 56.7598 66.7289 56.2965 67.8873C55.8331 69.0263 55.6015 70.2618 55.6015 71.5939C55.6015 72.9453 55.8331 74.2002 56.2965 75.3585C56.7598 76.4975 57.4065 77.5014 58.2367 78.3702C59.0861 79.2196 60.0804 79.8857 61.2194 80.3683C62.3584 80.8316 63.6036 81.0633 64.955 81.0633ZM90.3332 83.2062C88.7694 83.2062 87.3022 82.907 85.9315 82.3085C84.5801 81.71 83.3832 80.8799 82.3407 79.8181C81.3175 78.737 80.5163 77.5014 79.9371 76.1114C79.3579 74.7021 79.0684 73.1963 79.0684 71.5939C79.0684 70.0109 79.3483 68.5243 79.9082 67.1343C80.4873 65.725 81.2885 64.4895 82.3117 63.4277C83.3542 62.3659 84.5511 61.5357 85.9025 60.9373C87.2732 60.3195 88.7501 60.0106 90.3332 60.0106C91.7232 60.0106 92.9877 60.2133 94.1267 60.6187C95.2657 61.0241 96.3661 61.6709 97.4279 62.5589C97.6789 62.752 97.7851 63.003 97.7465 63.3118C97.7079 63.6014 97.5631 63.8041 97.3121 63.92C97.2542 64.1516 97.0708 64.3061 96.7619 64.3833C96.4723 64.4412 96.1827 64.3447 95.8932 64.0937C95.1402 63.4373 94.3198 62.9547 93.4317 62.6458C92.5436 62.3176 91.5108 62.1535 90.3332 62.1535C89.0783 62.1535 87.9007 62.4045 86.8002 62.9064C85.7191 63.4084 84.7635 64.0937 83.9334 64.9625C83.1032 65.8312 82.4468 66.8351 81.9642 67.9741C81.5009 69.1132 81.2692 70.3198 81.2692 71.5939C81.2692 72.9067 81.5009 74.1326 81.9642 75.2716C82.4468 76.4107 83.1032 77.4146 83.9334 78.2833C84.7635 79.1521 85.7191 79.8374 86.8002 80.3393C87.9007 80.822 89.0783 81.0633 90.3332 81.0633C92.2251 81.0633 93.9626 80.5131 95.5457 79.4127V73.621H91.0282C90.7 73.621 90.4297 73.5245 90.2173 73.3314C90.005 73.1384 89.8988 72.8971 89.8988 72.6075C89.8988 72.3179 90.005 72.0862 90.2173 71.9125C90.4297 71.7194 90.7 71.6229 91.0282 71.6229H96.6171C96.9453 71.6229 97.2156 71.7291 97.4279 71.9414C97.6403 72.1345 97.7465 72.3951 97.7465 72.7233V79.905C97.7465 80.0594 97.7272 80.2042 97.6886 80.3393C97.65 80.4552 97.5631 80.5807 97.4279 80.7158C96.4434 81.6232 95.3429 82.2699 94.1267 82.656C92.9104 83.0228 91.6459 83.2062 90.3332 83.2062ZM116.698 82.9166C116.389 82.9166 116.119 82.8105 115.888 82.5981C115.675 82.3664 115.569 82.0962 115.569 81.7873V62.3562H108.706C108.397 62.3562 108.146 62.2597 107.953 62.0666C107.76 61.8736 107.663 61.6323 107.663 61.3427C107.663 61.0338 107.76 60.7828 107.953 60.5898C108.146 60.3967 108.397 60.3002 108.706 60.3002H124.72C125.029 60.3002 125.28 60.3967 125.473 60.5898C125.666 60.7828 125.762 61.0338 125.762 61.3427C125.762 61.6323 125.666 61.8736 125.473 62.0666C125.28 62.2597 125.029 62.3562 124.72 62.3562H117.828V81.7873C117.828 82.0962 117.722 82.3664 117.509 82.5981C117.297 82.8105 117.027 82.9166 116.698 82.9166ZM129.795 82.9166C129.467 82.9166 129.197 82.8105 128.985 82.5981C128.772 82.3857 128.666 82.1155 128.666 81.7873V61.4296C128.666 61.1014 128.772 60.8311 128.985 60.6187C129.197 60.4064 129.467 60.3002 129.795 60.3002H135.211C136.62 60.3002 137.875 60.5994 138.975 61.1979C140.076 61.7771 140.935 62.5975 141.553 63.6593C142.19 64.7018 142.508 65.9084 142.508 67.2791C142.508 68.785 142.103 70.0978 141.292 71.2175C140.481 72.3179 139.4 73.0998 138.049 73.5631L142.798 81.1791C143.087 81.6425 143.136 82.0479 142.943 82.3954C142.769 82.7429 142.421 82.9166 141.9 82.9166C141.649 82.9166 141.446 82.8684 141.292 82.7718C141.157 82.6753 141.031 82.5305 140.915 82.3375L135.703 74.0264C135.549 74.0457 135.384 74.0554 135.211 74.0554H130.925V81.7873C130.925 82.1155 130.819 82.3857 130.606 82.5981C130.394 82.8105 130.124 82.9166 129.795 82.9166ZM130.925 71.8835H135.211C136.195 71.8835 137.064 71.6905 137.817 71.3043C138.589 70.8989 139.197 70.3487 139.641 69.6537C140.085 68.9587 140.307 68.1672 140.307 67.2791C140.307 66.3332 140.085 65.503 139.641 64.7887C139.197 64.0551 138.589 63.4856 137.817 63.0802C137.064 62.6748 136.195 62.4721 135.211 62.4721H130.925V71.8835ZM144.887 82.9166C144.443 82.9166 144.125 82.7332 143.932 82.3664C143.739 81.9996 143.72 81.6425 143.874 81.295L152.388 61.0821C152.6 60.5608 152.967 60.3002 153.488 60.3002C153.99 60.3002 154.347 60.5608 154.56 61.0821L163.102 81.3239C163.276 81.6907 163.247 82.0479 163.015 82.3954C162.803 82.7429 162.494 82.9166 162.089 82.9166C161.567 82.9166 161.21 82.685 161.017 82.2216L159.106 77.5304H147.87L145.93 82.2216C145.833 82.4533 145.689 82.6271 145.496 82.7429C145.322 82.8587 145.119 82.9166 144.887 82.9166ZM148.681 75.5902H158.295L153.488 63.9779L148.681 75.5902ZM167.189 82.9166C166.861 82.9166 166.591 82.8105 166.378 82.5981C166.166 82.3857 166.06 82.1155 166.06 81.7873V61.4296C166.06 61.1014 166.166 60.8311 166.378 60.6187C166.591 60.4064 166.861 60.3002 167.189 60.3002C167.517 60.3002 167.787 60.4064 168 60.6187C168.212 60.8311 168.318 61.1014 168.318 61.4296V81.7873C168.318 82.1155 168.212 82.3857 168 82.5981C167.787 82.8105 167.517 82.9166 167.189 82.9166ZM174.814 82.9166C174.486 82.9166 174.216 82.8105 174.004 82.5981C173.791 82.3857 173.685 82.1155 173.685 81.7873V61.4296C173.685 61.1014 173.791 60.8311 174.004 60.6187C174.216 60.4064 174.486 60.3002 174.814 60.3002C175.162 60.3002 175.451 60.4353 175.683 60.7056L189.525 78.8914V61.4296C189.525 61.1014 189.631 60.8311 189.844 60.6187C190.056 60.4064 190.326 60.3002 190.655 60.3002C190.963 60.3002 191.224 60.4064 191.436 60.6187C191.668 60.8311 191.784 61.1014 191.784 61.4296V81.7873C191.784 82.1155 191.668 82.3857 191.436 82.5981C191.224 82.8105 190.963 82.9166 190.655 82.9166C190.288 82.9166 190.008 82.7912 189.815 82.5402L175.944 64.3543V81.7873C175.944 82.1155 175.828 82.3857 175.596 82.5981C175.384 82.8105 175.123 82.9166 174.814 82.9166ZM198.276 82.9166C197.948 82.9166 197.678 82.8105 197.465 82.5981C197.253 82.3857 197.147 82.1155 197.147 81.7873V61.4296C197.147 61.1014 197.253 60.8311 197.465 60.6187C197.678 60.4064 197.948 60.3002 198.276 60.3002C198.604 60.3002 198.875 60.4064 199.087 60.6187C199.299 60.8311 199.406 61.1014 199.406 61.4296V81.7873C199.406 82.1155 199.299 82.3857 199.087 82.5981C198.875 82.8105 198.604 82.9166 198.276 82.9166ZM205.902 82.9166C205.573 82.9166 205.303 82.8105 205.091 82.5981C204.878 82.3857 204.772 82.1155 204.772 81.7873V61.4296C204.772 61.1014 204.878 60.8311 205.091 60.6187C205.303 60.4064 205.573 60.3002 205.902 60.3002C206.249 60.3002 206.539 60.4353 206.77 60.7056L220.612 78.8914V61.4296C220.612 61.1014 220.719 60.8311 220.931 60.6187C221.143 60.4064 221.414 60.3002 221.742 60.3002C222.051 60.3002 222.311 60.4064 222.524 60.6187C222.755 60.8311 222.871 61.1014 222.871 61.4296V81.7873C222.871 82.1155 222.755 82.3857 222.524 82.5981C222.311 82.8105 222.051 82.9166 221.742 82.9166C221.375 82.9166 221.095 82.7912 220.902 82.5402L207.031 64.3543V81.7873C207.031 82.1155 206.915 82.3857 206.683 82.5981C206.471 82.8105 206.21 82.9166 205.902 82.9166ZM238.398 83.2062C236.835 83.2062 235.368 82.907 233.997 82.3085C232.645 81.71 231.448 80.8799 230.406 79.8181C229.383 78.737 228.582 77.5014 228.002 76.1114C227.423 74.7021 227.134 73.1963 227.134 71.5939C227.134 70.0109 227.414 68.5243 227.973 67.1343C228.553 65.725 229.354 64.4895 230.377 63.4277C231.42 62.3659 232.616 61.5357 233.968 60.9373C235.339 60.3195 236.815 60.0106 238.398 60.0106C239.788 60.0106 241.053 60.2133 242.192 60.6187C243.331 61.0241 244.431 61.6709 245.493 62.5589C245.744 62.752 245.85 63.003 245.812 63.3118C245.773 63.6014 245.628 63.8041 245.377 63.92C245.32 64.1516 245.136 64.3061 244.827 64.3833C244.538 64.4412 244.248 64.3447 243.958 64.0937C243.206 63.4373 242.385 62.9547 241.497 62.6458C240.609 62.3176 239.576 62.1535 238.398 62.1535C237.144 62.1535 235.966 62.4045 234.866 62.9064C233.784 63.4084 232.829 64.0937 231.999 64.9625C231.169 65.8312 230.512 66.8351 230.03 67.9741C229.566 69.1132 229.335 70.3198 229.335 71.5939C229.335 72.9067 229.566 74.1326 230.03 75.2716C230.512 76.4107 231.169 77.4146 231.999 78.2833C232.829 79.1521 233.784 79.8374 234.866 80.3393C235.966 80.822 237.144 81.0633 238.398 81.0633C240.29 81.0633 242.028 80.5131 243.611 79.4127V73.621H239.093C238.765 73.621 238.495 73.5245 238.283 73.3314C238.07 73.1384 237.964 72.8971 237.964 72.6075C237.964 72.3179 238.07 72.0862 238.283 71.9125C238.495 71.7194 238.765 71.6229 239.093 71.6229H244.682C245.011 71.6229 245.281 71.7291 245.493 71.9414C245.706 72.1345 245.812 72.3951 245.812 72.7233V79.905C245.812 80.0594 245.793 80.2042 245.754 80.3393C245.715 80.4552 245.628 80.5807 245.493 80.7158C244.509 81.6232 243.408 82.2699 242.192 82.656C240.976 83.0228 239.711 83.2062 238.398 83.2062Z" fill="black"/>
<path d="M24.4372 46.5213C21.6224 46.5213 18.9814 45.9826 16.5142 44.9054C14.0817 43.8281 11.9272 42.3339 10.0507 40.4226C8.20893 38.4766 6.7668 36.2526 5.7243 33.7506C4.6818 31.2139 4.16055 28.5034 4.16055 25.6191C4.16055 22.7696 4.66443 20.0939 5.67218 17.5919C6.71468 15.0551 8.1568 12.8311 9.99855 10.9199C11.8751 9.00862 14.0296 7.51437 16.4621 6.43712C18.9293 5.32512 21.5877 4.76912 24.4372 4.76912C26.9392 4.76912 29.2153 5.134 31.2656 5.86374C33.3158 6.5935 35.2966 7.75762 37.2078 9.35612C37.6596 9.70362 37.8507 10.1554 37.7812 10.7114C37.7117 11.2326 37.4511 11.5975 36.9993 11.806C36.8951 12.223 36.5649 12.4836 36.0089 12.5879C35.4877 12.6921 34.9664 12.5357 34.4452 12.1187C33.0899 10.9372 31.6131 10.0685 30.0146 9.51249C28.4161 8.92175 26.5569 8.62637 24.4372 8.62637C22.1784 8.62637 20.0587 9.07812 18.0779 9.98162C16.1319 10.8851 14.4118 12.1187 12.9176 13.6825C11.4233 15.2462 10.2418 17.0532 9.37305 19.1035C8.53905 21.1537 8.12205 23.3256 8.12205 25.6191C8.12205 27.9821 8.53905 30.1887 9.37305 32.239C10.2418 34.2892 11.4233 36.0962 12.9176 37.66C14.4118 39.2237 16.1319 40.4574 18.0779 41.3609C20.0587 42.2296 22.1784 42.664 24.4372 42.664C28.1902 42.664 31.6131 41.4477 34.7058 39.0152C35.3313 38.5287 35.9916 38.4592 36.6866 38.8067C37.4163 39.1542 37.7812 39.745 37.7812 40.579C37.7812 41.135 37.5901 41.6215 37.2078 42.0385C35.4356 43.6717 33.4548 44.8359 31.2656 45.5309C29.0763 46.1911 26.8002 46.5213 24.4372 46.5213ZM47.6059 46C47.0152 46 46.5287 45.8089 46.1464 45.4266C45.7642 45.0444 45.5731 44.5579 45.5731 43.9671V7.32324C45.5731 6.73249 45.7642 6.24599 46.1464 5.86374C46.5287 5.4815 47.0152 5.29037 47.6059 5.29037C48.1967 5.29037 48.6832 5.4815 49.0654 5.86374C49.4477 6.24599 49.6388 6.73249 49.6388 7.32324V23.5862H75.0758V7.32324C75.0758 6.73249 75.2669 6.24599 75.6492 5.86374C76.0314 5.4815 76.5179 5.29037 77.1087 5.29037C77.6994 5.29037 78.1859 5.4815 78.5682 5.86374C78.9504 6.24599 79.1416 6.73249 79.1416 7.32324V43.9671C79.1416 44.5579 78.9504 45.0444 78.5682 45.4266C78.1859 45.8089 77.6994 46 77.1087 46C76.5179 46 76.0314 45.8089 75.6492 45.4266C75.2669 45.0444 75.0758 44.5579 75.0758 43.9671V27.235H49.6388V43.9671C49.6388 44.5579 49.4477 45.0444 49.0654 45.4266C48.6832 45.8089 48.1967 46 47.6059 46ZM90.8045 46C90.2138 46 89.7273 45.8089 89.345 45.4266C88.9628 45.0444 88.7717 44.5579 88.7717 43.9671V7.32324C88.7717 6.73249 88.9628 6.24599 89.345 5.86374C89.7273 5.4815 90.2138 5.29037 90.8045 5.29037H115.251C115.807 5.29037 116.276 5.4815 116.659 5.86374C117.076 6.21124 117.284 6.68037 117.284 7.27112C117.284 7.79237 117.076 8.24412 116.659 8.62637C116.276 9.00862 115.807 9.19975 115.251 9.19975H92.8374V23.5862H109.153C109.743 23.5862 110.23 23.7774 110.612 24.1596C110.994 24.5419 111.185 25.011 111.185 25.567C111.185 26.123 110.994 26.5921 110.612 26.9744C110.23 27.3566 109.743 27.5477 109.153 27.5477H92.8374V42.0906H115.251C115.807 42.0906 116.276 42.2817 116.659 42.664C117.076 43.0462 117.284 43.498 117.284 44.0192C117.284 44.61 117.076 45.0965 116.659 45.4787C116.276 45.8262 115.807 46 115.251 46H90.8045ZM137.581 46C136.712 46 136.086 45.5656 135.704 44.6969L120.223 8.47C119.841 7.497 119.806 6.7325 120.119 6.17649C120.466 5.58575 121.057 5.29037 121.891 5.29037C122.76 5.29037 123.385 5.72475 123.767 6.59349L137.581 39.6407L151.342 6.69775C151.724 5.7595 152.401 5.29037 153.374 5.29037C154.174 5.29037 154.712 5.60312 154.99 6.22862C155.268 6.81937 155.251 7.49699 154.938 8.2615L139.405 44.6969C139.023 45.5656 138.415 46 137.581 46ZM162.643 46C162.053 46 161.566 45.8089 161.184 45.4266C160.802 45.0444 160.61 44.5579 160.61 43.9671V7.32324C160.61 6.73249 160.802 6.24599 161.184 5.86374C161.566 5.4815 162.053 5.29037 162.643 5.29037H172.391C174.927 5.29037 177.186 5.829 179.167 6.90624C181.148 7.94875 182.694 9.42562 183.806 11.3369C184.953 13.2134 185.526 15.3852 185.526 17.8525C185.526 20.563 184.796 22.926 183.337 24.9415C181.877 26.9222 179.931 28.3296 177.499 29.1636L186.047 42.8725C186.569 43.7065 186.656 44.4362 186.308 45.0617C185.995 45.6872 185.37 46 184.432 46C183.98 46 183.615 45.9131 183.337 45.7394C183.094 45.5656 182.868 45.305 182.659 44.9575L173.277 29.9976C172.999 30.0324 172.703 30.0497 172.391 30.0497H164.676V43.9671C164.676 44.5579 164.485 45.0444 164.103 45.4266C163.721 45.8089 163.234 46 162.643 46ZM164.676 26.1404H172.391C174.163 26.1404 175.727 25.7929 177.082 25.0979C178.472 24.3681 179.567 23.3777 180.366 22.1267C181.165 20.8757 181.565 19.451 181.565 17.8525C181.565 16.1497 181.165 14.6555 180.366 13.3697C179.567 12.0492 178.472 11.0241 177.082 10.2944C175.727 9.56462 174.163 9.19975 172.391 9.19975H164.676V26.1404ZM210.868 46.5213C207.844 46.5213 205.064 46 202.528 44.9575C199.991 43.915 197.784 42.4555 195.908 40.579C194.066 38.7025 192.624 36.4959 191.581 33.9591C190.574 31.4224 190.07 28.6424 190.07 25.6191C190.07 22.6306 190.574 19.868 191.581 17.3312C192.624 14.7945 194.066 12.5879 195.908 10.7114C197.784 8.83487 199.991 7.37537 202.528 6.33287C205.064 5.29037 207.844 4.76912 210.868 4.76912C213.856 4.76912 216.619 5.29037 219.155 6.33287C221.692 7.37537 223.899 8.83487 225.775 10.7114C227.652 12.5879 229.094 14.7945 230.102 17.3312C231.144 19.868 231.665 22.6306 231.665 25.6191C231.665 28.6424 231.144 31.4224 230.102 33.9591C229.094 36.4959 227.652 38.7025 225.775 40.579C223.899 42.4555 221.692 43.915 219.155 44.9575C216.619 46 213.856 46.5213 210.868 46.5213ZM210.868 42.664C213.265 42.664 215.489 42.247 217.54 41.413C219.59 40.5442 221.362 39.3454 222.856 37.8164C224.385 36.2526 225.567 34.4456 226.401 32.3954C227.235 30.3104 227.652 28.0516 227.652 25.6191C227.652 23.2214 227.235 20.9974 226.401 18.9471C225.567 16.8621 224.385 15.0551 222.856 13.5261C221.362 11.9624 219.59 10.7635 217.54 9.9295C215.489 9.06075 213.265 8.62637 210.868 8.62637C208.435 8.62637 206.194 9.06075 204.143 9.9295C202.093 10.7635 200.304 11.9624 198.775 13.5261C197.28 15.0551 196.116 16.8621 195.282 18.9471C194.448 20.9974 194.031 23.2214 194.031 25.6191C194.031 28.0516 194.448 30.3104 195.282 32.3954C196.116 34.4456 197.28 36.2526 198.775 37.8164C200.304 39.3454 202.093 40.5442 204.143 41.413C206.194 42.247 208.435 42.664 210.868 42.664ZM241.303 46C240.713 46 240.226 45.8089 239.844 45.4266C239.462 45.0444 239.27 44.5579 239.27 43.9671V7.32324C239.27 6.73249 239.462 6.24599 239.844 5.86374C240.226 5.4815 240.713 5.29037 241.303 5.29037C241.929 5.29037 242.45 5.53362 242.867 6.02012L267.783 38.7546V7.32324C267.783 6.73249 267.974 6.24599 268.356 5.86374C268.738 5.4815 269.225 5.29037 269.816 5.29037C270.372 5.29037 270.841 5.4815 271.223 5.86374C271.64 6.24599 271.849 6.73249 271.849 7.32324V43.9671C271.849 44.5579 271.64 45.0444 271.223 45.4266C270.841 45.8089 270.372 46 269.816 46C269.155 46 268.652 45.7741 268.304 45.3224L243.336 12.5879V43.9671C243.336 44.5579 243.128 45.0444 242.711 45.4266C242.328 45.8089 241.859 46 241.303 46Z" fill="black"/>
<g filter="url(#filter1_f_11:301)">
<path d="M53.2833 138.548V140.037L54.7545 140.265C75.9056 143.546 93.0769 151.005 103.494 155.994C113.829 160.943 126.112 168.87 139.253 178.684L140.261 179.436L141.291 178.714C143.733 177.001 145.947 175.394 148.078 173.848C156.674 167.612 163.914 162.359 179.303 155.043C198.525 145.905 215.129 141.63 226.089 140.272L227.613 140.083V138.548V138.452V138.357V138.262V138.167V138.073V137.978V137.884V137.79V137.696V137.603V137.51V137.417V137.324V137.231V137.139V137.047V136.955V136.863V136.771V136.68V136.589V136.498V136.407V136.317V136.227V136.137V136.047V135.957V135.868V135.779V135.69V135.601V135.512V135.424V135.336V135.248V135.16V135.073V134.985V134.898V134.811V134.724V134.638V134.552V134.465V134.379V134.294V134.208V134.123V134.038V133.953V133.868V133.783V133.699V133.615V133.531V133.447V133.363V133.28V133.196V133.113V133.03V132.948V132.865V132.783V132.701V132.619V132.537V132.455V132.374V132.293V132.212V132.131V132.05V131.97V131.889V131.809V131.729V131.649V131.57V131.49V131.411V131.332V131.253V131.174V131.095V131.017V130.938V130.86V130.782V130.705V130.627V130.55V130.472V130.395V130.318V130.241V130.165V130.088V130.012V129.936V129.86V129.784V129.708V129.633V129.558V129.482V129.407V129.332V129.258V129.183V129.109V129.034V128.96V128.886V128.812V128.739V128.665V128.592V128.519V128.445V128.372V128.3V128.227V128.154V128.082V128.01V127.938V127.866V127.794V127.722V127.651V127.579V127.508V127.437V127.366V127.295V127.225V127.154V127.084V127.013V126.943V126.873V126.803V126.733V126.664V126.594V126.525V126.455V126.386V126.317V126.248V126.18V126.111V126.042V125.974V125.906V125.838V125.77V125.702V125.634V125.566V125.499V125.431V125.364V125.297V125.229V125.162V125.096V125.029V124.962V124.896V124.829V124.763V124.697V124.631V124.565V124.499V124.433V124.367V124.302V124.236V124.171V124.106V124.041V123.976V123.911V123.846V123.781V123.716V123.652V123.587V123.523V123.459V123.395V123.331V123.267V123.203V123.139V123.075V123.012V122.948V122.885V122.821V122.758V122.695V122.632V122.569V122.506V122.443V122.381V122.318V122.255V122.193V122.131V122.068V122.006V121.944V121.882V121.82V121.758V121.696V121.634V121.573V121.511V121.45V121.388V121.327V121.266V121.204V121.143V121.082V121.021V120.96V120.899V120.838V120.778V120.717V120.656V120.596V120.535V120.475V120.415V120.354V120.294V120.234V120.174V120.114V120.054V119.994V119.934V119.874V119.815V119.755V119.695V119.636V119.576V119.517V119.457V119.398V119.338V119.279V119.22V119.161V119.102V119.043V118.984V118.925V118.866V118.807V118.748V118.689V118.63V118.572V118.513V118.454V118.396V118.337V118.279V118.22V118.162V118.103V118.045V117.987V117.928V117.87V117.812V117.754V117.695V117.637V117.579V117.521V117.463V117.405V117.347V117.289V117.231V117.173V117.115V117.057V117V116.942V116.884V116.826V116.768V116.711V116.653V116.595V116.538V116.48V116.422V116.365V116.307V116.25V116.192V116.134V116.077V116.019V115.962V115.904V115.847V115.789V115.732V115.674V115.617V115.559V115.502V115.444V115.387V115.33V115.272V115.215V115.157V115.1V115.042V114.985V114.928V114.87V114.813V114.755V114.698V114.64V114.583V114.525V114.468V114.411V114.353V114.296V114.238V114.181V114.123V114.066V114.008V113.95V113.893V113.835V113.778V113.72V113.663V113.605V113.547V113.49V113.432V113.374V113.316V113.259V113.201V113.143V113.085V113.028V112.97V112.912V112.854V112.796V112.738V112.68V112.622V112.564V112.506V112.448V112.39V112.331V112.273V112.215V112.157V112.099V112.04V111.982V111.923V111.865V111.807V111.748V111.689V111.631V111.572V111.514V111.455V111.396V111.337V111.278V111.22V111.161V111.102V111.043V110.984V110.924V110.865V110.806V110.747V110.688V110.628V110.569V110.509V110.45V110.39V110.331V110.271V110.211V110.151V110.091V110.032V109.972V109.912V109.851V109.791V109.731V109.671V109.611V109.55V109.49V109.429V109.369V109.308V109.247V109.186V109.126V109.065V109.004V108.943V108.881V108.82V108.759V108.698V108.636V108.575V108.513V108.451V108.39V108.328V108.266V108.204V108.142V108.08V108.018V107.955V107.893V107.831V107.768V107.706V107.643V107.58V107.517V107.454V107.391V107.328V107.265V107.202V107.138V107.075V107.011V106.947V106.884V106.82V106.756V106.692V106.628V106.564V106.499V106.435V106.37V106.306V106.241V106.176V106.111V106.046V105.981V105.916V105.851V105.785V105.72V105.654V105.588V105.522V105.456V105.39V105.324V105.258V105.191V105.125V105.058V104.992V104.925V104.858V104.791V104.724V104.656V104.589V104.521V104.454V104.386V104.318V104.25V102.512H225.875C211.557 102.512 195.35 108.182 181.438 113.421C169.586 117.885 157.485 125.707 146.016 133.121C144.083 134.37 142.169 135.608 140.276 136.816C136.731 134.631 133.59 132.598 130.583 130.651C122.751 125.581 115.82 121.094 104.982 116.015C97.2441 112.388 87.6263 109.079 78.5471 106.676C69.4978 104.281 60.8296 102.745 55.0208 102.745H53.2833L53.2833 104.482V138.548Z" fill="#FED007" stroke="black" stroke-width="3.475"/>
</g>
<g filter="url(#filter2_f_11:301)">
<path d="M65.1832 122.88C65.1832 122.745 65.2377 122.616 65.3343 122.522L70.7568 117.241C70.884 117.117 71.0674 117.07 71.2386 117.117L74.0177 117.884C74.3943 117.988 74.5116 118.464 74.2262 118.731L69.1526 123.476C69.0515 123.57 68.9941 123.703 68.9941 123.841V129.394C68.9941 129.72 68.686 129.959 68.3697 129.878L65.5588 129.156C65.3377 129.099 65.1832 128.9 65.1832 128.671V122.88Z" fill="#967B00"/>
<path d="M70 124.205C70 124.065 70.0583 123.932 70.1609 123.837L75.8098 118.625C75.9433 118.501 76.1331 118.46 76.3055 118.517L78.5191 119.247C78.8753 119.365 78.9801 119.818 78.7117 120.08L73.8475 124.827C73.7511 124.921 73.6967 125.05 73.6967 125.185V130.755C73.6967 131.089 73.3765 131.329 73.0564 131.235L70.3597 130.447C70.1465 130.385 70 130.189 70 129.967V124.205Z" fill="#967B00"/>
<path d="M74.8168 125.379C74.8168 125.243 74.8721 125.113 74.97 125.018L80.1497 120.032C80.2906 119.896 80.4978 119.855 80.6798 119.927L83.1711 120.909C83.509 121.042 83.5966 121.48 83.336 121.733L78.7794 126.156C78.6824 126.25 78.6277 126.38 78.6277 126.515L78.6277 132.386C78.6277 132.727 78.2952 132.968 77.9719 132.862L75.161 131.94C74.9557 131.873 74.8168 131.681 74.8168 131.465V125.379Z" fill="#967B00"/>
<path d="M79.6991 126.905C79.6991 126.771 79.7528 126.643 79.8481 126.549L84.7023 121.764C84.8455 121.623 85.0593 121.581 85.2449 121.658L87.4024 122.553C87.7363 122.692 87.8174 123.128 87.5555 123.377L83.1247 127.595C83.0255 127.689 82.9694 127.82 82.9694 127.957V133.857C82.9694 134.201 82.629 134.442 82.3038 134.328L80.0336 133.532C79.8332 133.461 79.6991 133.272 79.6991 133.06V126.905Z" fill="#967B00"/>
<path d="M84 128.367C84 128.227 84.0583 128.094 84.1607 127.999L88.9896 123.539C89.1335 123.406 89.342 123.369 89.5227 123.445L92.1241 124.539C92.4589 124.68 92.5366 125.119 92.2705 125.366L87.6437 129.661C87.5418 129.756 87.4839 129.889 87.4839 130.028V135.608C87.4839 135.963 87.1242 136.205 86.7954 136.071L84.3115 135.06C84.1232 134.983 84 134.8 84 134.597V128.367Z" fill="#967B00"/>
<path d="M88.6455 130.569C88.6455 130.425 88.7079 130.288 88.8168 130.193L94.0132 125.659C94.1611 125.53 94.3708 125.499 94.5494 125.581L97.03 126.713C97.3601 126.863 97.4249 127.304 97.1522 127.543L92.4008 131.712C92.2926 131.807 92.2306 131.944 92.2306 132.088V137.609C92.2306 137.97 91.8588 138.212 91.5282 138.066L88.9431 136.922C88.7622 136.842 88.6455 136.662 88.6455 136.465V130.569Z" fill="#967B00"/>
<path d="M93.2987 132.571C93.2987 132.421 93.3661 132.279 93.4821 132.184L98.8781 127.77C99.0248 127.65 99.2267 127.623 99.3995 127.7L101.696 128.731C102.033 128.883 102.095 129.335 101.811 129.572L97.0282 133.556C96.9141 133.651 96.8482 133.792 96.8482 133.94V139.746C96.8482 140.113 96.4652 140.355 96.1335 140.197L93.584 138.985C93.4098 138.902 93.2987 138.726 93.2987 138.534V132.571Z" fill="#967B00"/>
<path d="M98.1244 134.491C98.1244 134.343 98.1898 134.203 98.303 134.108L103.43 129.805C103.579 129.68 103.788 129.652 103.964 129.735L106.248 130.807C106.585 130.965 106.637 131.424 106.343 131.653L101.467 135.47C101.346 135.565 101.275 135.71 101.275 135.864V141.845C101.275 142.219 100.879 142.461 100.546 142.289L98.3957 141.183C98.2291 141.098 98.1244 140.926 98.1244 140.739L98.1244 134.491Z" fill="#967B00"/>
<path d="M102.392 136.431C102.392 136.272 102.467 136.123 102.595 136.029L108.091 131.973C108.24 131.863 108.438 131.844 108.606 131.926L110.923 133.049C111.263 133.214 111.304 133.683 110.997 133.904L105.758 137.687C105.628 137.781 105.551 137.932 105.551 138.092V143.965C105.551 144.341 105.152 144.582 104.819 144.408L102.66 143.277C102.495 143.191 102.392 143.02 102.392 142.834L102.392 136.431Z" fill="#967B00"/>
<path d="M107 138.716C107 138.551 107.082 138.396 107.219 138.303L113.021 134.355C113.17 134.253 113.363 134.24 113.524 134.32L115.785 135.439C116.125 135.607 116.161 136.077 115.852 136.295L110.3 140.217C110.168 140.31 110.089 140.463 110.089 140.625V146.268C110.089 146.642 109.693 146.883 109.36 146.712L107.272 145.639C107.105 145.554 107 145.382 107 145.195L107 138.716Z" fill="#967B00"/>
<path d="M111.285 141.075C111.285 140.906 111.37 140.749 111.511 140.657L117.671 136.617C117.825 136.516 118.022 136.508 118.184 136.596L120.613 137.918C120.941 138.097 120.964 138.56 120.655 138.77L114.85 142.728C114.722 142.815 114.642 142.958 114.633 143.113L114.32 148.663C114.299 149.029 113.905 149.249 113.582 149.074L111.547 147.971C111.386 147.884 111.285 147.715 111.285 147.532L111.285 141.075Z" fill="#967B00"/>
<path d="M115.743 143.654C115.749 143.493 115.832 143.344 115.966 143.255L122.212 139.095C122.375 138.986 122.585 138.983 122.752 139.085L125.166 140.573C125.474 140.763 125.485 141.206 125.187 141.411L119.459 145.336C119.334 145.421 119.255 145.558 119.243 145.709L118.796 151.339C118.766 151.711 118.355 151.921 118.037 151.727L115.773 150.345C115.62 150.251 115.528 150.081 115.534 149.901L115.743 143.654Z" fill="#967B00"/>
<path d="M120.483 146.163C120.492 146.004 120.577 145.859 120.711 145.772L126.731 141.894C126.896 141.787 127.109 141.788 127.274 141.894L129.777 143.514C130.087 143.714 130.08 144.17 129.765 144.361L124.02 147.855C123.887 147.936 123.799 148.075 123.783 148.23L123.172 154.131C123.133 154.505 122.711 154.704 122.398 154.496L120.322 153.12C120.173 153.021 120.088 152.851 120.099 152.674L120.483 146.163Z" fill="#967B00"/>
<path d="M124.972 149.183C124.99 149.03 125.077 148.894 125.208 148.813L131.46 144.989C131.624 144.889 131.832 144.891 131.993 144.996L134.818 146.828C135.125 147.027 135.121 147.478 134.811 147.672L128.737 151.471C128.615 151.547 128.532 151.672 128.508 151.814L127.636 157.15C127.577 157.51 127.163 157.688 126.861 157.482L124.484 155.865C124.33 155.761 124.247 155.58 124.268 155.395L124.972 149.183Z" fill="#967B00"/>
<path d="M129.869 152.239C129.893 152.097 129.976 151.972 130.098 151.896L136.186 148.099C136.35 147.996 136.559 147.998 136.722 148.103L139.131 149.66C139.44 149.86 139.434 150.314 139.121 150.506L133.499 153.955C133.378 154.029 133.295 154.15 133.269 154.289L132.169 160.135C132.104 160.483 131.708 160.654 131.41 160.465L129.071 158.978C128.902 158.871 128.813 158.673 128.845 158.475L129.869 152.239Z" fill="#967B00"/>
<path d="M134.314 155.166C134.34 155.034 134.418 154.917 134.531 154.844L138.508 152.24C138.841 152.022 139.282 152.26 139.282 152.658V156.748C139.282 156.932 139.181 157.101 139.019 157.188L138.181 157.641C138.069 157.701 137.985 157.801 137.945 157.921L136.319 162.759C136.216 163.065 135.855 163.195 135.581 163.025L133.372 161.65C133.196 161.541 133.106 161.333 133.146 161.13L134.314 155.166Z" fill="#967B00"/>
<path d="M140.319 157.883C140.216 157.788 140.157 157.655 140.157 157.515V150.655C140.157 150.477 140.252 150.313 140.406 150.223L142.806 148.826C143.139 148.632 143.557 148.872 143.557 149.258V155.888C143.557 156.036 143.623 156.176 143.736 156.271L148.119 159.954C148.379 160.172 148.35 160.581 148.062 160.76L145.637 162.277C145.446 162.396 145.199 162.373 145.033 162.221L140.319 157.883Z" fill="#967B00"/>
<path d="M144.925 155.56C144.811 155.465 144.744 155.324 144.744 155.175L144.744 147.934C144.744 147.76 144.836 147.598 144.985 147.507L146.88 146.358C147.213 146.156 147.639 146.396 147.639 146.785V153.338C147.639 153.487 147.706 153.629 147.822 153.724L152.258 157.371C152.519 157.586 152.496 157.993 152.212 158.177L150.2 159.48C150.017 159.599 149.777 159.585 149.609 159.445L144.925 155.56Z" fill="#967B00"/>
<path d="M148.794 152.883C148.681 152.788 148.616 152.648 148.616 152.5V145.572C148.616 145.398 148.706 145.236 148.855 145.146L151.026 143.817C151.365 143.61 151.798 143.861 151.787 144.258L151.593 151.151C151.588 151.305 151.655 151.452 151.773 151.55L155.935 154.996C156.196 155.213 156.171 155.62 155.885 155.803L154.139 156.92C153.955 157.037 153.715 157.022 153.548 156.881L148.794 152.883Z" fill="#967B00"/>
<path d="M153.187 150.957C153.069 150.863 153 150.719 153 150.567V142.884C153 142.708 153.093 142.545 153.244 142.455L155.469 141.129C155.803 140.931 156.225 141.171 156.225 141.559V148.302C156.225 148.447 156.288 148.585 156.398 148.68L160.511 152.244C160.768 152.466 160.733 152.874 160.443 153.049L158.09 154.47C157.91 154.579 157.682 154.563 157.519 154.432L153.187 150.957Z" fill="#967B00"/>
<path d="M157.467 147.856C157.359 147.761 157.297 147.625 157.297 147.481V140.353C157.297 140.178 157.389 140.015 157.54 139.924L160.046 138.42C160.385 138.217 160.814 138.467 160.803 138.862L160.632 145.395C160.628 145.537 160.685 145.674 160.789 145.772L164.97 149.712C165.212 149.94 165.168 150.336 164.882 150.506L162.563 151.88C162.377 151.99 162.14 151.968 161.978 151.825L157.467 147.856Z" fill="#967B00"/>
<path d="M162.151 144.957C162.054 144.863 162 144.734 162 144.599L162 137.665C162 137.484 162.098 137.317 162.256 137.229L164.982 135.702C165.318 135.514 165.732 135.76 165.726 136.145L165.633 142.567C165.631 142.704 165.685 142.836 165.783 142.932L169.867 146.94C170.105 147.173 170.052 147.569 169.762 147.732L167.069 149.251C166.875 149.36 166.633 149.328 166.474 149.173L162.151 144.957Z" fill="#967B00"/>
<path d="M166.991 142.345C166.887 142.247 166.829 142.109 166.833 141.966L167.018 134.875C167.023 134.693 167.126 134.528 167.287 134.444L169.567 133.259C169.9 133.085 170.298 133.327 170.298 133.702V140.39C170.298 140.524 170.352 140.653 170.449 140.747L174.317 144.52C174.558 144.755 174.503 145.155 174.209 145.317L171.989 146.534C171.8 146.638 171.566 146.609 171.408 146.461L166.991 142.345Z" fill="#967B00"/>
<path d="M171.559 140.085C171.468 139.992 171.417 139.867 171.417 139.736V132.656C171.417 132.47 171.519 132.3 171.683 132.213L174.306 130.83C174.642 130.653 175.045 130.9 175.039 131.281L174.926 138.023C174.923 138.151 174.971 138.275 175.058 138.37L178.723 142.354C178.949 142.6 178.875 142.995 178.575 143.142L176.164 144.323C175.97 144.419 175.736 144.378 175.586 144.223L171.559 140.085Z" fill="#967B00"/>
<path d="M176.136 137.799C176.049 137.707 176 137.584 176 137.457V130.289C176 130.098 176.109 129.924 176.28 129.84L178.574 128.716C178.906 128.553 179.294 128.795 179.294 129.165V135.598C179.294 135.724 179.342 135.846 179.428 135.939L183.26 140.05C183.487 140.293 183.418 140.685 183.122 140.836L180.666 142.088C180.468 142.189 180.227 142.147 180.075 141.985L176.136 137.799Z" fill="#967B00"/>
<path d="M180.859 135.42C180.776 135.329 180.73 135.209 180.73 135.086V128.134C180.73 127.941 180.841 127.765 181.015 127.682L183.534 126.485C183.87 126.325 184.256 126.574 184.249 126.945L184.131 133.671C184.128 133.793 184.171 133.911 184.25 134.004L187.666 138.02C187.881 138.274 187.793 138.664 187.489 138.801L185.267 139.797C185.069 139.886 184.836 139.837 184.691 139.675L180.859 135.42Z" fill="#967B00"/>
<path d="M185.373 133.499C185.301 133.408 185.263 133.295 185.265 133.179L185.387 125.955C185.39 125.761 185.506 125.586 185.683 125.507L188.551 124.228C188.891 124.077 189.272 124.337 189.254 124.709L188.935 131.341C188.929 131.461 188.966 131.578 189.04 131.672L192.36 135.939C192.559 136.194 192.466 136.569 192.171 136.702L189.396 137.948C189.187 138.042 188.942 137.982 188.8 137.803L185.373 133.499Z" fill="#967B00"/>
<path d="M190.005 131.37C189.937 131.277 189.904 131.163 189.911 131.048L190.343 123.804C190.355 123.611 190.476 123.443 190.654 123.37L193.469 122.227C193.81 122.089 194.179 122.354 194.156 122.722L193.735 129.53C193.728 129.636 193.756 129.742 193.814 129.832L196.626 134.183C196.796 134.446 196.686 134.799 196.396 134.917L193.806 135.979C193.592 136.067 193.346 135.997 193.211 135.809L190.005 131.37Z" fill="#967B00"/>
<path d="M194.881 129.535C194.825 129.446 194.799 129.342 194.806 129.237L195.296 121.881C195.309 121.684 195.436 121.514 195.621 121.445L198.259 120.467C198.61 120.338 198.973 120.624 198.93 120.995L198.151 127.587C198.138 127.694 198.161 127.803 198.215 127.897L200.969 132.623C201.126 132.892 201.001 133.238 200.708 133.345L198.277 134.228C198.055 134.309 197.807 134.223 197.682 134.023L194.881 129.535Z" fill="#967B00"/>
<path d="M199.219 127.649C199.165 127.556 199.143 127.447 199.156 127.34L200.037 120.134C200.061 119.938 200.198 119.774 200.387 119.716L203.06 118.904C203.407 118.798 203.748 119.088 203.701 119.448L202.843 125.927C202.829 126.036 202.851 126.146 202.905 126.242L205.676 131.057C205.835 131.332 205.699 131.684 205.397 131.782L202.569 132.7C202.344 132.773 202.098 132.679 201.98 132.473L199.219 127.649Z" fill="#967B00"/>
<path d="M203.823 126.057C203.768 125.959 203.747 125.846 203.764 125.735L204.866 118.601C204.897 118.401 205.045 118.239 205.242 118.191L207.761 117.575C208.114 117.489 208.438 117.796 208.371 118.153L207.15 124.681C207.129 124.791 207.146 124.906 207.198 125.005L209.776 129.931C209.923 130.213 209.773 130.559 209.466 130.644L207.211 131.269C206.99 131.331 206.755 131.233 206.642 131.034L203.823 126.057Z" fill="#967B00"/>
<path d="M208.199 124.686C208.147 124.585 208.131 124.47 208.153 124.359L209.535 117.408C209.575 117.208 209.734 117.051 209.935 117.014L212.448 116.55C212.804 116.484 213.109 116.806 213.025 117.157L211.625 123.019C211.598 123.134 211.611 123.254 211.664 123.359L214.383 128.782C214.527 129.07 214.366 129.417 214.053 129.492L211.429 130.125C211.205 130.178 210.973 130.072 210.868 129.867L208.199 124.686Z" fill="#967B00"/>
<path d="M212.847 123.241L215.463 128.47C215.708 128.96 216.449 128.756 216.409 128.21L216.392 127.984V116.289C216.392 115.931 216.027 115.689 215.697 115.828L214.612 116.286C214.466 116.348 214.358 116.475 214.321 116.63L212.807 122.899C212.78 123.014 212.794 123.136 212.847 123.241Z" fill="#967B00"/>
<path d="M137.556 163.97L140.054 165.48C140.214 165.577 140.414 165.576 140.574 165.478L143.989 163.382C144.274 163.208 144.31 162.809 144.063 162.585L139.724 158.661C139.458 158.421 139.034 158.529 138.916 158.867L137.342 163.378C137.264 163.601 137.353 163.848 137.556 163.97Z" fill="#967B00"/>
<path d="M64.7167 116.815C64.7167 116.52 64.9711 116.289 65.2649 116.317L68.8948 116.669C69.3154 116.709 69.499 117.221 69.2002 117.52L65.5703 121.15C65.2553 121.465 64.7167 121.242 64.7167 120.796V116.815Z" fill="#967B00"/>
</g>
<path d="M217.023 28.6672C219.777 31.5896 221.314 33.5588 218.213 36.1686C216.626 36.9188 213.171 35.674 211.07 36.1686C208.484 36.777 206.238 38.9057 204.72 37.2939C201.966 34.3714 204.794 29.4016 207.895 26.7918C210.995 24.182 214.269 25.7447 217.023 28.6672Z" fill="black"/>
<path d="M209.482 17.415C210.301 19.6379 211.07 22.2579 208.688 23.0411C206.307 23.8242 205.116 22.666 203.926 20.4155C202.735 18.1651 202.835 15.1645 205.116 14.4144C206.825 13.8525 208.663 15.192 209.482 17.415Z" fill="black"/>
<path d="M217.42 19.2903C217.023 21.5408 215.832 22.8357 213.451 22.666C211.07 22.4963 210.858 20.061 211.07 17.4149C211.281 14.7689 213.11 13.1518 215.038 13.2891C216.966 13.4265 217.816 17.0399 217.42 19.2903Z" fill="black"/>
<path d="M222.976 24.9163C222.976 27.1667 220.73 29.1506 219.007 29.0421C217.284 28.9336 216.467 27.1672 216.626 24.9163C216.854 22.7482 218.078 20.682 219.801 20.7905C221.523 20.899 222.976 22.6659 222.976 24.9163Z" fill="black"/>
<path d="M203.926 23.041C205.513 24.7252 206.307 27.232 204.72 28.292C203.481 29.3347 201.417 28.9162 199.83 27.232C198.243 25.5478 198.321 22.9585 199.56 21.9158C200.799 20.8731 202.339 21.3568 203.926 23.041Z" fill="black"/>
</g>
<defs>
<filter id="filter0_d_11:301" x="1.26472" y="4.76913" width="273.48" height="182.604" filterUnits="userSpaceOnUse" color-interpolation-filters="sRGB">
<feFlood flood-opacity="0" result="BackgroundImageFix"/>
<feColorMatrix in="SourceAlpha" type="matrix" values="0 0 0 0 0 0 0 0 0 0 0 0 0 0 0 0 0 0 127 0" result="hardAlpha"/>
<feOffset dy="2.89583"/>
<feGaussianBlur stdDeviation="1.44792"/>
<feComposite in2="hardAlpha" operator="out"/>
<feColorMatrix type="matrix" values="0 0 0 0 0.854902 0 0 0 0 0.854902 0 0 0 0 0.854902 0 0 0 1 0"/>
<feBlend mode="normal" in2="BackgroundImageFix" result="effect1_dropShadow_11:301"/>
<feBlend mode="normal" in="SourceGraphic" in2="effect1_dropShadow_11:301" result="shape"/>
</filter>
<filter id="filter1_f_11:301" x="51.2458" y="100.475" width="178.404" height="81.4062" filterUnits="userSpaceOnUse" color-interpolation-filters="sRGB">
<feFlood flood-opacity="0" result="BackgroundImageFix"/>
<feBlend mode="normal" in="SourceGraphic" in2="BackgroundImageFix" result="shape"/>
<feGaussianBlur stdDeviation="0.15" result="effect1_foregroundBlur_11:301"/>
</filter>
<filter id="filter2_f_11:301" x="64.5167" y="115.588" width="152.093" height="50.1636" filterUnits="userSpaceOnUse" color-interpolation-filters="sRGB">
<feFlood flood-opacity="0" result="BackgroundImageFix"/>
<feBlend mode="normal" in="SourceGraphic" in2="BackgroundImageFix" result="shape"/>
<feGaussianBlur stdDeviation="0.1" result="effect1_foregroundBlur_11:301"/>
</filter>
</defs>
</svg>
