<svg width="28" height="30" viewBox="0 0 28 30" fill="none" xmlns="http://www.w3.org/2000/svg">
<path d="M21.0227 15.6672C23.7767 18.5896 25.3141 20.5588 22.2133 23.1686C20.6258 23.9188 17.1715 22.674 15.0695 23.1686C12.4844 23.777 10.2385 25.9057 8.71951 24.2939C5.96552 21.3714 8.79372 16.4016 11.8945 13.7918C14.9953 11.182 18.2687 12.7447 21.0227 15.6672Z" fill="black"/>
<path d="M13.482 4.41496C14.3006 6.63789 15.0695 9.25792 12.6883 10.0411C10.307 10.8242 9.11638 9.66599 7.92575 7.41555C6.73512 5.16511 6.83545 2.16451 9.11638 1.41437C10.825 0.852454 12.6635 2.19203 13.482 4.41496Z" fill="black"/>
<path d="M21.4196 6.29033C21.0227 8.54077 19.8321 9.83566 17.4508 9.66597C15.0695 9.49627 14.8584 7.06098 15.0695 4.41494C15.2807 1.76891 17.1104 0.15176 19.0383 0.289149C20.9662 0.426538 21.8164 4.03989 21.4196 6.29033Z" fill="black"/>
<path d="M26.9759 11.9163C26.9759 14.1667 24.7297 16.1506 23.0071 16.0421C21.2844 15.9336 20.4671 14.1672 20.6258 11.9163C20.8538 9.74824 22.0782 7.68203 23.8008 7.79051C25.5235 7.89899 26.9759 9.66587 26.9759 11.9163Z" fill="black"/>
<path d="M7.92576 10.041C9.51284 11.7252 10.307 14.232 8.71951 15.292C7.48064 16.3347 5.41691 15.9162 3.82983 14.232C2.24275 12.5478 2.32124 9.95849 3.56011 8.91579C4.79898 7.87308 6.33867 8.35684 7.92576 10.041Z" fill="black"/>
</svg>
